<?xml version="1.0" encoding="utf-8"?>
<!-- Generator: Adobe Illustrator 22.1.0, SVG Export Plug-In . SVG Version: 6.00 Build 0)  -->
<svg version="1.1" id="Layer_1" xmlns="http://www.w3.org/2000/svg" xmlns:xlink="http://www.w3.org/1999/xlink" x="0px" y="0px"
	 viewBox="0 0 2177 1500" style="enable-background:new 0 0 2177 1500;" xml:space="preserve">
<style type="text/css">
	.st0{clip-path:url(#SVGID_2_);}
	.st1{clip-path:url(#SVGID_4_);}
	.st2{clip-path:url(#SVGID_4_);fill:#FFFFFF;}
	.st3{clip-path:url(#SVGID_4_);fill:#231F20;}
	.st4{fill:#231F20;}
	.st5{font-family:'LucidaBright';}
	.st6{font-size:25.2152px;}
	.st7{clip-path:url(#SVGID_6_);fill:none;stroke:#FFFFFF;stroke-width:0.3782;}
	.st8{clip-path:url(#SVGID_8_);fill:none;stroke:#FFFFFF;stroke-width:0.3782;}
	.st9{clip-path:url(#SVGID_10_);}
	.st10{clip-path:url(#SVGID_12_);}
	.st11{fill:#FFFFFF;stroke:#000000;stroke-miterlimit:10;}
</style>
<g>
	<g>
		<defs>
			<rect id="SVGID_1_" x="1119.3" y="0" width="1057.8" height="1501"/>
		</defs>
		<clipPath id="SVGID_2_">
			<use xlink:href="#SVGID_1_"  style="overflow:visible;"/>
		</clipPath>
		<g class="st0">
			<defs>
				<rect id="SVGID_3_" x="1119.3" y="287.4" width="972.3" height="798.3"/>
			</defs>
			<clipPath id="SVGID_4_">
				<use xlink:href="#SVGID_3_"  style="overflow:visible;"/>
			</clipPath>
			<path class="st1" d="M753.4,761.5c-1.5-19.1,7-39.1,28.2-41.8c4.8-0.6,9.5,0.3,14.2,0.1c4-0.1,3.2-1.1,3.2,1.9
				c0,5.8-4,13.4-7,18.1c-6.7,10.5-17.6,19.3-25.6,28.9c-7.2,8.8-14.1,17.8-21,26.9c-2.5,3.3-4.9,6.6-7.4,9.9
				c-2.2,2.9-2.6,5-6.1,2.5c-6.1-4.5-1.1-5,2.3-8.1c4-3.6,6.6-8.3,7.4-13.6c1.9-12.8-2.1-40.3-21.4-34.8c-9,2.6-12.5,11.8-11.6,20.4
				c0.5,4.6,2.1,9,3.6,13.4c1.7,4.9,2.4,10.3,5.4,14.8c0.5,0.8,1.9,0.9,2.3-0.1h0c-0.8-0.2-1.6-0.4-2.4-0.5
				c-1.5,7.7-3.8,6.2-11.2,7.8c-5.6,1.2-10,3.9-15.2,6.2c-7.7,3.4-16.5,4.5-24.6,7.1c-8.9,2.8-17.8,6.2-26.2,10.2
				c-10.4,5-19.9,11.7-29.4,18.2c-5.5,3.7-20.6,11.4-22.1,18.9c-1,5.2,4.5,4.8,8,3.4c12.5-5,22.6-17.6,33.8-25.1
				c13.3-9,29.1-13.3,44.6-17.1c5.5-1.3,11.1-2.5,16.7-3.7c1.5-0.3,3.1-0.7,4.6-0.9c3.1-0.3,1-0.8,0.8,0.3c-0.9,5.2-5.7,10.9-8.6,15
				c-4.4,6.2-9.2,12.1-13.9,18c-10.1,12.4-20.6,24.4-29.3,37.9c-7.3,11.3-14.1,22.4-22.6,32.9c-3.7,4.5-7.4,9-11.4,13.2
				c-3.9,4.1-5.4,6-10.4,2.9c-9.3-5.7-17.5-13.3-26.3-19.6c-2.9-2.1-12.1-10.2-16.4-7.7c-7.8,4.5,20.9,26.4,24.4,29.1
				c5.5,4.3,14.7,13.5,22.3,13.9c7.2,0.4,15.2-10.6,19.4-15.1c7.6-8.3,14.5-17.1,21.7-25.7c8.5-10.2,19.8-18.2,30.7-25.5
				c-0.6-0.4-1.3-0.8-1.9-1.3c-6.3,14.3-12.7,28.6-19.2,42.8c-3.3,7.1-6.2,14.8-10.2,21.5c-4.3,7.2-11,13.3-16.9,19.2
				c-12.8,12.8-28.5,24.9-38.7,40c-4.7,7-1.3,10.5,5.7,6.1c13.6-8.5,25.1-21.6,36.2-32.9c8.4-8.6,17.6-17,24.3-27.1
				c20.1-30.2,38-62.9,54.1-95.3c5.7-11.5,18-18.6,22.6-30.7c5.7-14.8,13.8-27.3,23.2-40.1c10.6-14.4,22.2-27.6,34.1-40.9
				c8.3-9.2,24.1-23,20.4-36.5c-0.6,0.4-1.2,0.8-1.8,1.2c23.7,8.9,49.2,26.3,59.7,49.9c10.1,22.7,0.4,42.2-9.2,62.9
				c-8.5,18.3-15.6,37.7-17.6,57.9c-4.7,48,24.3,86.8,59.4,116.2c32.5,27.2,68.7,42.7,109.6,52.9c92.2,23,190,25.6,284.5,23.7
				c99.2-2.1,196.8-15.4,294-35c47.3-9.5,94.4-20.7,140.1-36.3c30.9-10.5,61.7-23,89.3-40.7c32.5-20.8,60-50.6,62.7-90.7
				c0.6-8.8,0.7-18.2-2.1-26.7c-4.1-12.8-13.4-23.3-23.5-31.8c-30.8-25.9-71.8-39.9-109.9-51.2c-52.9-15.6-107.6-25.4-162.4-32
				c-59.1-7.2-118-8.4-177.4-9.9c-46.4-1.2-99.1-3.8-140.8-26.6c-23.9-13.1-39.4-34.2-40.6-61.8c-0.5-13,1.4-26.5,4.9-39
				c5-18,19-30.7,34.8-39.8c39.2-22.5,87.4-28.8,131.2-36.7c48-8.6,94.4-17.8,138.2-40.4c20.5-10.5,39.5-23.3,57.9-37.1
				c18.1-13.6,35.4-24.7,56.5-33.4c32.6-13.4,65-25.7,96.5-41.5c32.5-16.3,65.3-31.8,99.2-44.9c26.6-10.3,53.7-18.8,81.3-26.3
				c17.1-4.6,35.6-11.3,53.4-12c13.4-0.5,26.8,1,40,2.5c12.3,1.4,24.6,0.6,37,0.3c9.1-0.2,34.6-2.1,30.2,14
				c-2.6,9.3-16.5,15.9-24.3,20.2c-21.1,11.6-43.4,21.2-65.2,31.3c-34.9,16.2-69.9,32.1-105.1,47.4c-29.4,12.8-59,25.9-89.4,36.3
				c-2.7,0.9-17.5,7.4-20.1,4.8c-6.2-6.2,30.7-26.1,34.3-27.6c7.1-3.2,16.3-7.2,24.4-6.1c12.3,1.8,6.6,18,3.2,25.2
				c-10.2,21.6-26.6,39.6-37.2,61.1c-17.2,35-35.3,72.4-59.8,102.9c-3,3.7-8.5,11.8-14.1,10.5c-8.6-2-11-18.2-11.6-25.1
				c-0.4-4.4-0.6-24.4,7.6-15.7c5.9,6.3,9.1,16.8,11.1,25c0.8,3.3,1.5,6.7,1.5,10.1c0,10.6-10.8,3.4-11-4
				c-0.2-7.2,6.1-14.3,8.2-21.2c7.4-25,15.4-49.9,23.2-74.8c5.8-18.3,13-36.6,13.3-56c0.1-7.1,0.9-17.8-4.1-23.8
				c-5.1-6-13.4-2.8-19.3,0.3c-7.7,4.1-14.4,10.5-21,16.1c-9.6,8.1-19.2,16.3-29.6,23.4c-5.1,3.5-10.5,6.8-16.2,9.4
				c-2.3,1-4.6,1.9-7,2.5c-1.9,0.5-3.9,0.7-5.9,0.7c-8.8-0.1-8.3-8.6-1.5-12.7c9.3-5.6,20.3-10.8,29.9-15.7
				c44.8-22.5,90.6-42.8,136.5-62.8c18.7-8.1,37.4-16.2,56.1-24.3c9.8-4.2,20.9-7.8,30-13.4c10.7-6.5-8.6-8-13.4-6.7
				c-9.4,2.5-18.7,9.5-27.2,14.2c-10.8,5.9-21.6,11.9-32.6,17.5c-8.7,4.4-17.6,9.2-26.9,12.1c-1.5,0.5-6.9,2.7-8.3,0.9
				c-1.8-2.5,5.1-8.2,6.4-9.4c13.3-11.9,31.8-19.9,42.2-34.8c6.4-9.2,1.4-14.2-8.1-16c-18.3-3.6-38.4-1.3-56.9-0.2
				c-23.6,1.4-47.1,3.5-70.6,4.7c-11.6,0.6-25,2.6-36.5,0c-4.6-1.1-13.7-6-11-12.6c3-7,6.7-5.4,8.3-4.3c1.6,1,1.4,3.6,1.4,4.5
				c0,0.8-0.3,1.9-0.5,2.8c-1,4.1-4,9.6-8.7,10c-0.5,0-1.2,0.5-1.2,1c-0.3,5.5,4.3,7.3,9.1,8.5c9.7,2.5,19.7,3.9,29.5,6.4
				c9.6,2.5,19.2,5.2,28.5,8.9c7.6,3.1,17.4,6.8,9.5,15.4c-11.7,12.8-32.6,20.8-49.4,23.3c-24.3,3.6-48.9-0.1-73,6
				c-24.1,6.1-47.5,18.7-73,17.1c-12.5-0.8-24.2-5.2-35.7-9.8c-8.8-3.5-18.1-8.6-27.8-8.8c-8.7-0.2-21.9,4.5-16.3,15.6
				c4.1,8.1,15.9,14.4,22.8,20.1l33.3,27.2c6.5,5.3,13.2,12.7,21.8,14.5c11.3,2.4,20.4-6.6,31-8.4c5.1-0.9,18.3,0.4,10.5,7
				c-2.8,2.4-5.8,4.6-8.9,6.7c-7.9,5.4-16.2,10-24.7,14.4c-4.7,2.5-54.5,22.9-43.6,32.6c5.5,5,19.1,1.7,25.3,0.6
				c12.1-2.1,24.4-5.2,35.7-10.1c3.2-1.4,12.5-4.5,10.1-9.5c-3.8-7.9-23.9,1.2-28.3,3.5c-13.7,7.3-18.5,21.7-20.3,36.5
				c-0.7,5.6-1.8,20.7,7.8,17c4.1-1.6,7.9-6.3,10.8-9.4c5.4-5.7,10.4-11.9,15.1-18.3c5.2-7.1,15.8-18.5,15.4-28
				c-0.1-1.5-2.8-1.2-2.7,0.4c0.3,7.4-8.5,17.5-12.5,23c-6.1,8.5-12.7,17-20.2,24.3c-1.4,1.4-6,6.8-8.4,6.3c-5.2-1-2.6-15.3-2-18.4
				c2.4-14.9,7.7-26.9,22-33.2c4.7-2.1,12.2-5.2,17.5-4c7,1.6,0.4,4.9-2.8,6.4c-8.9,4.3-18.9,7-28.5,9.2c-8.5,1.9-18.5,4.4-27.3,3.1
				c-12.6-1.8,0.8-10.4,5.6-13.2c23.9-14,51.2-23.2,71.5-42.6c0.4-0.4,0.4-1,0-1.4c-8-9.8-20.7-4.8-30.3-0.6
				c-6.4,2.8-12.7,4.9-19.8,2.9c-4.9-1.4-9.9-6.6-13.8-9.8c-8.8-7.2-17.6-14.4-26.4-21.5c-7.4-6-14.8-12.1-22.2-18.1
				c-4.5-3.7-16.3-11-10-18.4c3.3-3.9,9.8-4.3,14.6-3.9c8.6,0.7,17.1,5.4,25,8.5c8.2,3.3,16.5,6.5,25.2,8.4
				c38,8.3,72.9-17.1,110.3-19.4c18.6-1.1,37.8,0.8,56.1-3.8c12.2-3.1,24.4-8.7,34.7-15.9c4.4-3.1,13.8-9.4,12.2-16.1
				c-1.9-7.5-18.2-11.1-24.1-13.1c-15.1-5-30.7-8.4-46.3-11.5c-2.2-0.4-9.2-2.3-9.4-4.4c-0.2-2.1,0.7-1.8,2-2.1
				c1.3-0.3,2.5-1.6,3.3-2.5c1.7-2,3-4.4,3.8-6.8c1.8-5.4,1.5-13.1-5.9-13.1c-8.1,0-10.5,10.8-6.8,16.6c6.3,9.9,22.8,7.6,32.7,7.3
				c13.3-0.4,26.5-1.2,39.7-2.1c27.5-1.9,55.2-4.7,82.8-4.5c8,0.1,18.2-0.5,25.6,2.9c9.6,4.4-1.9,15.1-6.5,19.2
				c-8.8,7.9-18.9,14.2-28.2,21.5c-4,3.1-12.9,8.7-13.2,14.5c-0.7,11.6,28.1-4,31.2-5.6c11.4-5.6,22.6-11.6,33.7-17.7
				c5.7-3.1,11.3-6.2,17-9.3c5.9-3.2,12.5-8,19.2-8.8c1.9-0.2,11.8-0.9,9.3,2.6c-0.7,1-3.8,1.9-4.9,2.4c-6.1,2.8-12.4,5.5-18.6,8.2
				c-47,20.4-94.1,40.5-140.6,61.8c-24.5,11.3-48.9,22.8-72.8,35.3c-6.6,3.4-25.2,9.4-24.6,18.8c0.5,9,13.8,7.5,19.5,5.7
				c25-7.7,44.3-29.9,64.4-45.5c4.1-3.2,8.4-6.3,13.5-7.9c10.4-3.4,13,5,13.7,13.2c1.1,12.1,0,24.2-3.5,35.9
				c-7.6,25.8-16.1,51.4-24.1,77.1c-3.5,11.4-5.8,24.9-11.3,35.4c-3.4,6.6-8.6,14.1-3.4,21.4c2.4,3.4,8.9,7.8,12.7,3.9
				c4-4.2,0.9-14.3-0.3-18.9c-1.4-5.2-10-34.5-20.1-26.9c-4.7,3.5-4,13.2-3.6,18.2c0.6,8.2,2.4,18.5,8.1,24.9
				c9.6,10.9,19.8-3.7,25.4-11.2c13.9-18.5,25.2-39,36.3-59.3c9.9-18.2,18.2-37.6,28.9-55.3c8-13.3,17.8-25.5,25.5-39
				c4.5-7.8,11.3-20,7.5-29.4c-5.4-13.3-27.9-3.1-36.3,0.8c-8.6,4-17,8.8-24.4,14.8c-3.4,2.8-10.2,7.8-10.2,12.8
				c0,6.3,8.4,3.3,12.1,2.4c31.6-8.2,62.1-23,91.9-35.9c40.2-17.4,80.1-35.5,119.8-54c24.9-11.6,52.8-22,75.1-38.3
				c6.7-4.9,14.1-11.8,10.1-20.8c-3.7-8.2-14.6-8.3-22.3-8.5c-14.5-0.3-29,1.5-43.5,0.1c-14-1.4-27.9-3.2-42-2.9
				c-20.2,0.4-41.3,8.3-60.6,13.5c-32.2,8.8-63.6,19.5-94.5,32.1c-38.9,16-75.7,36.1-113.9,53.7c-31.5,14.5-66.8,22.9-96.3,41.5
				c-18.5,11.7-35.1,26.3-53.6,38.2c-27.2,17.5-57.2,31.5-88.3,40.4c-50,14.3-102.3,18.5-152.6,31.6c-36.5,9.5-84.2,24.8-94.1,66.3
				c-6.2,26-7.1,54.9,10,77.2c23.7,30.7,68.4,39.7,104.5,44.6c34.3,4.7,68.7,4.8,103.2,5.2c33.2,0.4,66.4,2.3,99.5,5.3
				c65,5.9,130.2,16,193.2,33.7c25.8,7.3,51.5,15.9,75.7,27.4c18.4,8.7,37,19.4,50.9,34.5c34.3,37.3,8.8,92.8-24.2,120.9
				c-25.7,21.9-57.3,36.5-88.7,48.5c-50.8,19.4-104.1,32.3-157.3,43.2c-62.4,12.8-125.9,23.9-189.3,29.9
				c-49.4,4.7-99.2,6.5-148.9,6.3c-56.7-0.1-113.5-2.8-169.7-10.3c-47.9-6.4-98.4-15.5-141.7-38c-26.7-13.9-51.4-34.6-70.5-57.6
				c-17.1-20.7-28.9-45.4-29.3-72.6c-0.3-25.4,8.6-49.8,19.3-72.4c9.5-20,17.5-39.1,8.2-61c-10.5-24.7-37-42.7-61.4-51.9
				c-0.7-0.3-2.1,0.3-1.8,1.2c3.8,14-16.5,31.3-25.3,40.9c-9.5,10.4-18.5,21.2-26.9,32.4c-7.1,9.5-14.1,19.3-19.8,29.7
				c-2.8,5-4,10.3-6.3,15.4c-2.7,5.8-7.8,10.4-12.1,15.1c-10.3,11.2-16,26.2-23.3,39.4c-9.3,17-18.9,33.9-28.8,50.6
				c-5.8,9.8-11.4,19.7-19.1,28.1c-10.7,11.6-21.7,22.9-33.2,33.8c-5.5,5.2-11.1,10.5-17.3,14.9c-0.9,0.7-4.4,3.6-5.5,2.9
				c-1.6-1.1,2.5-6.1,3.2-7c10.9-14.1,25.2-25.9,37.7-38.5c5.5-5.5,11.5-11.1,15.7-17.7c4.2-6.5,7-14,10.2-21
				c6.8-14.8,13.4-29.7,20-44.6c0.5-1.2-1.1-1.9-2-1.3c-10.5,7-21.4,14.7-29.8,24.2c-7.5,8.5-14.2,17.6-21.8,26
				c-4.2,4.7-8.8,10.4-14.2,13.8c-4.9,3.1-7.7,0.7-12.2-2.2c-10.9-6.9-21.2-15.4-30.2-24.5c-1.3-1.3-8.7-7.9-7.7-9.8
				c1.2-2.4,12.8,6.3,13.8,7.1c9.3,6.7,18.6,16.8,29.2,21.3c6.3,2.7,10.3-3.9,14.2-8.3c7.9-8.8,15.7-18.2,22-28.2
				c12.4-19.7,26.1-37.3,40.6-55.4c5.3-6.6,10.7-13.4,15.3-20.5c2.2-3.4,6.2-8.4,5.5-12.8c-0.1-0.6-0.8-1-1.4-0.9
				c-13.4,2.3-26.8,5.4-39.8,9.3c-20.9,6.3-35.8,17.8-52.7,31.1c-2.6,2-7.3,6.8-10.8,7.2c-6.8,0.8-1.1-5.1,1.4-7.2
				c6.7-6,14.5-10.8,21.9-15.7c19-12.5,38.6-21.9,60.9-27.4c10.2-2.5,19-8,29.2-10.2c7.7-1.6,9.8-1,11.5-9.3
				c0.3-1.4-1.9-1.5-2.4-0.5l0,0c0.8,0,1.6,0,2.4,0c-3.1-4.6-4.3-11.3-6-16.7c-1.2-3.5-2.4-7.1-2.8-10.9c-0.8-7.8,1.4-13.1,8.8-16.2
				c5.4-2.3,9.6-2.3,13.9,2.5c1.5,1.7,2.2,3.4,2.9,5.4c1.2,3.6,1.6,7.6,2,11.3c1.3,12.3-1,21.3-12.5,28c-0.4,0.2-0.7,0.9-0.4,1.3
				c2.3,3.8,6,10.3,10.8,7c2.7-1.8,4.8-6.3,6.7-8.9c3.9-5.2,7.8-10.5,11.8-15.7c9.3-12.1,18.9-24.2,29.6-35.1
				c9.5-9.6,14.1-19.1,17.2-32.1c0.2-0.6-0.5-1.2-1.1-1.2c-13.2-1.2-28.2-2.4-38.4,7.7c-10,9.9-12.8,22.5-11.8,36
				C751,763.2,753.5,762.9,753.4,761.5"/>
			<path class="st1" d="M1203.4,893c-2.9,1.1-5.6,1.7-8,1.7c-3.7,0-6.7-1.2-9-3.7c-2.3-2.5-3.5-5.7-3.5-9.7c0-3.8,1-6.9,3.1-9.3
				c2.1-2.4,4.7-3.6,8-3.6c3,0,5.3,1,6.9,3c1.6,2,2.4,4.9,2.4,8.7v0.4H1188c0,3.9,0.7,6.9,2.1,8.9c1.4,2,3.4,3,6.1,3
				c2.8,0,5.3-0.6,7.3-1.7V893z M1188.1,879h10.5l0-1c0-2.9-0.4-5-1.1-6.3c-0.8-1.3-2-2-3.7-2c-1.7,0-3.1,0.8-4.1,2.5
				C1188.6,873.9,1188.1,876.2,1188.1,879"/>
			<path class="st2" d="M1195.4,895.2c-3.8,0-7-1.3-9.4-3.9c-2.4-2.6-3.6-6-3.6-10c0-3.9,1.1-7.1,3.2-9.6c2.2-2.5,5-3.8,8.4-3.8
				c3.1,0,5.6,1.1,7.3,3.2c1.7,2.1,2.5,5.1,2.5,9v0.9h-15.4c0,3.6,0.7,6.4,2,8.2c1.3,1.9,3.2,2.8,5.7,2.8c2.7,0,5.1-0.6,7-1.7
				l0.7-0.4v3.5l-0.3,0.1C1200.6,894.6,1197.9,895.2,1195.4,895.2 M1194,868.8c-3.1,0-5.7,1.2-7.7,3.5c-2,2.3-3,5.4-3,9
				c0,3.9,1.1,7,3.4,9.4c3.6,3.9,9.2,4.7,16.2,2v-1.3c-1.9,1-4.2,1.4-6.8,1.4c-2.8,0-5-1.1-6.5-3.2c-1.4-2.1-2.1-5.2-2.1-9.2V880
				h15.4c0-3.6-0.8-6.4-2.3-8.4C1199.1,869.7,1196.9,868.8,1194,868.8 M1199,879.5h-11.4V879c0-2.9,0.5-5.3,1.6-7
				c1.1-1.8,2.6-2.8,4.5-2.8c1.9,0,3.3,0.7,4.1,2.2c0.8,1.4,1.2,3.5,1.2,6.6L1199,879.5z M1188.6,878.6h9.5l0-0.6
				c0-2.8-0.4-4.9-1.1-6.1c-0.7-1.2-1.8-1.7-3.3-1.7s-2.8,0.8-3.7,2.3C1189.1,874,1188.6,876.1,1188.6,878.6"/>
			<path class="st1" d="M1220.2,894.4l-8.2-19.4c-0.8-2-1.5-3.3-1.8-3.9c-0.4-0.5-0.9-0.8-1.5-0.9l-0.4,0v-1.4h11v1.4h-0.4
				c-2,0-3,0.3-3.1,1c0,0.2,0.5,1.5,1.4,3.8l5.7,13.5l5.9-13.4c0.9-2.1,1.4-3.4,1.4-3.8c0-0.7-0.9-1-2.8-1h-0.5v-1.4h7.5v1.4l-0.5,0
				c-0.6,0-1,0.2-1.3,0.6c-0.3,0.3-1,1.7-2.1,4.2l-8.7,19.3H1220.2z"/>
			<path class="st2" d="M1221.9,894.9h-2l-8.3-19.6c-0.8-2-1.4-3.3-1.8-3.8c-0.3-0.4-0.7-0.6-1.2-0.7l-0.8,0v-2.3h11.9v2.4h-0.9
				c-2,0-2.6,0.4-2.6,0.6c0,0.1,0.2,0.7,1.4,3.6l5.3,12.5l5.5-12.5c1.2-2.8,1.4-3.5,1.4-3.6c0-0.2-0.5-0.6-2.4-0.6h-1v-2.4h8.4v2.3
				l-0.9,0c-0.4,0-0.8,0.2-1,0.4c-0.1,0.1-0.5,0.8-2,4.1L1221.9,894.9z M1220.5,894h0.8l8.6-19c1.5-3.4,1.9-4.1,2.1-4.3
				c0.4-0.4,0.9-0.7,1.6-0.7l0.1,0v-0.5h-6.6l0.1,0.5c0.8,0,3.3,0,3.3,1.5c0,0.3-0.2,1.1-1.4,4l-6.3,14.4l-6.1-14.4
				c-1.5-3.6-1.5-3.8-1.5-4c0.1-1.3,2-1.4,3.5-1.4v-0.5h-10v0.5c0.8,0.1,1.4,0.4,1.8,1.1c0.4,0.6,1,1.9,1.9,3.9L1220.5,894z"/>
			<path class="st1" d="M1259.4,893c-2.9,1.1-5.6,1.7-8,1.7c-3.7,0-6.7-1.2-9-3.7c-2.3-2.5-3.5-5.7-3.5-9.7c0-3.8,1-6.9,3.1-9.3
				c2.1-2.4,4.7-3.6,8-3.6c3,0,5.3,1,6.9,3c1.6,2,2.4,4.9,2.4,8.7v0.4H1244c0,3.9,0.7,6.9,2.1,8.9c1.4,2,3.4,3,6.1,3
				c2.8,0,5.3-0.6,7.3-1.7V893z M1244.1,879h10.5l0-1c0-2.9-0.4-5-1.1-6.3c-0.8-1.3-2-2-3.7-2c-1.7,0-3.1,0.8-4.1,2.5
				C1244.6,873.9,1244.1,876.2,1244.1,879"/>
			<path class="st2" d="M1251.4,895.2c-3.8,0-7-1.3-9.4-3.9c-2.4-2.6-3.6-6-3.6-10c0-3.9,1.1-7.1,3.2-9.6c2.2-2.5,5-3.8,8.3-3.8
				c3.1,0,5.6,1.1,7.3,3.2c1.7,2.1,2.5,5.1,2.5,9v0.9h-15.4c0.1,3.6,0.7,6.4,2,8.2c1.3,1.9,3.2,2.8,5.7,2.8c2.7,0,5.1-0.6,7-1.7
				l0.7-0.4v3.5l-0.3,0.1C1256.6,894.6,1253.9,895.2,1251.4,895.2 M1250,868.8c-3.1,0-5.7,1.2-7.7,3.5c-2,2.3-3,5.4-3,9
				c0,3.8,1.1,7,3.4,9.4c3.6,3.9,9.2,4.7,16.2,2v-1.3c-1.9,1-4.2,1.4-6.8,1.4c-2.8,0-5-1.1-6.5-3.2c-1.4-2.1-2.1-5.2-2.1-9.2V880
				h15.4c0-3.6-0.8-6.4-2.3-8.4C1255.1,869.7,1252.9,868.8,1250,868.8 M1255,879.5h-11.4V879c0-2.9,0.5-5.3,1.6-7
				c1.1-1.8,2.6-2.8,4.5-2.8c1.9,0,3.3,0.7,4.1,2.2c0.8,1.4,1.2,3.5,1.2,6.6L1255,879.5z M1244.5,878.6h9.5l0-0.6
				c0-2.8-0.4-4.9-1.1-6.1c-0.7-1.2-1.8-1.7-3.3-1.7c-1.6,0-2.8,0.8-3.7,2.3C1245.1,874,1244.6,876.1,1244.5,878.6"/>
			<path class="st1" d="M1274,875.8v12.3c0,2.1,0.2,3.4,0.5,3.8c0.4,0.4,1.5,0.7,3.3,0.8l1,0v1.4h-13.8v-1.4l0.4,0
				c1.9-0.1,3-0.4,3.3-0.8c0.4-0.4,0.5-1.7,0.5-3.8v-13.2c0-2.1-0.2-3.3-0.5-3.7c-0.3-0.4-1.5-0.7-3.3-0.8l-0.4,0v-1.4h8.9v4.7
				c2.1-3.5,4.8-5.3,8.2-5.3c0.5,0,1,0.1,1.6,0.3v6.9h-2.6l0-0.4c-0.2-1.4-0.3-2.3-0.5-2.6c-0.1-0.3-0.5-0.4-1.1-0.4
				C1277.3,872.1,1275.4,873.3,1274,875.8"/>
			<path class="st2" d="M1279.3,894.6h-14.7v-2.3l0.9,0c2.4-0.2,2.9-0.5,3-0.6c0.1-0.1,0.4-0.7,0.4-3.5v-13.2c0-2.8-0.3-3.3-0.4-3.4
				c-0.1-0.1-0.6-0.5-3-0.7l-0.9,0v-2.3h9.8v3.7c2.1-2.8,4.7-4.2,7.8-4.2c0.5,0,1.1,0.1,1.7,0.3l0.3,0.1v7.7h-3.5l0-0.9
				c-0.2-1.9-0.4-2.3-0.4-2.4c0-0.1-0.2-0.1-0.6-0.1c-2.1,0-3.8,1.1-5.2,3.4v12.2c0,2.8,0.3,3.3,0.4,3.5c0.1,0.1,0.6,0.5,3,0.6
				l1.4,0V894.6z M1265.5,893.7h12.8v-0.5l-0.5,0c-2.1-0.1-3.2-0.4-3.7-1c-0.3-0.4-0.7-1.1-0.7-4.1v-12.5l0.1-0.1
				c1.6-2.6,3.6-3.9,6-3.9c0.8,0,1.3,0.2,1.5,0.7c0.1,0.2,0.3,0.7,0.5,2.7v0h1.7v-6.1c-0.4-0.1-0.8-0.1-1.1-0.1
				c-3.2,0-5.8,1.7-7.8,5.1l-0.9,1.5v-6h-8l0,0.5c2.7,0.2,3.4,0.6,3.7,1c0.3,0.3,0.6,1.1,0.6,4.1v13.2c0,2.9-0.3,3.7-0.6,4.1
				c-0.3,0.4-1,0.8-3.7,1h0V893.7z"/>
			<path class="st1" d="M1291.4,903.3l8.3-9.2l-8-19.1c-0.8-2-1.5-3.3-1.9-3.8c-0.4-0.5-1-0.8-1.9-0.8l-0.5,0v-1.4h11.6v1.4h-0.5
				c-2.1,0-3.2,0.3-3.2,0.8c0,0.3,0.4,1.6,1.3,3.8l5.6,13.6l6.1-13.6c0.9-2,1.3-3.2,1.3-3.6c0-0.7-0.9-1-2.8-1h-0.6v-1.4h7.5v1.4
				l-0.4,0c-1,0.1-1.8,0.9-2.5,2.6c-0.1,0.3-0.4,1-0.9,2l-12.9,28.4H1291.4z"/>
			<path class="st2" d="M1297.5,903.8h-7.1l8.8-9.7l-7.9-18.9c-1-2.5-1.5-3.4-1.8-3.7c-0.3-0.4-0.8-0.6-1.5-0.7l-0.9,0v-2.3h12.5
				v2.4h-1c-2.4,0-2.7,0.4-2.7,0.4c0,0.1,0.2,0.7,1.3,3.6l5.2,12.6l5.6-12.6c1.2-2.6,1.3-3.3,1.3-3.4c0-0.2-0.5-0.5-2.4-0.5h-1.1
				v-2.4h8.4v2.3l-0.9,0c-0.8,0.1-1.5,0.8-2.1,2.3c-0.1,0.3-0.4,1-0.9,2L1297.5,903.8z M1292.5,902.9h4.4l12.8-28.1
				c0.5-1,0.8-1.7,0.9-2c0.7-1.9,1.7-2.8,2.9-2.9h0v-0.5h-6.6v0.5h0.2c0.9,0,3.3,0,3.3,1.5c0,0.3-0.2,1.1-1.4,3.8l-6.5,14.6
				l-6.1-14.6c-1.4-3.5-1.4-3.8-1.4-4c0-1.1,1.8-1.3,3.6-1.3h0v-0.5H1288l0,0.5c1,0.1,1.7,0.4,2.2,1c0.4,0.5,1.1,1.8,1.9,3.9
				l8.1,19.4L1292.5,902.9z"/>
			<path class="st1" d="M1333,894c-1.2,0.5-2.3,0.7-3.3,0.7c-2.7,0-4.6-0.7-5.9-2c-1.2-1.3-1.8-3.5-1.8-6.4v-15.5h-3.7v-1.9h3.7
				v-4.6l4.6-1.1v5.7h7v1.9h-7v16.1c0,2.2,0.3,3.7,0.9,4.6c0.6,0.9,1.6,1.4,2.9,1.4c0.7,0,1.6-0.2,2.7-0.7V894z"/>
			<path class="st2" d="M1329.6,895.2c-2.8,0-4.9-0.7-6.2-2.2c-1.3-1.4-2-3.7-2-6.8v-15h-3.7v-2.8h3.7v-4.5l5.5-1.4v5.9h7v2.8h-7
				v15.6c0,2.1,0.3,3.6,0.8,4.4c0.5,0.8,1.3,1.2,2.5,1.2c0.7,0,1.5-0.2,2.5-0.7l0.7-0.3v2.9l-0.3,0.1
				C1331.9,894.9,1330.7,895.2,1329.6,895.2 M1318.7,870.3h3.7v16c0,2.8,0.6,4.9,1.7,6.1c1.1,1.2,3,1.9,5.5,1.9
				c0.9,0,1.9-0.2,2.9-0.6v-0.8c-0.8,0.3-1.6,0.5-2.2,0.5c-1.5,0-2.7-0.5-3.3-1.6c-0.6-1-0.9-2.6-0.9-4.9v-16.6h7v-1h-7v-5.6
				l-3.7,0.9v4.7h-3.7V870.3z"/>
			<path class="st1" d="M1347,873.6c1.2-1.8,2.5-3.1,4-4c1.5-0.9,3.2-1.3,5.1-1.3c2.2,0,3.9,0.7,5.1,2.1c1.2,1.4,1.8,3.4,1.8,5.9
				v11.8c0.1,2.3,0.3,3.6,0.5,3.9c0.2,0.3,1.4,0.5,3.4,0.7l0.4,0v1.4h-13.2v-1.4l0.4,0c2-0.1,3.1-0.4,3.3-0.7
				c0.3-0.3,0.4-1.6,0.5-3.9v-11.1c0-2.2-0.3-3.7-0.8-4.5c-0.6-0.8-1.6-1.3-3-1.3c-1,0-2.2,0.3-3.4,1c-1.3,0.6-2.7,1.6-4.2,2.9v13
				c0,2.1,0.2,3.4,0.5,3.8c0.3,0.4,1.5,0.7,3.4,0.8l0.4,0v1.4h-13.2v-1.4l0.4,0c1.9-0.1,3-0.4,3.3-0.8c0.4-0.4,0.5-1.7,0.5-3.8
				v-24.7c0-2.1-0.2-3.3-0.5-3.8c-0.3-0.4-1.5-0.7-3.3-0.8l-0.4,0v-1.4h8.9V873.6z"/>
			<path class="st2" d="M1367.8,894.6h-14.1v-2.3l0.9,0c2.5-0.2,3-0.4,3-0.5c0-0.1,0.3-0.6,0.4-3.6v-11c0-2.1-0.3-3.5-0.8-4.3
				c-0.5-0.7-1.3-1.1-2.7-1.1c-0.9,0-2,0.3-3.2,0.9c-1.2,0.6-2.5,1.5-3.9,2.7v12.8c0,2.8,0.3,3.4,0.4,3.5c0.1,0.1,0.6,0.5,3,0.6
				l0.9,0v2.3h-14.1v-2.3l0.9,0c2.4-0.2,2.9-0.5,3-0.6c0.1-0.1,0.4-0.7,0.4-3.5v-24.7c0-2.8-0.3-3.3-0.4-3.5c-0.1-0.1-0.6-0.5-3-0.6
				l-0.9,0v-2.3h9.8v15.2c1-1.3,2.1-2.2,3.3-3c1.6-0.9,3.4-1.4,5.3-1.4c2.3,0,4.1,0.8,5.5,2.3c1.3,1.5,1.9,3.6,1.9,6.2v11.8
				c0.1,3,0.4,3.6,0.4,3.6c0,0,0.5,0.3,3,0.5l0.8,0V894.6z M1354.6,893.7h12.3v-0.5c-2.8-0.2-3.4-0.5-3.7-0.8
				c-0.2-0.3-0.5-1-0.6-4.2v-11.8c0-2.4-0.6-4.3-1.7-5.6c-1.2-1.3-2.7-2-4.8-2c-1.8,0-3.4,0.4-4.9,1.3c-1.4,0.8-2.7,2.1-3.9,3.8
				l-0.5,0.8c1.5-1.3,2.8-2.2,4.1-2.8c1.3-0.7,2.6-1,3.7-1c1.6,0,2.8,0.5,3.4,1.5c0.6,0.9,0.9,2.5,0.9,4.8v11.1
				c-0.2,3.2-0.4,3.9-0.6,4.2c-0.3,0.3-0.9,0.6-3.7,0.8V893.7z M1338.6,893.7h12.3v-0.5c-2.7-0.2-3.4-0.6-3.7-1
				c-0.3-0.3-0.6-1.1-0.6-4.1v-30.2h-8l0,0.5c2.7,0.2,3.4,0.6,3.7,1c0.3,0.3,0.6,1.1,0.6,4.1v24.7c0,2.9-0.3,3.7-0.6,4.1
				c-0.3,0.4-1,0.8-3.7,1h0V893.7z"/>
			<path class="st1" d="M1379.5,868.9v19.2c0,2.1,0.2,3.4,0.5,3.8c0.3,0.4,1.5,0.7,3.4,0.8l0.4,0v1.4h-13.2v-1.4l0.4,0
				c1.9-0.1,3-0.4,3.3-0.8c0.4-0.4,0.5-1.7,0.5-3.8v-13.2c0-2.1-0.2-3.3-0.5-3.7c-0.3-0.4-1.5-0.7-3.3-0.8l-0.4,0v-1.4H1379.5z
				 M1374.9,859.7h4.6v4.6h-4.6V859.7z"/>
			<path class="st2" d="M1384.2,894.6h-14.1v-2.3l0.9,0c2.4-0.2,2.9-0.5,3-0.6c0.1-0.1,0.4-0.7,0.4-3.5v-13.2c0-2.8-0.3-3.3-0.4-3.4
				c-0.1-0.1-0.6-0.5-3-0.7l-0.9,0v-2.3h9.8v19.7c0,2.8,0.3,3.4,0.4,3.5c0.1,0.1,0.6,0.5,3,0.6l0.9,0V894.6z M1371.1,893.7h12.3
				l0-0.5c-2.7-0.2-3.4-0.6-3.7-1c-0.3-0.3-0.6-1.1-0.6-4.1v-18.8h-8l0,0.5c2.7,0.2,3.4,0.6,3.7,1c0.3,0.3,0.6,1.1,0.6,4v13.2
				c0,2.9-0.3,3.7-0.6,4.1c-0.3,0.4-1,0.8-3.7,1h0V893.7z M1379.9,864.8h-5.5v-5.5h5.5V864.8z M1375.4,863.8h3.7v-3.7h-3.7V863.8z"
				/>
			<path class="st1" d="M1396.5,873.6c1.2-1.8,2.5-3.1,4-4c1.5-0.9,3.2-1.3,5.1-1.3c2.2,0,3.9,0.7,5.1,2.1c1.2,1.4,1.8,3.4,1.8,5.9
				v11.8c0.1,2.3,0.3,3.6,0.5,3.9c0.3,0.3,1.4,0.5,3.4,0.7l0.4,0v1.4h-13.2v-1.4l0.4,0c2-0.1,3.1-0.4,3.4-0.7
				c0.2-0.3,0.4-1.6,0.5-3.9v-11.1c0-2.2-0.3-3.7-0.8-4.5c-0.6-0.8-1.6-1.3-3-1.3c-1,0-2.2,0.3-3.4,1c-1.3,0.6-2.7,1.6-4.2,2.9v13
				c0,2.1,0.2,3.4,0.5,3.8c0.3,0.4,1.5,0.7,3.4,0.8l0.4,0v1.4h-13.2v-1.4l0.4,0c1.9-0.1,3-0.4,3.3-0.8c0.4-0.4,0.5-1.7,0.5-3.8
				v-13.2c0-2.1-0.2-3.3-0.5-3.7c-0.3-0.4-1.5-0.7-3.3-0.8l-0.4,0v-1.4h8.9V873.6z"/>
			<path class="st2" d="M1417.3,894.6h-14.1v-2.3l0.9,0c2.5-0.2,3-0.4,3-0.5c0-0.1,0.3-0.6,0.4-3.6v-11c0-2.1-0.3-3.5-0.8-4.3
				c-0.5-0.7-1.3-1.1-2.6-1.1c-0.9,0-2,0.3-3.2,0.9c-1.2,0.6-2.5,1.5-3.9,2.7v12.8c0,2.8,0.3,3.4,0.4,3.5c0.1,0.1,0.6,0.5,3,0.6
				l0.9,0v2.3h-14.1v-2.3l0.9,0c2.4-0.2,2.9-0.5,3-0.6c0.1-0.1,0.4-0.7,0.4-3.5v-13.2c0-2.8-0.3-3.3-0.4-3.4c-0.1-0.1-0.6-0.5-3-0.7
				l-0.9,0v-2.3h9.8v3.8c1-1.3,2.1-2.2,3.3-3c1.6-0.9,3.4-1.4,5.3-1.4c2.3,0,4.1,0.8,5.5,2.3c1.3,1.5,1.9,3.6,1.9,6.2v11.8
				c0.1,3,0.4,3.6,0.4,3.6c0,0,0.5,0.3,3,0.5l0.8,0V894.6z M1404.1,893.7h12.3v-0.5c-2.8-0.2-3.4-0.5-3.7-0.8
				c-0.2-0.3-0.5-1-0.6-4.2v-11.8c0-2.4-0.6-4.3-1.7-5.6c-1.2-1.3-2.7-2-4.8-2c-1.8,0-3.4,0.4-4.9,1.3c-1.4,0.8-2.8,2.1-3.9,3.8
				l-0.5,0.8c1.5-1.3,2.8-2.2,4.1-2.8c1.3-0.7,2.6-1,3.7-1c1.6,0,2.8,0.5,3.4,1.5c0.6,0.9,0.9,2.5,0.9,4.8v11.1
				c-0.1,3.2-0.4,3.9-0.6,4.2c-0.3,0.3-0.9,0.6-3.7,0.8V893.7z M1388.1,893.7h12.3l0-0.5c-2.7-0.2-3.4-0.6-3.7-1
				c-0.3-0.3-0.6-1.1-0.6-4.1v-18.8h-8l0,0.5c2.7,0.2,3.4,0.6,3.7,1c0.3,0.3,0.6,1.1,0.6,4.1v13.2c0,2.9-0.3,3.7-0.6,4.1
				c-0.3,0.4-1,0.8-3.7,1h0V893.7z"/>
			<path class="st1" d="M1425.8,893.2c-1.8-0.8-2.6-1.9-2.6-3.3c0-0.8,0.4-1.6,1.1-2.3c0.7-0.8,1.8-1.5,3.3-2.2
				c-1.7-0.8-3-1.8-3.8-3.2c-0.9-1.4-1.3-3-1.3-4.9c0-2.7,0.9-4.9,2.6-6.5c1.7-1.6,4-2.4,6.9-2.4c1.8,0,3.4,0.3,4.8,1l8.9-0.7
				l-1.2,2.8l-6.1-1c2,1.9,3,4.2,3,6.8c0,2.6-0.9,4.7-2.6,6.4c-1.7,1.7-4,2.5-6.7,2.5c-1,0-2.1-0.2-3.3-0.5c-0.5,0.4-1,0.9-1.2,1.3
				c-0.3,0.5-0.4,1-0.4,1.5c0,1.1,1,1.6,2.9,1.6h4c3.9,0,6.5,0.4,8,1.2c1.5,0.8,2.2,2.3,2.2,4.5c0,2.4-1.1,4.4-3.3,5.8
				c-2.2,1.5-5.1,2.2-8.7,2.2c-3.5,0-6.2-0.5-8.3-1.5c-2.1-1-3.2-2.3-3.2-3.9c0-1.1,0.4-2,1.3-2.9
				C1422.9,894.7,1424.1,893.9,1425.8,893.2 M1427,893.6c-0.6,0.6-1,1.2-1.3,1.9c-0.3,0.7-0.4,1.5-0.4,2.3c0,1.6,0.6,2.8,1.8,3.6
				c1.2,0.8,3,1.2,5.3,1.2c2.3,0,4.1-0.5,5.4-1.5c1.3-1,2-2.3,2-4c0-1.1-0.4-2-1.2-2.6c-0.8-0.6-2-0.9-3.7-0.9H1427z M1427.1,877
				c0,2.5,0.4,4.5,1.2,5.8c0.8,1.3,2,1.9,3.7,1.9s2.8-0.6,3.7-1.9c0.8-1.3,1.2-3.2,1.2-5.7c0-4.9-1.6-7.3-4.8-7.3
				c-1.6,0-2.9,0.6-3.7,1.8C1427.5,872.7,1427.1,874.6,1427.1,877"/>
			<path class="st2" d="M1432.3,904.3c-3.5,0-6.4-0.5-8.5-1.5c-2.3-1.1-3.4-2.5-3.4-4.3c0-1.2,0.5-2.3,1.4-3.2
				c0.7-0.8,1.8-1.5,3.1-2.1c-1.4-0.8-2.1-1.9-2.1-3.3c0-0.9,0.4-1.8,1.2-2.6c0.6-0.7,1.5-1.3,2.6-1.9c-1.4-0.8-2.5-1.7-3.2-2.9
				c-0.9-1.4-1.4-3.2-1.4-5.2c0-2.8,0.9-5.1,2.7-6.8c1.8-1.7,4.3-2.5,7.3-2.5c1.8,0,3.4,0.3,4.9,1l9.5-0.7l-1.6,3.8l-5.1-0.8
				c1.5,1.8,2.2,3.8,2.2,6.1c0,2.7-0.9,5-2.8,6.8c-1.8,1.8-4.2,2.7-7,2.7c-1,0-2.1-0.1-3.2-0.4c-0.4,0.3-0.7,0.7-0.9,1.1
				c-0.2,0.4-0.4,0.8-0.4,1.3c0,0.3,0,1.2,2.4,1.2h4c4,0,6.7,0.4,8.2,1.3c1.6,0.9,2.4,2.6,2.4,4.9c0,2.6-1.2,4.7-3.5,6.2
				C1439,903.6,1436,904.3,1432.3,904.3 M1426.6,893.3l-0.6,0.3c-1.6,0.7-2.9,1.5-3.7,2.3c-0.8,0.8-1.1,1.6-1.1,2.6
				c0,1.4,1,2.6,2.9,3.5c2,1,4.8,1.4,8.2,1.4c3.5,0,6.4-0.7,8.5-2.1c2.1-1.4,3.1-3.2,3.1-5.5c0-2-0.6-3.3-2-4.1
				c-1.4-0.8-4-1.2-7.7-1.2h-4c-2.8,0-3.4-1.1-3.4-2.1c0-0.6,0.2-1.2,0.5-1.7c0.3-0.5,0.7-0.9,1.2-1.3l-0.6,0.3
				c-1.4,0.7-2.5,1.4-3.2,2.1c-0.6,0.7-1,1.4-1,2c0,1.2,0.8,2.2,2.4,2.9l0.8,0.4l0,0h8.1c1.7,0,3,0.3,3.9,0.9c0.9,0.7,1.4,1.7,1.4,3
				c0,1.8-0.7,3.3-2.2,4.4c-1.4,1-3.3,1.6-5.7,1.6c-2.5,0-4.3-0.4-5.6-1.3c-1.3-0.9-2-2.2-2-4c0-0.9,0.2-1.7,0.5-2.5
				C1425.6,894.5,1426,893.9,1426.6,893.3 M1427.2,894c-0.5,0.5-0.8,1-1.1,1.6c-0.3,0.6-0.4,1.3-0.4,2.1c0,1.4,0.5,2.5,1.6,3.2
				c1.1,0.7,2.8,1.1,5.1,1.1c2.2,0,3.9-0.5,5.1-1.4c1.2-0.9,1.8-2.1,1.8-3.7c0-1-0.3-1.7-1-2.2c-0.7-0.5-1.9-0.8-3.4-0.8H1427.2z
				 M1428.8,885.1l0.2,0.1c1.1,0.3,2.2,0.5,3.1,0.5c2.6,0,4.7-0.8,6.3-2.4c1.6-1.6,2.5-3.6,2.5-6.1c0-2.4-1-4.6-2.8-6.4l-1-1l-0.3,0
				l-0.1,0c-1.4-0.6-2.9-0.9-4.6-0.9c-2.8,0-5,0.8-6.6,2.3c-1.6,1.5-2.4,3.6-2.4,6.1c0,1.8,0.4,3.4,1.2,4.7c0.8,1.3,2,2.3,3.6,3
				l0.8,0.4L1428.8,885.1z M1437.1,869.7l7.1,1.1l0.7-1.8L1437.1,869.7z M1432,885.2c-1.8,0-3.2-0.7-4.1-2.1c-0.9-1.4-1.3-3.3-1.3-6
				c0-2.5,0.4-4.5,1.3-5.7c0.9-1.3,2.3-2,4.1-2c3.5,0,5.3,2.6,5.3,7.8c0,2.7-0.4,4.6-1.3,6C1435.1,884.4,1433.8,885.2,1432,885.2
				 M1432,870.2c-1.5,0-2.6,0.5-3.3,1.6c-0.8,1.1-1.2,2.9-1.2,5.2c0,2.5,0.4,4.3,1.2,5.5c0.7,1.2,1.8,1.7,3.3,1.7
				c1.5,0,2.5-0.6,3.3-1.7c0.8-1.2,1.1-3,1.1-5.5C1436.4,872.4,1434.9,870.2,1432,870.2"/>
			<path class="st1" d="M1475.4,868.9v19.2c0,2.1,0.2,3.4,0.5,3.8c0.3,0.4,1.5,0.7,3.4,0.8l0.4,0v1.4h-13.2v-1.4l0.4,0
				c1.9-0.1,3-0.4,3.3-0.8c0.4-0.4,0.5-1.7,0.5-3.8v-13.2c0-2.1-0.2-3.3-0.5-3.7c-0.3-0.4-1.5-0.7-3.3-0.8l-0.4,0v-1.4H1475.4z
				 M1470.8,859.7h4.6v4.6h-4.6V859.7z"/>
			<path class="st2" d="M1480.2,894.6h-14.1v-2.3l0.9,0c2.4-0.2,2.9-0.5,3-0.6c0.1-0.1,0.4-0.7,0.4-3.5v-13.2c0-2.8-0.3-3.3-0.4-3.4
				c-0.1-0.1-0.6-0.5-3-0.7l-0.9,0v-2.3h9.8v19.7c0,2.8,0.3,3.4,0.4,3.5c0.1,0.1,0.6,0.5,3,0.6l0.9,0V894.6z M1467,893.7h12.3l0-0.5
				c-2.7-0.2-3.4-0.6-3.7-1c-0.3-0.3-0.6-1.1-0.6-4.1v-18.8h-8l0,0.5c2.7,0.2,3.4,0.6,3.7,1c0.3,0.3,0.6,1.1,0.6,4v13.2
				c0,2.9-0.3,3.7-0.6,4.1c-0.3,0.4-1,0.8-3.7,1h0V893.7z M1475.9,864.8h-5.5v-5.5h5.5V864.8z M1471.3,863.8h3.7v-3.7h-3.7V863.8z"
				/>
			<path class="st1" d="M1492.4,873.6c1.2-1.8,2.5-3.1,4-4c1.5-0.9,3.2-1.3,5.1-1.3c2.2,0,3.9,0.7,5.1,2.1c1.2,1.4,1.8,3.4,1.8,5.9
				v11.8c0.1,2.3,0.3,3.6,0.5,3.9c0.3,0.3,1.4,0.5,3.4,0.7l0.4,0v1.4h-13.2v-1.4l0.4,0c2-0.1,3.1-0.4,3.4-0.7
				c0.2-0.3,0.4-1.6,0.5-3.9v-11.1c0-2.2-0.3-3.7-0.8-4.5c-0.6-0.8-1.6-1.3-3-1.3c-1,0-2.2,0.3-3.4,1c-1.3,0.6-2.7,1.6-4.2,2.9v13
				c0,2.1,0.2,3.4,0.5,3.8c0.3,0.4,1.5,0.7,3.4,0.8l0.4,0v1.4h-13.2v-1.4l0.4,0c1.9-0.1,3-0.4,3.3-0.8c0.4-0.4,0.5-1.7,0.5-3.8
				v-13.2c0-2.1-0.2-3.3-0.5-3.7c-0.3-0.4-1.5-0.7-3.3-0.8l-0.4,0v-1.4h8.9V873.6z"/>
			<path class="st2" d="M1513.3,894.6h-14.1v-2.3l0.9,0c2.5-0.2,3-0.4,3-0.5c0-0.1,0.3-0.6,0.4-3.6v-11c0-2.1-0.3-3.5-0.8-4.3
				c-0.5-0.7-1.3-1.1-2.6-1.1c-0.9,0-2,0.3-3.2,0.9c-1.2,0.6-2.5,1.5-3.9,2.7v12.8c0,2.8,0.3,3.4,0.4,3.5c0.1,0.1,0.6,0.5,3,0.6
				l0.9,0v2.3h-14.1v-2.3l0.9,0c2.4-0.2,2.9-0.5,3-0.6c0.1-0.1,0.4-0.7,0.4-3.5v-13.2c0-2.8-0.3-3.3-0.4-3.4c-0.1-0.1-0.6-0.5-3-0.7
				l-0.9,0v-2.3h9.8v3.8c1-1.3,2.1-2.2,3.3-3c1.6-0.9,3.4-1.4,5.3-1.4c2.3,0,4.1,0.8,5.5,2.3c1.3,1.5,1.9,3.6,1.9,6.2v11.8
				c0.1,3,0.4,3.6,0.4,3.6c0,0,0.5,0.3,3,0.5l0.8,0V894.6z M1500.1,893.7h12.3v-0.5c-2.8-0.2-3.4-0.5-3.7-0.8
				c-0.2-0.3-0.5-1-0.6-4.2v-11.8c0-2.4-0.6-4.3-1.7-5.6c-1.2-1.3-2.7-2-4.8-2c-1.8,0-3.4,0.4-4.9,1.3c-1.4,0.8-2.8,2.1-3.9,3.8
				l-0.5,0.8c1.5-1.3,2.8-2.2,4.1-2.8c1.3-0.7,2.6-1,3.6-1c1.6,0,2.8,0.5,3.4,1.5c0.6,0.9,0.9,2.5,0.9,4.8v11.1
				c-0.1,3.2-0.4,3.9-0.6,4.2c-0.3,0.3-0.9,0.6-3.7,0.8V893.7z M1484,893.7h12.3l0-0.5c-2.7-0.2-3.4-0.6-3.7-1
				c-0.3-0.3-0.6-1.1-0.6-4.1v-18.8h-8l0,0.5c2.7,0.2,3.4,0.6,3.7,1c0.3,0.3,0.6,1.1,0.6,4.1v13.2c0,2.9-0.3,3.7-0.6,4.1
				c-0.3,0.4-1,0.8-3.7,1h0V893.7z"/>
			<path class="st1" d="M1535.8,894.4v-31c0-2.1-0.2-3.3-0.5-3.8c-0.3-0.4-1.5-0.7-3.3-0.8l-0.4,0v-1.4h8.9v16.2
				c1.1-1.8,2.5-3.1,3.9-4c1.5-0.9,3.1-1.3,4.9-1.3c2.9,0,5.1,1.1,6.8,3.4c1.7,2.3,2.5,5.3,2.5,9.1c0,4.2-1,7.6-2.9,10.1
				c-1.9,2.5-4.5,3.8-7.7,3.8c-1.5,0-2.8-0.3-4.1-0.9c-1.3-0.6-2.4-1.4-3.5-2.6h-0.3l-0.6,3.1H1535.8z M1540.4,889.5
				c1.2,0.9,2.4,1.6,3.6,2c1.2,0.5,2.3,0.7,3.4,0.7c2.1,0,3.7-0.8,4.8-2.5c1.1-1.7,1.6-4.2,1.6-7.6c0-3.6-0.5-6.3-1.5-8.1
				c-1-1.8-2.6-2.7-4.6-2.7c-1.4,0-2.7,0.3-3.9,1c-1.2,0.7-2.3,1.6-3.3,3V889.5z"/>
			<path class="st2" d="M1548,895.2c-1.5,0-3-0.3-4.3-0.9c-1.2-0.5-2.3-1.3-3.2-2.3l-0.5,2.9h-4.6v-31.4c0-2.8-0.3-3.3-0.4-3.5
				c-0.1-0.1-0.6-0.5-3-0.6l-0.9,0V857h9.8v15.2c1-1.2,2.1-2.2,3.2-2.9c1.5-0.9,3.3-1.4,5.2-1.4c3,0,5.4,1.2,7.2,3.6
				c1.7,2.3,2.6,5.5,2.6,9.4c0,4.3-1,7.8-3,10.4C1554,893.8,1551.3,895.2,1548,895.2 M1539.7,890.8h0.9l0.1,0.1
				c1,1.1,2.1,1.9,3.3,2.5c1.2,0.5,2.5,0.8,3.9,0.8c3.1,0,5.5-1.2,7.4-3.6c1.9-2.5,2.8-5.8,2.8-9.9c0-3.7-0.8-6.6-2.4-8.8
				c-1.6-2.1-3.7-3.2-6.4-3.2c-1.7,0-3.3,0.4-4.7,1.3c-1.4,0.8-2.7,2.1-3.8,3.8l-0.5,0.7c1-1.2,2.1-2.1,3.2-2.7c1.3-0.7,2.6-1,4.1-1
				c2.2,0,3.9,1,5,2.9c1.1,1.9,1.6,4.6,1.6,8.3c0,3.5-0.6,6.1-1.7,7.9c-1.1,1.8-2.9,2.8-5.2,2.8c-1.2,0-2.4-0.2-3.6-0.7
				c-1.2-0.5-2.4-1.2-3.7-2.1l-0.2-0.1v-31.8h-8l0,0.5c2.7,0.2,3.4,0.6,3.7,1c0.3,0.3,0.6,1.1,0.6,4.1V894h2.9L1539.7,890.8z
				 M1540.8,889.2c1.1,0.8,2.2,1.4,3.3,1.8c1.1,0.4,2.2,0.6,3.3,0.6c2,0,3.4-0.8,4.4-2.3c1-1.6,1.5-4.1,1.5-7.4
				c0-3.5-0.5-6.1-1.5-7.8c-0.9-1.7-2.3-2.5-4.2-2.5c-1.3,0-2.5,0.3-3.6,0.9c-1.1,0.6-2.1,1.5-3.1,2.7V889.2z"/>
			<path class="st1" d="M1586.4,893c-2.9,1.1-5.6,1.7-8,1.7c-3.7,0-6.7-1.2-9-3.7c-2.3-2.5-3.5-5.7-3.5-9.7c0-3.8,1-6.9,3.1-9.3
				c2.1-2.4,4.7-3.6,8-3.6c3,0,5.3,1,6.9,3c1.6,2,2.4,4.9,2.4,8.7v0.4h-15.4c0,3.9,0.7,6.9,2.1,8.9c1.4,2,3.4,3,6.1,3
				c2.8,0,5.3-0.6,7.3-1.7V893z M1571,879h10.5l0-1c0-2.9-0.4-5-1.1-6.3c-0.8-1.3-2-2-3.7-2c-1.7,0-3.1,0.8-4.1,2.5
				C1571.5,873.9,1571,876.2,1571,879"/>
			<path class="st2" d="M1578.4,895.2c-3.8,0-7-1.3-9.4-3.9c-2.4-2.6-3.6-6-3.6-10c0-3.9,1.1-7.1,3.2-9.6c2.2-2.5,5-3.8,8.3-3.8
				c3.1,0,5.6,1.1,7.3,3.2c1.7,2.1,2.5,5.1,2.5,9v0.9h-15.4c0,3.6,0.7,6.4,2,8.2c1.3,1.9,3.2,2.8,5.7,2.8c2.7,0,5.1-0.6,7-1.7
				l0.7-0.4v3.5l-0.3,0.1C1583.6,894.6,1580.8,895.2,1578.4,895.2 M1577,868.8c-3.1,0-5.7,1.2-7.7,3.5c-2,2.3-3,5.4-3,9
				c0,3.9,1.1,7,3.4,9.4c3.6,3.9,9.2,4.7,16.2,2v-1.3c-1.9,1-4.2,1.4-6.8,1.4c-2.8,0-5-1.1-6.5-3.2c-1.4-2.1-2.1-5.2-2.1-9.2V880
				h15.4c0-3.6-0.8-6.4-2.3-8.4C1582,869.7,1579.9,868.8,1577,868.8 M1581.9,879.5h-11.4V879c0-2.9,0.5-5.3,1.6-7
				c1.1-1.8,2.6-2.8,4.5-2.8c1.9,0,3.3,0.7,4.1,2.2c0.8,1.4,1.2,3.5,1.2,6.6L1581.9,879.5z M1571.5,878.6h9.5l0-0.6
				c0-2.8-0.4-4.9-1.1-6.1c-0.7-1.2-1.8-1.7-3.3-1.7c-1.6,0-2.8,0.8-3.7,2.3C1572,874,1571.5,876.1,1571.5,878.6"/>
			<path class="st1" d="M1607.9,894c-1.2,0.5-2.3,0.7-3.3,0.7c-2.7,0-4.6-0.7-5.9-2c-1.2-1.3-1.8-3.5-1.8-6.4v-15.5h-3.7v-1.9h3.7
				v-4.6l4.6-1.1v5.7h7v1.9h-7v16.1c0,2.2,0.3,3.7,0.9,4.6c0.6,0.9,1.6,1.4,2.9,1.4c0.7,0,1.6-0.2,2.7-0.7V894z"/>
			<path class="st2" d="M1604.6,895.2c-2.8,0-4.9-0.7-6.2-2.2c-1.3-1.4-2-3.7-2-6.8v-15h-3.7v-2.8h3.7v-4.5l5.5-1.4v5.9h7v2.8h-7
				v15.6c0,2.1,0.3,3.6,0.8,4.4c0.5,0.8,1.3,1.2,2.5,1.2c0.7,0,1.5-0.2,2.5-0.7l0.7-0.3v2.9l-0.3,0.1
				C1606.9,894.9,1605.7,895.2,1604.6,895.2 M1593.6,870.3h3.7v16c0,2.8,0.6,4.9,1.7,6.1c1.1,1.2,3,1.9,5.5,1.9
				c0.9,0,1.9-0.2,2.9-0.6v-0.8c-0.8,0.3-1.6,0.5-2.2,0.5c-1.5,0-2.7-0.5-3.3-1.6c-0.6-1-0.9-2.6-0.9-4.9v-16.6h7v-1h-7v-5.6
				l-3.7,0.9v4.7h-3.7V870.3z"/>
			<path class="st1" d="M1622,894.4l-6.2-19.5c-0.6-2-1.1-3.2-1.5-3.7c-0.4-0.5-0.9-0.8-1.6-0.8l-0.4,0v-1.4h11.3v1.4h-0.5
				c-2.4,0-3.6,0.4-3.6,1.1c0,0.7,0.3,1.9,0.8,3.5l3.9,12.6l7.3-18.5h1.4l7.5,19l4.6-13.1c0.6-1.8,1-3,1-3.5c0-0.7-1.2-1.1-3.6-1.1
				h-0.5v-1.4h8.3v1.4l-0.5,0c-1.1,0.1-1.8,0.9-2.3,2.5c-0.1,0.4-0.4,1.1-0.7,2.1l-6.9,19.5h-1.3l-7.7-19.2l-7.3,19.2H1622z"/>
			<path class="st2" d="M1640,894.9h-1.9l-7.3-18.4l-7,18.4h-2.1l-6.3-19.8c-0.8-2.4-1.2-3.3-1.4-3.6c-0.3-0.4-0.7-0.6-1.3-0.7
				l-0.9,0v-2.3h12.3v2.4h-0.9c-3.1,0-3.1,0.6-3.1,0.6c0,0.6,0.3,1.8,0.8,3.4l3.5,11.4l7-17.6h2l7.1,18.1l4.2-11.9
				c0.8-2.3,0.9-3.1,0.9-3.3c0,0,0-0.6-3.1-0.6h-1v-2.4h9.2v2.3l-1,0c-0.9,0.1-1.5,0.8-1.9,2.1c-0.1,0.5-0.4,1.2-0.7,2.1L1640,894.9
				z M1638.7,894h0.6l6.8-19.2c0.3-0.9,0.6-1.6,0.7-2.1c0.5-1.8,1.5-2.7,2.7-2.8l0.1,0v-0.5h-7.3l0,0.5c1.8,0,4.1,0.2,4.1,1.6
				c0,0.3-0.1,1.1-1,3.6l-5,14.3l-7.8-19.8h-0.8l-7.7,19.4l-4.3-13.9c-0.5-1.7-0.8-2.9-0.8-3.6c0-1.4,2.1-1.5,4-1.5h0v-0.5h-10.4
				l0,0.5c0.9,0.1,1.5,0.4,2,1.1c0.4,0.6,0.9,1.8,1.5,3.8l6.1,19.2h0.8l7.7-20L1638.7,894z"/>
			<path class="st1" d="M1675.3,893c-2.9,1.1-5.6,1.7-8,1.7c-3.7,0-6.7-1.2-9-3.7c-2.3-2.5-3.5-5.7-3.5-9.7c0-3.8,1-6.9,3.1-9.3
				c2.1-2.4,4.7-3.6,8-3.6c3,0,5.3,1,6.9,3c1.6,2,2.4,4.9,2.4,8.7v0.4h-15.4c0,3.9,0.7,6.9,2.1,8.9c1.4,2,3.4,3,6.1,3
				c2.8,0,5.3-0.6,7.3-1.7V893z M1659.9,879h10.5l0-1c0-2.9-0.4-5-1.1-6.3c-0.8-1.3-2-2-3.7-2c-1.7,0-3.1,0.8-4.1,2.5
				C1660.5,873.9,1659.9,876.2,1659.9,879"/>
			<path class="st2" d="M1667.3,895.2c-3.8,0-7-1.3-9.4-3.9c-2.4-2.6-3.6-6-3.6-10c0-3.9,1.1-7.1,3.2-9.6c2.2-2.5,5-3.8,8.3-3.8
				c3.1,0,5.6,1.1,7.3,3.2c1.7,2.1,2.5,5.1,2.5,9v0.9h-15.4c0,3.6,0.7,6.4,2,8.2c1.3,1.9,3.2,2.8,5.7,2.8c2.7,0,5.1-0.6,7-1.7
				l0.7-0.4v3.5l-0.3,0.1C1672.5,894.6,1669.7,895.2,1667.3,895.2 M1665.9,868.8c-3.1,0-5.7,1.2-7.7,3.5c-2,2.3-3,5.4-3,9
				c0,3.9,1.1,7,3.4,9.4c3.6,3.9,9.2,4.7,16.2,2v-1.3c-1.9,1-4.2,1.4-6.8,1.4c-2.8,0-5-1.1-6.5-3.2c-1.4-2.1-2.1-5.2-2.1-9.2V880
				h15.4c0-3.6-0.8-6.4-2.3-8.4C1670.9,869.7,1668.8,868.8,1665.9,868.8 M1670.9,879.5h-11.4V879c0-2.9,0.5-5.3,1.6-7
				c1.1-1.8,2.6-2.8,4.5-2.8c1.9,0,3.3,0.7,4.1,2.2c0.8,1.4,1.2,3.5,1.2,6.6L1670.9,879.5z M1660.4,878.6h9.5l0-0.6
				c0-2.8-0.4-4.9-1.1-6.1c-0.7-1.2-1.8-1.7-3.3-1.7c-1.6,0-2.8,0.8-3.7,2.3C1661,874,1660.5,876.1,1660.4,878.6"/>
			<path class="st1" d="M1702.9,893c-2.9,1.1-5.6,1.7-8,1.7c-3.7,0-6.7-1.2-9-3.7c-2.3-2.5-3.5-5.7-3.5-9.7c0-3.8,1-6.9,3.1-9.3
				c2.1-2.4,4.7-3.6,8-3.6c3,0,5.3,1,6.9,3c1.6,2,2.4,4.9,2.4,8.7v0.4h-15.4c0,3.9,0.7,6.9,2.1,8.9c1.4,2,3.4,3,6.1,3
				c2.8,0,5.3-0.6,7.3-1.7V893z M1687.6,879h10.5l0-1c0-2.9-0.4-5-1.1-6.3c-0.8-1.3-2-2-3.7-2c-1.7,0-3.1,0.8-4.1,2.5
				C1688.1,873.9,1687.6,876.2,1687.6,879"/>
			<path class="st2" d="M1694.9,895.2c-3.8,0-7-1.3-9.4-3.9c-2.4-2.6-3.6-6-3.6-10c0-3.9,1.1-7.1,3.2-9.6c2.2-2.5,5-3.8,8.4-3.8
				c3.1,0,5.6,1.1,7.3,3.2c1.7,2.1,2.5,5.1,2.5,9v0.9h-15.4c0,3.6,0.7,6.4,2,8.2c1.3,1.9,3.2,2.8,5.7,2.8c2.7,0,5.1-0.6,7-1.7
				l0.7-0.4v3.5l-0.3,0.1C1700.1,894.6,1697.4,895.2,1694.9,895.2 M1693.5,868.8c-3.1,0-5.7,1.2-7.7,3.5c-2,2.3-3,5.4-3,9
				c0,3.9,1.1,7,3.4,9.4c3.6,3.9,9.2,4.7,16.2,2v-1.3c-1.9,1-4.2,1.4-6.8,1.4c-2.8,0-5-1.1-6.5-3.2c-1.4-2.1-2.1-5.2-2.1-9.2V880
				h15.4c0-3.6-0.8-6.4-2.3-8.4C1698.6,869.7,1696.4,868.8,1693.5,868.8 M1698.5,879.5h-11.4V879c0-2.9,0.5-5.3,1.6-7
				c1.1-1.8,2.6-2.8,4.5-2.8c1.9,0,3.3,0.7,4.1,2.2c0.8,1.4,1.2,3.5,1.2,6.6L1698.5,879.5z M1688,878.6h9.5l0-0.6
				c0-2.8-0.4-4.9-1.1-6.1c-0.7-1.2-1.8-1.7-3.3-1.7c-1.6,0-2.8,0.8-3.7,2.3C1688.6,874,1688.1,876.1,1688,878.6"/>
			<path class="st1" d="M1717.5,873.6c1.2-1.8,2.5-3.1,4-4c1.5-0.9,3.2-1.3,5.1-1.3c2.2,0,3.9,0.7,5.1,2.1c1.2,1.4,1.8,3.4,1.8,5.9
				v11.8c0.1,2.3,0.3,3.6,0.5,3.9c0.2,0.3,1.4,0.5,3.4,0.7l0.4,0v1.4h-13.2v-1.4l0.4,0c2-0.1,3.1-0.4,3.3-0.7
				c0.3-0.3,0.4-1.6,0.5-3.9v-11.1c0-2.2-0.3-3.7-0.8-4.5c-0.6-0.8-1.6-1.3-3-1.3c-1,0-2.2,0.3-3.4,1c-1.3,0.6-2.7,1.6-4.2,2.9v13
				c0,2.1,0.2,3.4,0.5,3.8c0.3,0.4,1.5,0.7,3.4,0.8l0.4,0v1.4h-13.2v-1.4l0.4,0c1.9-0.1,3-0.4,3.3-0.8c0.4-0.4,0.5-1.7,0.5-3.8
				v-13.2c0-2.1-0.2-3.3-0.5-3.7c-0.3-0.4-1.5-0.7-3.3-0.8l-0.4,0v-1.4h8.9V873.6z"/>
			<path class="st2" d="M1738.3,894.6h-14.1v-2.3l0.9,0c2.5-0.2,3-0.4,3-0.5c0-0.1,0.3-0.6,0.4-3.6v-11c0-2.1-0.3-3.5-0.8-4.3
				c-0.5-0.7-1.3-1.1-2.7-1.1c-0.9,0-2,0.3-3.2,0.9c-1.2,0.6-2.5,1.5-3.9,2.7v12.8c0,2.8,0.3,3.4,0.4,3.5c0.1,0.1,0.6,0.5,3,0.6
				l0.9,0v2.3h-14.1v-2.3l0.9,0c2.4-0.2,2.9-0.5,3-0.6c0.1-0.1,0.4-0.7,0.4-3.5v-13.2c0-2.8-0.3-3.3-0.4-3.4c-0.1-0.1-0.6-0.5-3-0.7
				l-0.9,0v-2.3h9.8v3.8c1-1.3,2.1-2.2,3.3-3c1.6-0.9,3.4-1.4,5.3-1.4c2.3,0,4.1,0.8,5.5,2.3c1.3,1.5,1.9,3.6,1.9,6.2v11.8
				c0.1,3,0.4,3.6,0.4,3.6c0,0,0.5,0.3,3,0.5l0.8,0V894.6z M1725.1,893.7h12.3v-0.5c-2.8-0.2-3.4-0.5-3.7-0.8
				c-0.2-0.3-0.5-1-0.6-4.2v-11.8c0-2.4-0.6-4.3-1.7-5.6c-1.2-1.3-2.7-2-4.8-2c-1.8,0-3.4,0.4-4.9,1.3c-1.4,0.8-2.7,2.1-3.9,3.8
				l-0.5,0.8c1.5-1.3,2.8-2.2,4.1-2.8c1.3-0.7,2.6-1,3.7-1c1.6,0,2.8,0.5,3.4,1.5c0.6,0.9,0.9,2.5,0.9,4.8v11.1
				c-0.2,3.2-0.4,3.9-0.6,4.2c-0.3,0.3-0.9,0.6-3.7,0.8V893.7z M1709,893.7h12.3l0-0.5c-2.7-0.2-3.4-0.6-3.7-1
				c-0.3-0.3-0.6-1.1-0.6-4.1v-18.8h-8l0,0.5c2.7,0.2,3.4,0.6,3.7,1c0.3,0.3,0.6,1.1,0.6,4.1v13.2c0,2.9-0.3,3.7-0.6,4.1
				c-0.3,0.4-1,0.8-3.7,1h0V893.7z"/>
			<path class="st3" d="M1185.8,935.6v-0.9l9.9-13.9h-5.1c-1.4,0-2.2,0.1-2.5,0.2c-0.2,0.1-0.4,0.4-0.4,1c0,0.4,0,0.8,0,1l0,0.3
				h-1.5v-3.4h12.8v0.9l-9.8,13.7h5.7c1.5,0,2.4-0.1,2.6-0.2c0.2-0.2,0.3-0.8,0.3-1.9l0-0.3h1.5v3.6H1185.8z"/>
			<path class="st2" d="M1199.7,935.8h-14.1v-1.2l9.7-13.6h-4.7c-1.8,0-2.3,0.1-2.4,0.1c-0.1,0-0.2,0.1-0.2,0.8c0,0.4,0,0.8,0,1.1
				l0,0.5h-2v-3.9h13.3v1.2l-9.6,13.4h5.3c2,0,2.4-0.2,2.5-0.2c0,0,0.2-0.3,0.2-1.8l0-0.6h2V935.8z M1186.1,935.3h13.2v-3.1h-1.1
				l0,0.1c0,1.6-0.2,2-0.4,2.1c-0.2,0.1-0.7,0.3-2.7,0.3h-6.2l10-14v-0.6h-12.4v3h1.1l0-0.1c0-0.3,0-0.6,0-1c0-0.7,0.2-1.1,0.5-1.3
				c0.2-0.1,0.6-0.2,2.6-0.2h5.6l-10.1,14.2V935.3z"/>
			<path class="st3" d="M1211.9,935.9c-2.3,0-4.1-0.7-5.5-2.2c-1.3-1.5-2-3.5-2-6c0-2.5,0.7-4.5,2-6c1.3-1.5,3.2-2.2,5.5-2.2
				c2.3,0,4.1,0.7,5.5,2.2c1.3,1.5,2,3.5,2,6c0,2.5-0.7,4.5-2,6C1216,935.2,1214.2,935.9,1211.9,935.9 M1211.8,935
				c1.3,0,2.3-0.7,3.2-2.1c0.9-1.4,1.3-3.1,1.3-5.2c0-2.1-0.4-3.8-1.3-5.2c-0.8-1.4-1.9-2.1-3.2-2.1c-1.3,0-2.3,0.7-3.2,2.1
				c-0.9,1.4-1.3,3.1-1.3,5.2c0,2.1,0.4,3.9,1.3,5.2C1209.5,934.4,1210.6,935,1211.8,935"/>
			<path class="st2" d="M1211.9,936.2c-2.4,0-4.3-0.8-5.6-2.3c-1.4-1.5-2.1-3.6-2.1-6.2c0-2.6,0.7-4.7,2.1-6.2
				c1.4-1.5,3.3-2.3,5.6-2.3c2.4,0,4.3,0.8,5.6,2.3c1.4,1.5,2.1,3.6,2.1,6.1c0,2.6-0.7,4.7-2.1,6.2
				C1216.1,935.4,1214.2,936.2,1211.9,936.2 M1211.9,919.8c-2.2,0-4,0.7-5.3,2.1c-1.3,1.4-1.9,3.4-1.9,5.8s0.7,4.4,1.9,5.8
				c1.3,1.4,3.1,2.1,5.3,2.1c2.2,0,4-0.7,5.3-2.1c1.3-1.4,2-3.4,2-5.8c0-2.5-0.7-4.4-1.9-5.8
				C1215.9,920.5,1214.1,919.8,1211.9,919.8 M1211.8,935.3c-1.4,0-2.5-0.7-3.4-2.2c-0.9-1.4-1.3-3.2-1.3-5.4c0-2.1,0.4-3.9,1.3-5.4
				c0.9-1.5,2-2.2,3.4-2.2c1.4,0,2.5,0.7,3.4,2.2c0.9,1.4,1.3,3.2,1.3,5.4c0,2.1-0.4,3.9-1.3,5.4
				C1214.4,934.5,1213.2,935.3,1211.8,935.3 M1211.8,920.6c-1.2,0-2.2,0.6-3,2c-0.8,1.4-1.2,3.1-1.2,5.1c0,2.1,0.4,3.8,1.2,5.1
				c0.8,1.3,1.8,2,3,2c1.2,0,2.2-0.6,3-2c0.8-1.3,1.2-3.1,1.2-5.1c0-2-0.4-3.8-1.2-5.1C1214,921.3,1213.1,920.6,1211.8,920.6"/>
			<path class="st3" d="M1236.4,934.8c-1.8,0.7-3.5,1.1-5,1.1c-2.3,0-4.2-0.8-5.6-2.3s-2.2-3.6-2.2-6c0-2.4,0.6-4.3,1.9-5.8
				c1.3-1.5,2.9-2.3,5-2.3c1.9,0,3.3,0.6,4.3,1.9c1,1.3,1.5,3.1,1.5,5.4v0.3h-9.6c0,2.4,0.4,4.3,1.3,5.5c0.8,1.2,2.1,1.9,3.8,1.9
				c1.8,0,3.3-0.4,4.5-1.1V934.8z M1226.9,926.2h6.5l0-0.6c0-1.8-0.2-3.1-0.7-3.9c-0.5-0.8-1.2-1.2-2.3-1.2c-1.1,0-1.9,0.5-2.5,1.6
				C1227.2,923,1226.9,924.4,1226.9,926.2"/>
			<path class="st2" d="M1231.4,936.2c-2.4,0-4.3-0.8-5.8-2.4c-1.5-1.6-2.2-3.7-2.2-6.2c0-2.4,0.7-4.4,2-5.9
				c1.3-1.6,3.1-2.3,5.1-2.3c1.9,0,3.4,0.7,4.5,2c1,1.3,1.6,3.2,1.6,5.5v0.5h-9.6c0,2.3,0.4,4,1.2,5.2c0.8,1.2,2,1.8,3.6,1.8
				c1.7,0,3.2-0.4,4.4-1.1l0.3-0.2v2l-0.1,0.1C1234.6,935.8,1232.9,936.2,1231.4,936.2 M1230.6,919.8c-1.9,0-3.5,0.7-4.8,2.2
				c-1.3,1.5-1.9,3.3-1.9,5.6c0,2.4,0.7,4.4,2.1,5.9c2.3,2.4,5.8,3,10.2,1.3v-0.9c-1.2,0.6-2.6,0.9-4.3,0.9c-1.7,0-3.1-0.7-4-2
				c-0.9-1.3-1.3-3.2-1.3-5.7v-0.2h9.6v0c0-2.3-0.5-4-1.5-5.2C1233.7,920.4,1232.4,919.8,1230.6,919.8 M1233.6,926.4h-7v-0.2
				c0-1.8,0.3-3.3,1-4.3c0.7-1.1,1.6-1.7,2.7-1.7c1.1,0,2,0.4,2.5,1.3c0.5,0.8,0.7,2.2,0.7,4.1L1233.6,926.4z M1227.1,926h6l0-0.4
				c0-1.8-0.2-3.1-0.7-3.8c-0.4-0.7-1.1-1.1-2.1-1.1c-1,0-1.8,0.5-2.4,1.5C1227.4,923.1,1227.1,924.4,1227.1,926"/>
			<path class="st3" d="M1241.8,941.3l5.1-5.7l-4.9-11.9c-0.5-1.3-0.9-2.1-1.2-2.4c-0.2-0.3-0.6-0.5-1.2-0.5l-0.3,0v-0.9h7.2v0.9
				h-0.3c-1.3,0-2,0.2-2,0.5c0,0.2,0.3,1,0.8,2.4l3.5,8.4l3.8-8.5c0.5-1.2,0.8-2,0.8-2.2c0-0.4-0.6-0.6-1.7-0.6h-0.4v-0.9h4.6v0.9
				l-0.3,0c-0.6,0-1.1,0.6-1.5,1.6c-0.1,0.2-0.3,0.6-0.5,1.2l-8,17.6H1241.8z"/>
			<path class="st2" d="M1245.5,941.5h-4.3l5.4-6l-4.9-11.7c-0.5-1.2-0.9-2-1.1-2.3c-0.2-0.3-0.5-0.4-1-0.4l-0.5,0v-1.3h7.6v1.4
				h-0.5c-1.7,0-1.7,0.3-1.7,0.3c0,0.1,0.1,0.4,0.8,2.3l3.3,7.9l3.5-8c0.7-1.6,0.8-2,0.8-2.1c0-0.2-0.4-0.4-1.5-0.4h-0.6v-1.4h5.1
				v1.3l-0.5,0c-0.5,0-0.9,0.5-1.3,1.5c-0.1,0.2-0.3,0.6-0.6,1.2L1245.5,941.5z M1242.3,941h2.9l7.9-17.5c0.3-0.6,0.5-1.1,0.5-1.2
				c0.5-1.1,1-1.7,1.7-1.8l0.1,0v-0.4h-4.2v0.4h0.2c0.5,0,2,0,2,0.9c0,0.2-0.1,0.6-0.8,2.3l-4,8.9l-3.7-8.9
				c-0.8-2.2-0.8-2.4-0.8-2.5c0-0.7,1.2-0.8,2.2-0.8h0.1v-0.4h-6.7v0.4l0.1,0c0.6,0,1,0.2,1.3,0.6c0.3,0.3,0.7,1.1,1.2,2.4l5,12
				l-0.1,0.1L1242.3,941z"/>
			<path class="st3" d="M1273.7,924.2v7.7c0,1.3,0.1,2.1,0.3,2.3c0.2,0.3,0.9,0.4,2.1,0.5l0.6,0v0.9h-8.5v-0.9l0.3,0
				c1.2-0.1,1.9-0.2,2.1-0.5c0.2-0.3,0.3-1,0.3-2.3v-8.2c0-1.3-0.1-2.1-0.3-2.3c-0.2-0.3-0.9-0.4-2.1-0.5l-0.3,0v-0.9h5.5v2.9
				c1.3-2.2,3-3.3,5.1-3.3c0.3,0,0.6,0.1,1,0.2v4.3h-1.6l0-0.3c-0.1-0.9-0.2-1.4-0.3-1.6c-0.1-0.2-0.3-0.2-0.7-0.2
				C1275.8,921.9,1274.6,922.6,1273.7,924.2"/>
			<path class="st2" d="M1276.9,935.8h-9v-1.3l0.5,0c1.5-0.1,1.8-0.3,1.9-0.4c0.1-0.1,0.3-0.5,0.3-2.2v-8.2c0-1.7-0.2-2.1-0.3-2.2
				c-0.1-0.1-0.4-0.3-1.9-0.4l-0.5,0v-1.3h6v2.4c1.3-1.8,2.9-2.8,4.9-2.8c0.3,0,0.7,0.1,1,0.2l0.2,0.1v4.7h-2.1l0-0.5
				c-0.1-1.2-0.2-1.4-0.3-1.5c0-0.1-0.2-0.1-0.4-0.1c-1.3,0-2.4,0.7-3.3,2.1v7.6c0,1.7,0.2,2.1,0.3,2.2c0.1,0.1,0.4,0.3,1.9,0.4
				l0.8,0V935.8z M1268.4,935.3h8.1v-0.4l-0.4,0c-1.6-0.1-2.1-0.4-2.2-0.6c-0.2-0.2-0.4-0.7-0.4-2.5v-7.7l0-0.1
				c1-1.6,2.2-2.4,3.7-2.4c0.4,0,0.7,0.1,0.9,0.4c0.1,0.1,0.2,0.4,0.3,1.7l0,0.1h1.2v-3.9c-0.3-0.1-0.5-0.1-0.7-0.1
				c-2,0-3.6,1-4.9,3.2l-0.4,0.7v-3.6h-5.1v0.4l0.1,0c1.7,0.1,2.1,0.4,2.2,0.6c0.2,0.2,0.4,0.7,0.4,2.5v8.2c0,1.8-0.2,2.3-0.4,2.5
				c-0.2,0.2-0.6,0.5-2.2,0.6l-0.1,0V935.3z"/>
			<path class="st3" d="M1284.5,941.3l5.1-5.7l-4.9-11.9c-0.5-1.3-0.9-2.1-1.2-2.4c-0.2-0.3-0.6-0.5-1.2-0.5l-0.3,0v-0.9h7.2v0.9
				h-0.3c-1.3,0-2,0.2-2,0.5c0,0.2,0.3,1,0.8,2.4l3.5,8.4l3.8-8.5c0.5-1.2,0.8-2,0.8-2.2c0-0.4-0.6-0.6-1.7-0.6h-0.4v-0.9h4.6v0.9
				l-0.3,0c-0.6,0-1.1,0.6-1.5,1.6c-0.1,0.2-0.3,0.6-0.5,1.2l-8,17.6H1284.5z"/>
			<path class="st2" d="M1288.2,941.5h-4.2l5.4-6l-4.9-11.7c-0.5-1.2-0.9-2-1.1-2.3c-0.2-0.3-0.5-0.4-1-0.4l-0.5,0v-1.3h7.6v1.4
				h-0.5c-1.7,0-1.7,0.3-1.7,0.3c0,0.1,0.1,0.4,0.8,2.3l3.3,7.9l3.5-8c0.7-1.6,0.8-2,0.8-2.1c0-0.2-0.4-0.4-1.5-0.4h-0.6v-1.4h5.1
				v1.3l-0.5,0c-0.5,0-0.9,0.5-1.3,1.5c-0.1,0.2-0.3,0.6-0.6,1.2L1288.2,941.5z M1285,941h2.9l7.9-17.5c0.3-0.6,0.5-1.1,0.5-1.2
				c0.5-1.1,1-1.7,1.7-1.8l0.1,0v-0.4h-4.2v0.4h0.2c0.5,0,2,0,2,0.9c0,0.2-0.1,0.6-0.8,2.3l-4,8.9l-3.7-8.9
				c-0.8-2.2-0.8-2.4-0.8-2.5c0-0.7,1.2-0.8,2.2-0.8h0.1v-0.4h-6.7v0.4l0.1,0c0.6,0,1,0.2,1.3,0.6c0.3,0.3,0.7,1.1,1.2,2.4l5,12
				l-0.1,0.1L1285,941z"/>
			<path class="st3" d="M1312.5,935.6v-2.9c-0.7,1.1-1.6,1.9-2.5,2.5c-0.9,0.6-2,0.8-3.2,0.8c-1.3,0-2.4-0.4-3.2-1.3
				c-0.8-0.9-1.2-2.1-1.2-3.7v-7.3c0-1.3-0.1-2.1-0.3-2.3c-0.2-0.2-0.9-0.4-2.1-0.5l-0.3,0v-0.9h5.5v10.6c0,1.2,0.2,2.1,0.6,2.7
				c0.4,0.6,1.1,0.9,1.9,0.9c0.8,0,1.6-0.2,2.3-0.6c0.8-0.4,1.5-1,2.2-1.8v-8c-0.1-1.4-0.2-2.2-0.3-2.4c-0.2-0.2-0.8-0.3-2.1-0.4
				l-0.3,0v-0.9h5.5v11.9c0.1,1.4,0.2,2.2,0.3,2.4c0.2,0.2,0.8,0.3,2.1,0.4l0.3,0v0.9H1312.5z"/>
			<path class="st2" d="M1306.9,936.1c-1.4,0-2.5-0.5-3.4-1.4c-0.8-0.9-1.2-2.2-1.2-3.8v-7.3c0-1.7-0.2-2.1-0.3-2.2
				c-0.1-0.1-0.4-0.3-1.9-0.4l-0.5,0v-1.3h6v10.8c0,1.1,0.2,2,0.6,2.6c0.4,0.5,1,0.8,1.7,0.8c0.7,0,1.5-0.2,2.2-0.6
				c0.7-0.4,1.4-1,2.1-1.7v-7.9c-0.1-1.9-0.2-2.2-0.3-2.3c0,0-0.3-0.2-1.9-0.3l-0.5,0v-1.3h6v12.2c0.1,1.9,0.2,2.2,0.3,2.3
				c0,0,0.3,0.2,1.9,0.3l0.5,0v1.3h-6v-2.5c-0.6,0.8-1.4,1.5-2.1,1.9C1309.2,935.9,1308.1,936.1,1306.9,936.1 M1300.1,920.6
				L1300.1,920.6c1.7,0.1,2.1,0.4,2.3,0.6c0.2,0.2,0.4,0.7,0.4,2.5v7.3c0,1.5,0.4,2.7,1.1,3.5c0.7,0.8,1.7,1.3,3,1.3
				c1.1,0,2.1-0.3,3-0.8c0.9-0.5,1.7-1.3,2.4-2.4l0.4-0.6v3.5h5.1v-0.4h-0.1c-1.7-0.1-2.1-0.3-2.2-0.5c-0.1-0.2-0.3-0.6-0.4-2.6
				v-11.7h-5.1v0.4h0c1.7,0.1,2.1,0.3,2.2,0.5c0.1,0.2,0.3,0.6,0.4,2.6v8.1l-0.1,0.1c-0.7,0.8-1.5,1.4-2.3,1.9
				c-0.8,0.4-1.6,0.6-2.4,0.6c-0.9,0-1.6-0.3-2.1-1c-0.5-0.6-0.7-1.6-0.7-2.8v-10.4h-5.1V920.6z"/>
		</g>
		<g class="st0">
			<text transform="matrix(1 0 0 1 1502.5244 1374.0977)"><tspan x="0" y="0" class="st4 st5 st6">c</tspan><tspan x="13.6" y="0" class="st4 st5 st6">ov</tspan><tspan x="44" y="0" class="st4 st5 st6">er</tspan><tspan x="70" y="0" class="st4 st5 st6"> </tspan><tspan x="78.4" y="0" class="st4 st5 st6">a</tspan><tspan x="92.8" y="0" class="st4 st5 st6">n</tspan><tspan x="109.5" y="0" class="st4 st5 st6">d</tspan><tspan x="126.4" y="0" class="st4 st5 st6"> bo</tspan><tspan x="166.9" y="0" class="st4 st5 st6">ok</tspan><tspan x="198.7" y="0" class="st4 st5 st6"> </tspan><tspan x="207.1" y="0" class="st4 st5 st6">des</tspan><tspan x="251.6" y="0" class="st4 st5 st6">i</tspan><tspan x="260.1" y="0" class="st4 st5 st6">g</tspan><tspan x="275.3" y="0" class="st4 st5 st6">n </tspan></text>
		</g>
		<g class="st0">
			<defs>
				<rect id="SVGID_5_" x="1119.3" y="0" width="1057.8" height="1501"/>
			</defs>
			<clipPath id="SVGID_6_">
				<use xlink:href="#SVGID_5_"  style="overflow:visible;"/>
			</clipPath>
			<path class="st7" d="M1514.1,1372.6c-0.9,0.4-2,0.6-3.2,0.6c-1.4,0-2.5-0.5-3.4-1.6c-0.8-1.1-1.2-2.5-1.2-4.4
				c0-1.8,0.3-3.3,1-4.3c0.7-1.1,1.6-1.6,2.8-1.6c1.6,0,2.4,0.9,2.4,2.8l0,0.2h1.5v-3.2c-1.6-0.4-2.9-0.6-3.9-0.6
				c-1.9,0-3.5,0.6-4.7,1.9c-1.2,1.3-1.8,2.9-1.8,5c0,2.1,0.6,3.8,1.8,5.1s2.8,2,4.8,2c1.2,0,2.5-0.3,3.8-0.8V1372.6z"/>
			<path class="st7" d="M1521,1371.9c-0.7-1.2-1.1-2.7-1.1-4.5c0-1.8,0.4-3.3,1.1-4.5c0.7-1.2,1.6-1.8,2.7-1.8c1.1,0,2,0.6,2.7,1.8
				c0.7,1.2,1.1,2.7,1.1,4.5c0,1.8-0.4,3.3-1.1,4.5c-0.7,1.2-1.6,1.8-2.7,1.8S1521.7,1373.1,1521,1371.9z M1528.4,1372.5
				c1.1-1.3,1.7-3,1.7-5.1c0-2.2-0.6-3.9-1.7-5.1c-1.1-1.2-2.7-1.9-4.7-1.9c-2,0-3.5,0.6-4.7,1.9c-1.1,1.2-1.7,3-1.7,5.1
				c0,2.2,0.6,3.9,1.7,5.1c1.1,1.3,2.7,1.9,4.7,1.9C1525.7,1374.4,1527.2,1373.8,1528.4,1372.5z"/>
			<path class="st7" d="M1539.1,1374.2l4.6-10.2c0.6-1.3,0.9-2.1,1.1-2.2c0.2-0.2,0.4-0.3,0.7-0.3l0.3,0v-0.8h-4v0.8h0.3
				c1,0,1.5,0.2,1.5,0.5c0,0.2-0.2,0.9-0.7,2l-3.1,7.1l-3-7.1c-0.5-1.2-0.8-1.9-0.8-2c0-0.4,0.6-0.5,1.6-0.5h0.2v-0.8h-5.8v0.8
				l0.2,0c0.3,0,0.6,0.2,0.8,0.5c0.2,0.3,0.5,1,1,2l4.3,10.2H1539.1z"/>
			<path class="st7" d="M1551.3,1362.5c0.5-0.9,1.3-1.3,2.2-1.3s1.6,0.3,2,1c0.4,0.7,0.6,1.8,0.6,3.4l0,0.5h-5.5
				C1550.5,1364.6,1550.8,1363.4,1551.3,1362.5z M1558.6,1372.3c-1.1,0.6-2.3,0.9-3.8,0.9c-1.4,0-2.5-0.5-3.2-1.6
				c-0.7-1.1-1.1-2.6-1.1-4.7h8.2v-0.2c0-2-0.4-3.5-1.3-4.6c-0.9-1.1-2.1-1.6-3.7-1.6c-1.7,0-3.1,0.6-4.2,1.9
				c-1.1,1.3-1.7,2.9-1.7,4.9c0,2.1,0.6,3.8,1.8,5.2c1.2,1.3,2.8,2,4.8,2c1.3,0,2.7-0.3,4.2-0.9V1372.3z"/>
			<path class="st7" d="M1568.8,1362.4c0.3,0,0.5,0.1,0.6,0.2c0.1,0.1,0.2,0.6,0.2,1.4l0,0.2h1.4v-3.7c-0.3-0.1-0.6-0.1-0.8-0.1
				c-1.8,0-3.2,0.9-4.3,2.8v-2.5h-4.7v0.8l0.2,0c1,0.1,1.6,0.2,1.8,0.4c0.2,0.2,0.3,0.9,0.3,2v7c0,1.1-0.1,1.8-0.3,2
				c-0.2,0.2-0.8,0.4-1.8,0.4l-0.2,0v0.8h7.3v-0.8l-0.5,0c-1-0.1-1.6-0.2-1.8-0.4c-0.2-0.2-0.3-0.9-0.3-2v-6.5
				C1566.6,1363.1,1567.6,1362.4,1568.8,1362.4z"/>
			<path class="st7" d="M1587.4,1373c-0.7,0-1.4-0.3-1.9-0.8c-0.5-0.5-0.8-1.2-0.8-1.9c0-1,0.4-1.9,1.2-2.4c0.8-0.6,1.9-0.9,3.3-0.9
				h0.6v5.1C1588.9,1372.6,1588.1,1373,1587.4,1373z M1592.7,1374.4c0.5,0,1-0.1,1.6-0.3l-0.1-0.9c-0.3,0.1-0.5,0.1-0.7,0.1
				c-0.5,0-0.8-0.2-1-0.7c-0.2-0.4-0.3-1.2-0.3-2.3v-6c0-2.7-1.5-4-4.4-4c-1.5,0-3,0.4-4.8,1.1v2.5h1.6l0-0.2
				c0.1-0.9,0.3-1.4,0.6-1.7c0.6-0.5,1.2-0.7,2-0.7c1.6,0,2.4,1.1,2.4,3.2v1.7h-0.5c-2.7,0-4.6,0.5-5.7,1.4c-1,0.8-1.5,1.8-1.5,3.1
				c0,1.1,0.4,2,1.1,2.7c0.8,0.7,1.7,1.1,2.8,1.1c1.4,0,2.8-0.7,4.3-2.1C1590.8,1373.7,1591.5,1374.4,1592.7,1374.4z"/>
			<path class="st7" d="M1600.6,1360.7h-4.7v0.8l0.2,0c1,0.1,1.6,0.2,1.8,0.4c0.2,0.2,0.3,0.9,0.3,2v7c0,1.1-0.1,1.8-0.3,2
				c-0.2,0.2-0.8,0.4-1.8,0.4l-0.2,0v0.8h7v-0.8l-0.2,0c-1-0.1-1.6-0.2-1.8-0.4c-0.2-0.2-0.3-0.9-0.3-2v-6.9
				c0.8-0.7,1.5-1.2,2.2-1.5c0.7-0.3,1.3-0.5,1.8-0.5c0.8,0,1.3,0.2,1.6,0.7c0.3,0.4,0.4,1.2,0.4,2.4v5.9c-0.1,1.2-0.2,1.9-0.3,2.1
				c-0.1,0.2-0.7,0.3-1.8,0.3l-0.2,0v0.8h7v-0.8l-0.2,0c-1-0.1-1.6-0.2-1.8-0.3c-0.1-0.2-0.2-0.8-0.3-2.1v-6.2c0-1.3-0.3-2.4-1-3.1
				c-0.7-0.8-1.6-1.1-2.7-1.1c-1,0-1.9,0.2-2.7,0.7c-0.8,0.5-1.5,1.2-2.1,2.1V1360.7z"/>
			<path class="st7" d="M1623.1,1370.7c-0.5,0.7-1.1,1.2-1.7,1.6c-0.6,0.4-1.3,0.5-2.1,0.5c-1.1,0-1.9-0.5-2.5-1.4
				c-0.5-1-0.8-2.4-0.8-4.3c0-1.8,0.3-3.1,0.8-4c0.6-0.9,1.4-1.3,2.5-1.3c0.6,0,1.2,0.1,1.8,0.4c0.6,0.2,1.2,0.6,1.9,1.1V1370.7z
				 M1627.8,1374.1v-0.8l-0.2,0c-1-0.1-1.6-0.2-1.8-0.4c-0.2-0.2-0.3-0.9-0.3-2v-16.3h-4.7v0.8l0.2,0c1,0.1,1.6,0.2,1.8,0.4
				c0.2,0.2,0.3,0.9,0.3,2v4.4c-0.6-0.6-1.2-1.1-1.8-1.4c-0.7-0.3-1.4-0.5-2.2-0.5c-1.7,0-3.1,0.7-4.1,2c-1,1.3-1.5,3.1-1.5,5.4
				c0,2,0.4,3.6,1.3,4.8c0.9,1.2,2.1,1.8,3.6,1.8c1,0,1.8-0.2,2.6-0.7c0.8-0.5,1.5-1.2,2.1-2.1v2.5H1627.8z"/>
			<path class="st7" d="M1641.9,1364.1c0.5-0.7,1.1-1.2,1.8-1.6c0.6-0.3,1.3-0.5,2-0.5c1.1,0,1.9,0.5,2.5,1.4c0.5,1,0.8,2.4,0.8,4.3
				c0,1.8-0.3,3.1-0.8,4c-0.6,0.9-1.4,1.3-2.5,1.3c-0.6,0-1.2-0.1-1.8-0.4c-0.6-0.2-1.3-0.6-1.9-1.1V1364.1z M1641.4,1374.2l0.3-1.7
				h0.1c0.6,0.6,1.2,1.1,1.8,1.4c0.7,0.3,1.4,0.5,2.2,0.5c1.7,0,3.1-0.7,4.1-2c1-1.3,1.5-3.1,1.5-5.4c0-2-0.4-3.6-1.3-4.8
				c-0.9-1.2-2.1-1.8-3.6-1.8c-1,0-1.8,0.2-2.6,0.7s-1.5,1.2-2.1,2.1v-8.6h-4.7v0.8l0.2,0c1,0.1,1.6,0.2,1.8,0.4
				c0.2,0.2,0.3,0.9,0.3,2v16.4H1641.4z"/>
			<path class="st7" d="M1658.5,1371.9c-0.7-1.2-1.1-2.7-1.1-4.5c0-1.8,0.4-3.3,1.1-4.5c0.7-1.2,1.6-1.8,2.7-1.8
				c1.1,0,2,0.6,2.7,1.8c0.7,1.2,1.1,2.7,1.1,4.5c0,1.8-0.4,3.3-1.1,4.5c-0.7,1.2-1.6,1.8-2.7,1.8
				C1660.1,1373.7,1659.2,1373.1,1658.5,1371.9z M1665.9,1372.5c1.1-1.3,1.7-3,1.7-5.1c0-2.2-0.6-3.9-1.7-5.1
				c-1.1-1.2-2.7-1.9-4.7-1.9c-2,0-3.5,0.6-4.7,1.9c-1.1,1.2-1.7,3-1.7,5.1c0,2.2,0.6,3.9,1.7,5.1c1.1,1.3,2.7,1.9,4.7,1.9
				C1663.2,1374.4,1664.8,1373.8,1665.9,1372.5z"/>
			<path class="st7" d="M1674.5,1371.9c-0.7-1.2-1.1-2.7-1.1-4.5c0-1.8,0.4-3.3,1.1-4.5c0.7-1.2,1.6-1.8,2.7-1.8
				c1.1,0,2,0.6,2.7,1.8c0.7,1.2,1.1,2.7,1.1,4.5c0,1.8-0.4,3.3-1.1,4.5c-0.7,1.2-1.6,1.8-2.7,1.8S1675.2,1373.1,1674.5,1371.9z
				 M1681.9,1372.5c1.1-1.3,1.7-3,1.7-5.1c0-2.2-0.6-3.9-1.7-5.1c-1.1-1.2-2.7-1.9-4.7-1.9c-2,0-3.5,0.6-4.7,1.9
				c-1.1,1.2-1.7,3-1.7,5.1c0,2.2,0.6,3.9,1.7,5.1c1.1,1.3,2.7,1.9,4.7,1.9C1679.2,1374.4,1680.7,1373.8,1681.9,1372.5z"/>
			<path class="st7" d="M1691.3,1367.5l5.6,6.6h3.8v-0.8l-0.2,0c-0.6,0-1.1-0.2-1.3-0.3c-0.3-0.2-0.9-0.9-1.9-2l-4-4.7l2.3-2.3
				c1.3-1.3,2.1-2,2.3-2.1c0.2-0.2,0.8-0.3,1.7-0.3l0.2,0v-0.8h-5.2v0.8h0.3c0.2,0,0.5,0,0.9,0c0.5,0,0.7,0.1,0.7,0.3
				c0,0.1-0.7,0.8-2,2.2l-3.1,3h-0.6v-12.3h-4.7v0.8l0.2,0c1,0.1,1.6,0.2,1.8,0.4c0.2,0.2,0.3,0.9,0.3,2v13.1c0,1.1-0.1,1.8-0.3,2
				c-0.2,0.2-0.8,0.4-1.8,0.4l-0.2,0v0.8h6.7v-0.8l-0.2,0c-0.8-0.1-1.3-0.2-1.5-0.4c-0.2-0.2-0.3-0.9-0.3-2v-3.4H1691.3z"/>
			<path class="st7" d="M1720.9,1370.7c-0.5,0.7-1.1,1.2-1.7,1.6c-0.6,0.4-1.3,0.5-2.1,0.5c-1.1,0-1.9-0.5-2.5-1.4
				c-0.5-1-0.8-2.4-0.8-4.3c0-1.8,0.3-3.1,0.8-4c0.6-0.9,1.4-1.3,2.5-1.3c0.6,0,1.2,0.1,1.8,0.4c0.6,0.2,1.2,0.6,1.9,1.1V1370.7z
				 M1725.6,1374.1v-0.8l-0.2,0c-1-0.1-1.6-0.2-1.8-0.4c-0.2-0.2-0.3-0.9-0.3-2v-16.3h-4.7v0.8l0.2,0c1,0.1,1.6,0.2,1.8,0.4
				c0.2,0.2,0.3,0.9,0.3,2v4.4c-0.6-0.6-1.2-1.1-1.8-1.4c-0.7-0.3-1.4-0.5-2.2-0.5c-1.7,0-3.1,0.7-4.1,2c-1,1.3-1.5,3.1-1.5,5.4
				c0,2,0.4,3.6,1.3,4.8c0.9,1.2,2.1,1.8,3.6,1.8c1,0,1.8-0.2,2.6-0.7c0.8-0.5,1.5-1.2,2.1-2.1v2.5H1725.6z"/>
			<path class="st7" d="M1731.5,1362.5c0.5-0.9,1.3-1.3,2.2-1.3s1.6,0.3,2,1c0.4,0.7,0.6,1.8,0.6,3.4l0,0.5h-5.5
				C1730.7,1364.6,1731,1363.4,1731.5,1362.5z M1738.8,1372.3c-1.1,0.6-2.3,0.9-3.8,0.9c-1.4,0-2.5-0.5-3.2-1.6
				c-0.7-1.1-1.1-2.6-1.1-4.7h8.2v-0.2c0-2-0.4-3.5-1.3-4.6c-0.9-1.1-2.1-1.6-3.7-1.6c-1.7,0-3.1,0.6-4.2,1.9
				c-1.1,1.3-1.7,2.9-1.7,4.9c0,2.1,0.6,3.8,1.8,5.2c1.2,1.3,2.8,2,4.8,2c1.3,0,2.7-0.3,4.2-0.9V1372.3z"/>
			<path class="st7" d="M1747.2,1374.4c1.5,0,2.8-0.4,3.7-1.1c0.9-0.8,1.4-1.7,1.4-2.9c0-0.9-0.2-1.6-0.7-2.1
				c-0.5-0.5-1.4-1.1-2.6-1.6l-1.1-0.5c-1.1-0.5-1.9-0.9-2.3-1.2c-0.4-0.3-0.6-0.8-0.6-1.4c0-0.7,0.2-1.3,0.7-1.7
				c0.5-0.5,1.1-0.7,1.8-0.7c0.8,0,1.4,0.2,1.9,0.6c0.2,0.1,0.3,0.4,0.4,0.7c0.1,0.3,0.1,0.9,0.2,1.7v0.2h1.4v-3.2
				c-1.4-0.5-2.7-0.8-4-0.8c-1.3,0-2.4,0.4-3.3,1.1c-0.9,0.7-1.3,1.6-1.3,2.7c0,0.9,0.3,1.7,0.9,2.3c0.6,0.7,1.6,1.2,2.9,1.7
				l1.2,0.5c0.8,0.3,1.4,0.7,1.7,1c0.3,0.4,0.5,0.9,0.5,1.5c0,0.7-0.2,1.3-0.7,1.7c-0.5,0.4-1.1,0.7-1.8,0.7c-0.9,0-1.7-0.2-2.5-0.7
				c-0.4-0.2-0.6-0.5-0.6-0.6c-0.1-0.2-0.1-0.9-0.2-2.1l0-0.2h-1.4v3.4C1744,1374.1,1745.6,1374.4,1747.2,1374.4z"/>
			<path class="st7" d="M1759.5,1355.9h-2.4v2.4h2.4V1355.9z M1754.8,1360.7v0.8l0.2,0c1,0.1,1.6,0.2,1.8,0.4c0.2,0.2,0.3,0.9,0.3,2
				v7c0,1.1-0.1,1.8-0.3,2c-0.2,0.2-0.8,0.4-1.8,0.4l-0.2,0v0.8h7v-0.8l-0.2,0c-1-0.1-1.6-0.2-1.8-0.4c-0.2-0.2-0.3-0.9-0.3-2v-10.2
				H1754.8z"/>
			<path class="st7" d="M1771.2,1373.8c0.9,0,1.5,0.2,1.9,0.5c0.4,0.3,0.6,0.8,0.6,1.4c0,0.9-0.4,1.6-1.1,2.1
				c-0.7,0.5-1.7,0.8-2.9,0.8c-1.3,0-2.2-0.2-2.8-0.6c-0.6-0.4-0.9-1.1-0.9-1.9c0-0.4,0.1-0.8,0.2-1.2c0.2-0.4,0.4-0.7,0.7-1H1771.2
				z M1767.6,1362.1c0.4-0.6,1.1-1,2-1c1.7,0,2.6,1.3,2.6,3.9c0,1.4-0.2,2.4-0.6,3s-1.1,1-1.9,1c-0.9,0-1.5-0.3-1.9-1
				c-0.4-0.7-0.7-1.7-0.7-3C1767,1363.7,1767.2,1362.8,1767.6,1362.1z M1764.3,1374.9c-0.4,0.5-0.7,1-0.7,1.5c0,0.9,0.6,1.6,1.7,2.1
				s2.6,0.8,4.4,0.8c1.9,0,3.5-0.4,4.6-1.2c1.2-0.8,1.7-1.8,1.7-3.1c0-1.1-0.4-1.9-1.2-2.4c-0.8-0.4-2.2-0.7-4.2-0.7h-2.1
				c-1,0-1.5-0.3-1.5-0.9c0-0.3,0.1-0.5,0.2-0.8c0.1-0.2,0.4-0.5,0.7-0.7c0.6,0.2,1.2,0.3,1.7,0.3c1.4,0,2.6-0.4,3.5-1.3
				c0.9-0.9,1.4-2,1.4-3.4c0-1.4-0.5-2.6-1.6-3.6l3.2,0.5l0.6-1.5l-4.7,0.4c-0.8-0.3-1.6-0.5-2.5-0.5c-1.5,0-2.8,0.4-3.7,1.3
				c-0.9,0.9-1.4,2-1.4,3.4c0,1,0.2,1.9,0.7,2.6c0.5,0.7,1.1,1.3,2,1.7c-0.8,0.4-1.4,0.8-1.8,1.2c-0.4,0.4-0.6,0.8-0.6,1.2
				c0,0.7,0.5,1.3,1.4,1.7C1765.4,1374,1764.8,1374.4,1764.3,1374.9z"/>
			<path class="st7" d="M1783.2,1360.7h-4.7v0.8l0.2,0c1,0.1,1.6,0.2,1.8,0.4c0.2,0.2,0.3,0.9,0.3,2v7c0,1.1-0.1,1.8-0.3,2
				c-0.2,0.2-0.8,0.4-1.8,0.4l-0.2,0v0.8h7v-0.8l-0.2,0c-1-0.1-1.6-0.2-1.8-0.4c-0.2-0.2-0.3-0.9-0.3-2v-6.9
				c0.8-0.7,1.5-1.2,2.2-1.5c0.7-0.3,1.3-0.5,1.8-0.5c0.8,0,1.3,0.2,1.6,0.7c0.3,0.4,0.4,1.2,0.4,2.4v5.9c-0.1,1.2-0.2,1.9-0.3,2.1
				c-0.1,0.2-0.7,0.3-1.8,0.3l-0.2,0v0.8h7v-0.8l-0.2,0c-1-0.1-1.6-0.2-1.8-0.3c-0.1-0.2-0.2-0.8-0.3-2.1v-6.2c0-1.3-0.3-2.4-1-3.1
				c-0.7-0.8-1.6-1.1-2.7-1.1c-1,0-1.9,0.2-2.7,0.7c-0.8,0.5-1.5,1.2-2.1,2.1V1360.7z"/>
		</g>
		<g class="st0">
			<text transform="matrix(1 0 0 1 1560.4189 1404.3555)"><tspan x="0" y="0" class="st4 st5 st6">by </tspan><tspan x="39.2" y="0" class="st4 st5 st6">da</tspan><tspan x="70.6" y="0" class="st4 st5 st6">ni</tspan><tspan x="95.7" y="0" class="st4 st5 st6">e</tspan><tspan x="109.8" y="0" class="st4 st5 st6">l n</tspan><tspan x="143.5" y="0" class="st4 st5 st6">o</tspan><tspan x="159.5" y="0" class="st4 st5 st6">h</tspan></text>
		</g>
		<g class="st0">
			<defs>
				<rect id="SVGID_7_" x="1119.3" y="0" width="1057.8" height="1501"/>
			</defs>
			<clipPath id="SVGID_8_">
				<use xlink:href="#SVGID_7_"  style="overflow:visible;"/>
			</clipPath>
			<path class="st8" d="M1564.8,1394.3c0.5-0.7,1.1-1.2,1.8-1.6c0.6-0.3,1.3-0.5,2-0.5c1.1,0,1.9,0.5,2.5,1.4c0.5,1,0.8,2.4,0.8,4.3
				c0,1.8-0.3,3.1-0.8,4c-0.6,0.9-1.4,1.3-2.5,1.3c-0.6,0-1.2-0.1-1.8-0.4c-0.6-0.2-1.3-0.6-1.9-1.1V1394.3z M1564.4,1404.5l0.3-1.7
				h0.1c0.6,0.6,1.2,1.1,1.8,1.4c0.7,0.3,1.4,0.5,2.2,0.5c1.7,0,3.1-0.7,4.1-2c1-1.3,1.5-3.1,1.5-5.4c0-2-0.4-3.6-1.3-4.8
				c-0.9-1.2-2.1-1.8-3.6-1.8c-1,0-1.8,0.2-2.6,0.7c-0.8,0.5-1.5,1.2-2.1,2.1v-8.6h-4.7v0.8l0.2,0c1,0.1,1.6,0.2,1.8,0.4
				c0.2,0.2,0.3,0.9,0.3,2v16.4H1564.4z"/>
			<path class="st8" d="M1581.7,1409.2l6.8-15c0.2-0.5,0.4-0.9,0.5-1.1c0.4-0.9,0.8-1.4,1.3-1.4l0.2,0v-0.8h-4v0.8h0.3
				c1,0,1.5,0.2,1.5,0.5c0,0.2-0.2,0.8-0.7,1.9l-3.2,7.2l-3-7.2c-0.5-1.2-0.7-1.9-0.7-2c0-0.3,0.6-0.4,1.7-0.4h0.3v-0.8h-6.1v0.8
				l0.2,0c0.4,0,0.8,0.2,1,0.4c0.2,0.3,0.5,0.9,1,2l4.2,10.1l-4.4,4.9H1581.7z"/>
			<path class="st8" d="M1610.7,1401c-0.5,0.7-1.1,1.2-1.7,1.6c-0.6,0.4-1.3,0.5-2.1,0.5c-1.1,0-1.9-0.5-2.5-1.4
				c-0.5-1-0.8-2.4-0.8-4.3c0-1.8,0.3-3.1,0.8-4c0.6-0.9,1.4-1.3,2.5-1.3c0.6,0,1.2,0.1,1.8,0.4c0.6,0.2,1.2,0.6,1.9,1.1V1401z
				 M1615.4,1404.4v-0.8l-0.2,0c-1-0.1-1.6-0.2-1.8-0.4c-0.2-0.2-0.3-0.9-0.3-2v-16.3h-4.7v0.8l0.2,0c1,0.1,1.6,0.2,1.8,0.4
				c0.2,0.2,0.3,0.9,0.3,2v4.4c-0.6-0.6-1.2-1.1-1.8-1.4c-0.7-0.3-1.4-0.5-2.2-0.5c-1.7,0-3.1,0.7-4.1,2c-1,1.3-1.5,3.1-1.5,5.4
				c0,2,0.4,3.6,1.3,4.8c0.9,1.2,2.1,1.8,3.6,1.8c1,0,1.8-0.2,2.6-0.7c0.8-0.5,1.5-1.2,2.1-2.1v2.5H1615.4z"/>
			<path class="st8" d="M1623,1403.2c-0.7,0-1.4-0.3-1.9-0.8c-0.5-0.5-0.8-1.2-0.8-1.9c0-1,0.4-1.9,1.2-2.4c0.8-0.6,1.9-0.9,3.3-0.9
				h0.6v5.1C1624.6,1402.9,1623.7,1403.2,1623,1403.2z M1628.4,1404.7c0.5,0,1-0.1,1.6-0.3l-0.1-0.9c-0.3,0.1-0.5,0.1-0.7,0.1
				c-0.5,0-0.8-0.2-1-0.7c-0.2-0.4-0.3-1.2-0.3-2.3v-6c0-2.7-1.5-4-4.4-4c-1.5,0-3,0.4-4.8,1.1v2.5h1.6l0-0.2
				c0.1-0.9,0.3-1.4,0.6-1.7c0.6-0.5,1.2-0.7,2-0.7c1.6,0,2.4,1.1,2.4,3.2v1.7h-0.5c-2.7,0-4.6,0.5-5.7,1.4c-1,0.8-1.5,1.8-1.5,3.1
				c0,1.1,0.4,2,1.1,2.7c0.8,0.7,1.7,1.1,2.8,1.1c1.4,0,2.8-0.7,4.3-2.1C1626.4,1404,1627.2,1404.7,1628.4,1404.7z"/>
			<path class="st8" d="M1636.2,1391h-4.7v0.8l0.2,0c1,0.1,1.6,0.2,1.8,0.4c0.2,0.2,0.3,0.9,0.3,2v7c0,1.1-0.1,1.8-0.3,2
				c-0.2,0.2-0.8,0.4-1.8,0.4l-0.2,0v0.8h7v-0.8l-0.2,0c-1-0.1-1.6-0.2-1.8-0.4c-0.2-0.2-0.3-0.9-0.3-2v-6.9
				c0.8-0.7,1.5-1.2,2.2-1.5s1.3-0.5,1.8-0.5c0.8,0,1.3,0.2,1.6,0.7c0.3,0.4,0.4,1.2,0.4,2.4v5.9c-0.1,1.2-0.2,1.9-0.3,2.1
				c-0.1,0.2-0.7,0.3-1.8,0.3l-0.2,0v0.8h7v-0.8l-0.2,0c-1-0.1-1.6-0.2-1.8-0.3c-0.1-0.2-0.2-0.8-0.3-2.1v-6.2c0-1.3-0.3-2.4-1-3.1
				c-0.7-0.8-1.6-1.1-2.7-1.1c-1,0-1.9,0.2-2.7,0.7c-0.8,0.5-1.5,1.2-2.1,2.1V1391z"/>
			<path class="st8" d="M1652.9,1386.1h-2.4v2.4h2.4V1386.1z M1648.2,1391v0.8l0.2,0c1,0.1,1.6,0.2,1.8,0.4c0.2,0.2,0.3,0.9,0.3,2v7
				c0,1.1-0.1,1.8-0.3,2c-0.2,0.2-0.8,0.4-1.8,0.4l-0.2,0v0.8h7v-0.8l-0.2,0c-1-0.1-1.6-0.2-1.8-0.4c-0.2-0.2-0.3-0.9-0.3-2V1391
				H1648.2z"/>
			<path class="st8" d="M1661,1392.8c0.5-0.9,1.3-1.3,2.2-1.3s1.6,0.3,2,1c0.4,0.7,0.6,1.8,0.6,3.4l0,0.5h-5.5
				C1660.2,1394.9,1660.5,1393.7,1661,1392.8z M1668.3,1402.5c-1.1,0.6-2.3,0.9-3.8,0.9c-1.4,0-2.5-0.5-3.2-1.6
				c-0.7-1.1-1.1-2.6-1.1-4.7h8.2v-0.2c0-2-0.4-3.5-1.3-4.6c-0.9-1.1-2.1-1.6-3.7-1.6c-1.7,0-3.1,0.6-4.2,1.9
				c-1.1,1.3-1.7,2.9-1.7,4.9c0,2.1,0.6,3.8,1.8,5.2c1.2,1.3,2.8,2,4.8,2c1.3,0,2.7-0.3,4.2-0.9V1402.5z"/>
			<path class="st8" d="M1670.8,1384.9v0.8l0.2,0c1,0.1,1.6,0.2,1.8,0.4c0.2,0.2,0.3,0.9,0.3,2v13.1c0,1.1-0.1,1.8-0.3,2
				c-0.2,0.2-0.8,0.4-1.8,0.4l-0.2,0v0.8h7v-0.8l-0.2,0c-1-0.1-1.6-0.2-1.8-0.4c-0.2-0.2-0.3-0.9-0.3-2v-16.3H1670.8z"/>
			<path class="st8" d="M1692.6,1391h-4.7v0.8l0.2,0c1,0.1,1.6,0.2,1.8,0.4c0.2,0.2,0.3,0.9,0.3,2v7c0,1.1-0.1,1.8-0.3,2
				c-0.2,0.2-0.8,0.4-1.8,0.4l-0.2,0v0.8h7v-0.8l-0.2,0c-1-0.1-1.6-0.2-1.8-0.4c-0.2-0.2-0.3-0.9-0.3-2v-6.9
				c0.8-0.7,1.5-1.2,2.2-1.5c0.7-0.3,1.3-0.5,1.8-0.5c0.8,0,1.3,0.2,1.6,0.7c0.3,0.4,0.4,1.2,0.4,2.4v5.9c-0.1,1.2-0.2,1.9-0.3,2.1
				c-0.1,0.2-0.7,0.3-1.8,0.3l-0.2,0v0.8h7v-0.8l-0.2,0c-1-0.1-1.6-0.2-1.8-0.3c-0.1-0.2-0.2-0.8-0.3-2.1v-6.2c0-1.3-0.3-2.4-1-3.1
				c-0.7-0.8-1.6-1.1-2.7-1.1c-1,0-1.9,0.2-2.7,0.7c-0.8,0.5-1.5,1.2-2.1,2.1V1391z"/>
			<path class="st8" d="M1709,1402.1c-0.7-1.2-1.1-2.7-1.1-4.5c0-1.8,0.4-3.3,1.1-4.5c0.7-1.2,1.6-1.8,2.7-1.8c1.1,0,2,0.6,2.7,1.8
				c0.7,1.2,1.1,2.7,1.1,4.5c0,1.8-0.4,3.3-1.1,4.5c-0.7,1.2-1.6,1.8-2.7,1.8S1709.8,1403.3,1709,1402.1z M1716.4,1402.8
				c1.1-1.3,1.7-3,1.7-5.1c0-2.2-0.6-3.9-1.7-5.1c-1.1-1.2-2.7-1.9-4.7-1.9c-2,0-3.5,0.6-4.7,1.9c-1.1,1.2-1.7,3-1.7,5.1
				c0,2.2,0.6,3.9,1.7,5.1c1.1,1.3,2.7,1.9,4.7,1.9C1713.7,1404.7,1715.3,1404,1716.4,1402.8z"/>
			<path class="st8" d="M1725.3,1384.9h-4.7v0.8l0.2,0c1,0.1,1.6,0.2,1.8,0.4c0.2,0.2,0.3,0.9,0.3,2v13.1c0,1.1-0.1,1.8-0.3,2
				c-0.2,0.2-0.8,0.4-1.8,0.4l-0.2,0v0.8h7v-0.8l-0.2,0c-1-0.1-1.6-0.2-1.8-0.4c-0.2-0.2-0.3-0.9-0.3-2v-6.9
				c0.8-0.7,1.5-1.2,2.2-1.5c0.7-0.3,1.3-0.5,1.8-0.5c0.8,0,1.3,0.2,1.6,0.7c0.3,0.4,0.4,1.2,0.4,2.4v5.9c-0.1,1.2-0.2,1.9-0.3,2.1
				c-0.1,0.2-0.7,0.3-1.8,0.3l-0.2,0v0.8h7v-0.8l-0.2,0c-1-0.1-1.6-0.2-1.8-0.3c-0.1-0.2-0.2-0.8-0.3-2.1v-6.2c0-1.3-0.3-2.4-1-3.1
				c-0.7-0.8-1.6-1.1-2.7-1.1c-1,0-1.9,0.2-2.7,0.7c-0.8,0.5-1.5,1.2-2.1,2.1V1384.9z"/>
		</g>
	</g>
</g>
<g>
	<g>
		<defs>
			<rect id="SVGID_9_" y="98" width="1119.7" height="1583.5"/>
		</defs>
		<clipPath id="SVGID_10_">
			<use xlink:href="#SVGID_9_"  style="overflow:visible;"/>
		</clipPath>
		<g class="st9">
			<defs>
				<rect id="SVGID_11_" y="98" width="1119.7" height="1583.5"/>
			</defs>
			<clipPath id="SVGID_12_">
				<use xlink:href="#SVGID_11_"  style="overflow:visible;"/>
			</clipPath>
			<path class="st10" d="M783.8,759.4c-1.5-19.5,7.2-39.9,28.7-42.7c4.9-0.6,9.7,0.3,14.5,0.1c4-0.1,3.2-1.2,3.2,2
				c0,6-4.1,13.7-7.1,18.5c-6.8,10.7-18,19.7-26.1,29.6c-7.4,9-14.4,18.2-21.4,27.4c-2.5,3.4-5,6.8-7.6,10.1
				c-2.2,2.9-2.7,5.1-6.2,2.5c-6.2-4.6-1.1-5.1,2.4-8.2c4.1-3.7,6.8-8.5,7.6-13.9c1.9-13.1-2.2-41.1-21.8-35.5
				c-9.2,2.6-12.8,12-11.9,20.8c0.5,4.7,2.2,9.2,3.7,13.6c1.7,5.1,2.5,10.6,5.5,15.1c0.6,0.8,1.9,0.9,2.4-0.1h0
				c-0.8-0.2-1.7-0.4-2.5-0.5c-1.6,7.8-3.9,6.3-11.4,8c-5.7,1.2-10.2,3.9-15.6,6.3c-7.9,3.5-16.8,4.6-25.1,7.2
				c-9.1,2.9-18.1,6.3-26.8,10.4c-10.6,5.1-20.3,12-30,18.5c-5.7,3.8-21.1,11.6-22.5,19.3c-1,5.3,4.6,4.9,8.1,3.5
				c12.8-5.1,23.1-18,34.5-25.6c13.6-9.2,29.7-13.6,45.5-17.4c5.7-1.4,11.3-2.6,17.1-3.7c1.6-0.3,3.2-0.7,4.7-0.9
				c3.1-0.3,1-0.9,0.8,0.3c-0.9,5.3-5.8,11.1-8.8,15.3c-4.5,6.3-9.3,12.4-14.2,18.4c-10.3,12.7-21,24.9-29.9,38.7
				c-7.5,11.6-14.4,22.8-23,33.6c-3.7,4.6-7.5,9.2-11.6,13.5c-3.9,4.1-5.5,6.2-10.6,3c-9.5-5.9-17.9-13.6-26.9-20.1
				c-3-2.1-12.4-10.4-16.7-7.9c-8,4.6,21.4,27,24.9,29.7c5.6,4.4,15,13.8,22.8,14.2c7.4,0.4,15.5-10.8,19.8-15.4
				c7.8-8.5,14.8-17.5,22.2-26.3c8.7-10.4,20.2-18.6,31.4-26.1c-0.7-0.4-1.3-0.9-2-1.3c-6.4,14.6-12.9,29.2-19.6,43.7
				c-3.3,7.3-6.3,15.1-10.5,22c-4.4,7.4-11.3,13.6-17.3,19.6c-13.1,13.1-29.1,25.4-39.5,40.8c-4.8,7.1-1.4,10.8,5.8,6.3
				c13.8-8.7,25.6-22,36.9-33.6c8.6-8.7,18-17.4,24.8-27.6c20.6-30.8,38.7-64.2,55.3-97.3c5.8-11.7,18.4-19,23.1-31.3
				c5.8-15.1,14-27.9,23.6-41c10.8-14.7,22.7-28.2,34.8-41.7c8.5-9.4,24.6-23.4,20.8-37.3c-0.6,0.4-1.2,0.8-1.9,1.2
				c24.2,9.1,50.3,26.8,61,51c10.3,23.2,0.4,43.1-9.4,64.2c-8.7,18.7-16,38.5-18,59.1c-4.8,49,24.8,88.7,60.7,118.6
				c33.2,27.8,70.1,43.6,111.9,54c94.1,23.5,194,26.2,290.5,24.2c101.2-2.1,200.9-15.8,300.1-35.8c48.3-9.7,96.4-21.2,143-37
				c31.6-10.7,63-23.5,91.1-41.5c33.2-21.2,61.2-51.6,64-92.6c0.6-9,0.7-18.6-2.1-27.2c-4.2-13.1-13.7-23.8-24-32.5
				c-31.4-26.5-73.3-40.8-112.2-52.2c-54-16-109.9-25.9-165.8-32.7c-60.4-7.4-120.4-8.6-181.1-10.1c-47.4-1.2-101.2-3.8-143.8-27.1
				c-24.4-13.3-40.2-35-41.4-63.1c-0.6-13.3,1.5-27.1,5-39.8c5.1-18.4,19.4-31.4,35.5-40.6c40-22.9,89.2-29.4,134-37.4
				c49-8.8,96.3-18.2,141.1-41.2c20.9-10.7,40.3-23.8,59.1-37.9c18.4-13.8,36.1-25.2,57.6-34.1c33.3-13.7,66.3-26.2,98.5-42.4
				c33.2-16.7,66.7-32.5,101.3-45.9c27.2-10.5,54.9-19.2,83-26.8c17.4-4.7,36.3-11.5,54.5-12.2c13.6-0.5,27.4,1,40.9,2.6
				c12.6,1.5,25.2,0.6,37.8,0.3c9.3-0.2,35.3-2.2,30.8,14.3c-2.6,9.5-16.8,16.2-24.8,20.6c-21.5,11.8-44.3,21.6-66.6,32
				c-35.6,16.5-71.3,32.8-107.3,48.4c-30,13.1-60.2,26.5-91.3,37.1c-2.7,0.9-17.8,7.6-20.5,4.9c-6.4-6.3,31.4-26.6,35-28.2
				c7.3-3.2,16.7-7.4,24.9-6.2c12.5,1.8,6.7,18.4,3.2,25.7c-10.4,22-27.1,40.5-37.9,62.4c-17.6,35.7-36,73.9-61.1,105
				c-3.1,3.8-8.6,12.1-14.4,10.8c-8.8-2-11.2-18.6-11.9-25.7c-0.4-4.5-0.6-24.9,7.8-16c6,6.4,9.3,17.2,11.3,25.5
				c0.8,3.3,1.6,6.8,1.6,10.3c0,10.8-11,3.5-11.2-4.1c-0.2-7.3,6.3-14.6,8.3-21.7c7.6-25.5,15.7-50.9,23.7-76.3
				c5.9-18.7,13.3-37.3,13.6-57.2c0.1-7.3,0.9-18.2-4.2-24.3c-5.2-6.1-13.7-2.9-19.7,0.3c-7.9,4.2-14.7,10.7-21.5,16.5
				c-9.8,8.3-19.6,16.6-30.2,23.9c-5.2,3.6-10.7,7-16.5,9.6c-2.3,1-4.7,1.9-7.2,2.5c-2,0.5-3.9,0.7-6,0.7c-9-0.1-8.4-8.8-1.5-13
				c9.5-5.7,20.7-11.1,30.6-16c45.7-23,92.5-43.7,139.4-64.1c19.1-8.3,38.2-16.5,57.3-24.8c10-4.3,21.3-7.9,30.7-13.6
				c10.9-6.7-8.8-8.1-13.7-6.8c-9.6,2.6-19.1,9.7-27.8,14.5c-11,6.1-22,12.1-33.2,17.9c-8.9,4.5-17.9,9.4-27.4,12.4
				c-1.5,0.5-7.1,2.7-8.5,0.9c-1.9-2.5,5.2-8.4,6.6-9.6c13.5-12.1,32.5-20.4,43.1-35.5c6.6-9.4,1.4-14.5-8.3-16.4
				c-18.7-3.6-39.2-1.4-58-0.3c-24,1.4-48,3.5-72.1,4.8c-11.9,0.6-25.6,2.6-37.2,0c-4.7-1.1-14-6.1-11.2-12.8
				c3.1-7.1,6.8-5.5,8.5-4.4c1.7,1.1,1.5,3.7,1.5,4.6c0,0.9-0.3,2-0.5,2.8c-1,4.2-4.1,9.8-8.8,10.2c-0.5,0-1.2,0.5-1.2,1
				c-0.3,5.6,4.4,7.5,9.3,8.7c9.9,2.5,20.1,4,30.1,6.6c9.8,2.5,19.7,5.3,29.1,9.1c7.8,3.1,17.8,6.9,9.7,15.8
				c-11.9,13.1-33.3,21.2-50.4,23.8c-24.8,3.7-49.9-0.1-74.5,6.2c-24.6,6.3-48.5,19.1-74.5,17.4c-12.8-0.8-24.7-5.3-36.5-10
				c-9-3.6-18.4-8.8-28.3-9c-8.9-0.2-22.4,4.6-16.6,16c4.2,8.3,16.2,14.7,23.3,20.5l34,27.8c6.6,5.4,13.5,12.9,22.2,14.8
				c11.5,2.4,20.8-6.7,31.6-8.5c5.2-0.9,18.7,0.4,10.7,7.1c-2.9,2.4-6,4.7-9.1,6.8c-8,5.5-16.6,10.2-25.2,14.7
				c-4.8,2.5-55.6,23.3-44.5,33.2c5.7,5.1,19.5,1.7,25.8,0.6c12.4-2.1,24.9-5.3,36.5-10.3c3.3-1.4,12.7-4.6,10.3-9.7
				c-3.9-8.1-24.4,1.2-28.9,3.6c-14,7.5-18.9,22.1-20.7,37.2c-0.7,5.7-1.9,21.2,8,17.3c4.2-1.6,8.1-6.5,11-9.6
				c5.5-5.9,10.6-12.2,15.4-18.7c5.3-7.2,16.1-18.9,15.7-28.5c-0.1-1.6-2.9-1.2-2.8,0.4c0.4,7.6-8.7,17.9-12.7,23.5
				c-6.2,8.7-12.9,17.3-20.6,24.8c-1.4,1.4-6.2,7-8.6,6.5c-5.3-1-2.6-15.6-2.1-18.8c2.5-15.2,7.8-27.4,22.5-33.9
				c4.8-2.1,12.5-5.3,17.9-4.1c7.2,1.7,0.4,5-2.9,6.6c-9.1,4.4-19.3,7.1-29.1,9.4c-8.7,2-18.9,4.5-27.9,3.2
				c-12.8-1.9,0.8-10.6,5.7-13.5c24.4-14.3,52.2-23.7,73-43.5c0.4-0.4,0.4-1.1,0-1.5c-8.2-10-21.1-4.9-31-0.6
				c-6.5,2.8-12.9,5-20.2,2.9c-5-1.5-10.1-6.8-14.1-10c-9-7.3-18-14.7-26.9-22c-7.6-6.2-15.1-12.3-22.7-18.5
				c-4.6-3.8-16.6-11.2-10.2-18.8c3.4-4,10-4.4,14.9-3.9c8.8,0.7,17.4,5.5,25.5,8.7c8.4,3.4,16.8,6.6,25.7,8.6
				c38.8,8.4,74.4-17.5,112.6-19.8c19-1.1,38.6,0.8,57.3-3.9c12.5-3.1,24.9-8.9,35.4-16.2c4.5-3.2,14.1-9.6,12.4-16.4
				c-1.9-7.7-18.6-11.3-24.6-13.4c-15.5-5.1-31.3-8.6-47.3-11.8c-2.2-0.4-9.4-2.3-9.6-4.5c-0.2-2.2,0.7-1.9,2.1-2.2
				c1.3-0.3,2.5-1.6,3.4-2.6c1.8-2,3.1-4.4,3.9-7c1.8-5.5,1.5-13.4-6-13.4c-8.3,0-10.7,11-6.9,16.9c6.4,10.1,23.3,7.8,33.4,7.5
				c13.5-0.4,27-1.3,40.5-2.2c28.1-1.9,56.3-4.8,84.5-4.6c8.1,0.1,18.6-0.5,26.2,3c9.8,4.5-2,15.4-6.6,19.6
				c-9,8-19.3,14.5-28.8,21.9c-4,3.1-13.2,8.9-13.5,14.8c-0.7,11.9,28.7-4.1,31.9-5.7c11.6-5.7,23.1-11.9,34.4-18.1
				c5.8-3.2,11.5-6.3,17.3-9.5c6-3.3,12.7-8.2,19.6-9c1.9-0.2,12.1-0.9,9.5,2.6c-0.8,1-3.9,1.9-5,2.4c-6.3,2.9-12.6,5.6-19,8.4
				c-47.9,20.8-96,41.3-143.5,63.1c-25,11.5-49.9,23.3-74.4,36c-6.7,3.5-25.7,9.6-25.1,19.2c0.5,9.2,14.1,7.6,19.9,5.8
				c25.5-7.8,45.2-30.5,65.8-46.4c4.2-3.3,8.6-6.4,13.8-8.1c10.7-3.5,13.2,5.1,14,13.5c1.1,12.4,0,24.7-3.6,36.6
				c-7.8,26.4-16.5,52.5-24.6,78.7c-3.6,11.7-6,25.4-11.5,36.1c-3.5,6.7-8.8,14.4-3.5,21.8c2.5,3.5,9.1,8,12.9,3.9
				c4.1-4.3,0.9-14.6-0.3-19.3c-1.4-5.4-10.2-35.2-20.6-27.5c-4.8,3.6-4.1,13.5-3.7,18.6c0.6,8.4,2.5,18.9,8.3,25.4
				c9.8,11.1,20.2-3.8,25.9-11.4c14.2-18.9,25.8-39.8,37.1-60.5c10.1-18.6,18.6-38.3,29.5-56.5c8.2-13.6,18.2-26.1,26.1-39.9
				c4.6-8,11.6-20.4,7.7-30.1c-5.5-13.5-28.5-3.1-37,0.8c-8.8,4.1-17.3,9-24.9,15.1c-3.5,2.8-10.4,7.9-10.4,13.1
				c0,6.4,8.6,3.4,12.3,2.4c32.2-8.4,63.4-23.5,93.9-36.7c41-17.7,81.8-36.2,122.3-55.1c25.4-11.9,53.9-22.4,76.7-39.1
				c6.8-5,14.4-12.1,10.3-21.2c-3.8-8.4-15-8.4-22.8-8.6c-14.8-0.3-29.6,1.5-44.4,0.1c-14.3-1.4-28.5-3.2-42.9-2.9
				c-20.6,0.4-42.2,8.4-61.9,13.8c-32.9,9-64.9,19.9-96.4,32.8c-39.7,16.3-77.3,36.9-116.3,54.8c-32.2,14.8-68.2,23.3-98.3,42.4
				c-18.9,12-35.9,26.9-54.7,39c-27.8,17.9-58.4,32.2-90.1,41.2c-51,14.6-104.4,18.9-155.8,32.3c-37.2,9.7-85.9,25.3-96.1,67.6
				c-6.4,26.6-7.2,56.1,10.3,78.8c24.2,31.4,69.8,40.5,106.7,45.6c35,4.8,70.1,4.9,105.3,5.4c33.9,0.4,67.8,2.3,101.6,5.4
				c66.4,6.1,133,16.3,197.2,34.4c26.4,7.4,52.5,16.2,77.3,28c18.7,8.9,37.7,19.8,51.9,35.2c35,38,9,94.7-24.7,123.4
				c-26.3,22.4-58.5,37.3-90.5,49.5c-51.9,19.8-106.2,33-160.5,44.1c-63.7,13-128.5,24.4-193.3,30.5c-50.5,4.8-101.3,6.6-152,6.5
				c-57.8-0.1-115.9-2.8-173.2-10.5c-48.9-6.5-100.4-15.8-144.7-38.8c-27.2-14.2-52.4-35.3-72-58.8c-17.5-21.1-29.5-46.4-29.9-74.1
				c-0.3-25.9,8.8-50.9,19.7-73.9c9.7-20.4,17.9-40,8.4-62.2c-10.7-25.2-37.7-43.6-62.7-52.9c-0.7-0.3-2.1,0.3-1.9,1.2
				c3.9,14.3-16.9,31.9-25.8,41.7c-9.7,10.6-18.8,21.6-27.4,33.1c-7.2,9.7-14.4,19.7-20.2,30.3c-2.8,5.1-4.1,10.5-6.5,15.7
				c-2.8,6-8,10.6-12.4,15.4c-10.5,11.4-16.4,26.8-23.8,40.2c-9.5,17.4-19.3,34.6-29.4,51.6c-5.9,10-11.6,20.1-19.5,28.7
				c-10.9,11.9-22.2,23.4-33.9,34.5c-5.6,5.3-11.3,10.7-17.6,15.2c-1,0.7-4.5,3.7-5.6,2.9c-1.6-1.1,2.6-6.2,3.3-7.1
				c11.1-14.4,25.7-26.4,38.5-39.3c5.6-5.6,11.7-11.3,16.1-18c4.3-6.6,7.2-14.3,10.4-21.4c6.9-15.1,13.7-30.3,20.4-45.5
				c0.5-1.2-1.1-1.9-2-1.3c-10.7,7.2-21.8,15-30.4,24.7c-7.6,8.6-14.5,17.9-22.2,26.5c-4.3,4.7-9,10.6-14.5,14.1
				c-5,3.1-7.9,0.7-12.5-2.2c-11.1-7-21.6-15.7-30.9-25c-1.3-1.3-8.9-8.1-7.9-10c1.2-2.4,13,6.4,14.1,7.2
				c9.5,6.8,18.9,17.2,29.8,21.7c6.4,2.7,10.5-4,14.4-8.5c8-9,16-18.5,22.4-28.8c12.6-20.1,26.7-38.1,41.5-56.6
				c5.5-6.8,10.9-13.6,15.7-20.9c2.3-3.5,6.3-8.6,5.6-13.1c-0.1-0.7-0.8-1-1.4-0.9c-13.7,2.3-27.4,5.5-40.7,9.5
				c-21.3,6.4-36.5,18.2-53.8,31.8c-2.7,2.1-7.5,6.9-11,7.3c-7,0.8-1.1-5.2,1.4-7.4c6.9-6.1,14.8-11,22.4-16.1
				c19.4-12.8,39.4-22.4,62.2-28c10.4-2.5,19.4-8.2,29.8-10.4c7.8-1.7,10-1,11.7-9.5c0.3-1.4-1.9-1.6-2.5-0.5l0,0c0.8,0,1.6,0,2.4,0
				c-3.2-4.7-4.3-11.5-6.1-17c-1.2-3.6-2.4-7.3-2.8-11.1c-0.8-8,1.4-13.4,9-16.6c5.6-2.3,9.8-2.4,14.2,2.5c1.5,1.7,2.3,3.4,3,5.6
				c1.2,3.7,1.6,7.7,2,11.6c1.3,12.6-1,21.8-12.7,28.6c-0.4,0.2-0.7,0.9-0.4,1.3c2.3,3.9,6.1,10.5,11,7.1c2.7-1.9,4.9-6.4,6.9-9
				c4-5.3,8-10.7,12.1-16c9.5-12.4,19.3-24.7,30.2-35.9c9.7-9.8,14.4-19.5,17.5-32.8c0.2-0.7-0.5-1.2-1.1-1.2
				c-13.5-1.2-28.8-2.4-39.2,7.9c-10.2,10.1-13.1,23-12,36.8C781.4,761.1,783.9,760.8,783.8,759.4"/>
		</g>
	</g>
</g>
<g>
	<line class="st11" x1="1124.5" y1="1499.5" x2="1124.5" y2="-0.5"/>
	<line class="st11" x1="1052.5" y1="1500" x2="1052.5" y2="0"/>
</g>
</svg>
