<?xml version="1.0" encoding="utf-8"?>
<!-- Generator: Adobe Illustrator 22.1.0, SVG Export Plug-In . SVG Version: 6.00 Build 0)  -->
<svg version="1.1" id="Layer_1" xmlns="http://www.w3.org/2000/svg" xmlns:xlink="http://www.w3.org/1999/xlink" x="0px" y="0px"
	 viewBox="0 0 1500 1500" style="enable-background:new 0 0 1500 1500;" xml:space="preserve">
<style type="text/css">
	.st0{fill:#7AC5E5;}
	.st1{fill:none;stroke:#7AC5E5;stroke-width:0.5;stroke-miterlimit:10;}
	.st2{fill:none;stroke:#7AC5E5;stroke-width:0.25;stroke-miterlimit:10;stroke-dasharray:3;}
</style>
<g>
	<path class="st0" d="M532.7,456.7c-0.3-14.4-0.7-28.8-1-43.2l-0.8-43.2l-0.7-43.2l-0.6-43.2l0-3l3,0l23.8-0.3l23.8-0.2l-3.6,3.6
		l-0.6-62.5l-0.4-62.5l0-4.5l4.5,0c28.3-0.2,56.6-0.3,84.9-0.3L750,154l84.9,0.1l42.4,0.1l42.4,0.2l4.5,0l0,4.5l-0.4,62.5l-0.6,62.5
		l-3.6-3.6c15.9,0.1,31.8,0.4,47.6,0.5l3.1,0l0,3l-0.6,43.2l-0.7,43.2l-0.8,43.2c-0.3,14.4-0.7,28.8-1,43.2
		c-0.3-14.4-0.7-28.8-1-43.2l-0.8-43.2l-0.7-43.2l-0.6-43.2l3,3c-15.9,0.2-31.8,0.4-47.6,0.5l-3.5,0l0-3.6l-0.6-62.5l-0.4-62.5
		l4.5,4.5l-42.4,0.2l-42.4,0.1L750,164l-84.9-0.2c-28.3,0-56.6-0.2-84.9-0.3l4.5-4.5l-0.4,62.5l-0.6,62.5l0,3.6l-3.5,0l-23.8-0.2
		l-23.8-0.3l3-3l-0.6,43.2l-0.7,43.2l-0.8,43.2C533.4,428,533,442.3,532.7,456.7z"/>
</g>
<rect x="607.1" y="531.2" transform="matrix(6.123234e-17 -1 1 6.123234e-17 75.9219 1424.0781)" class="st1" width="285.8" height="285.8"/>
<rect x="630.9" y="828.9" transform="matrix(6.123234e-17 -1 1 6.123234e-17 -197.9924 1697.9924)" class="st1" width="238.2" height="238.2"/>
<rect x="630.9" y="1102.8" transform="matrix(6.123234e-17 -1 1 6.123234e-17 -471.9068 1971.9069)" class="st1" width="238.2" height="238.2"/>
<g>
	<path class="st0" d="M613,456.7c-0.5-17.9,2.7-36.1,9.3-52.9c6.7-16.8,16.7-32.4,29.5-45.3c12.7-13,28.1-23.4,44.9-30.5
		c16.8-7.1,35.1-10.7,53.3-10.7c18.2,0,36.5,3.7,53.3,10.7c16.8,7.1,32.2,17.5,44.9,30.5c6.3,6.5,12.1,13.6,17,21.2
		c4.9,7.6,9.1,15.7,12.4,24.1c6.6,16.8,9.8,35,9.3,52.9c-0.6-17.9-4.4-35.7-11.5-51.9c-7.1-16.3-17.3-31.1-29.9-43.5
		c-12.7-12.3-27.6-22.3-44-28.9c-16.3-6.7-33.9-10.1-51.5-10.1c-17.6,0-35.2,3.4-51.5,10.1c-16.3,6.6-31.3,16.6-44,28.9
		c-12.6,12.4-22.9,27.2-29.9,43.5C617.4,421.1,613.6,438.8,613,456.7z"/>
</g>
<g>
	<path class="st0" d="M550.5,456.7c-0.6-26.1,4.3-52.4,14-76.8c9.8-24.4,24.5-46.8,43-65.6c18.5-18.8,40.8-33.8,65.2-44.1
		c24.4-10.2,50.8-15.4,77.2-15.5c26.4,0,52.9,5.3,77.3,15.5c24.4,10.2,46.7,25.3,65.2,44.1c9.2,9.4,17.6,19.7,24.8,30.7
		c7.2,11,13.3,22.7,18.2,34.9c9.7,24.4,14.6,50.7,14,76.8L949,447c-0.3-3.3-0.6-6.5-0.9-9.7c-0.4-3.2-0.9-6.5-1.3-9.7
		c-0.5-3.2-1.2-6.4-1.8-9.6c-2.7-12.7-6.7-25.2-11.8-37.1c-10.2-23.9-25.1-45.6-43.5-63.8c-18.4-18.1-40.3-32.7-64.2-42.5
		c-23.9-9.8-49.6-14.9-75.4-14.9c-25.8,0-51.6,5-75.4,14.8c-23.9,9.7-45.8,24.3-64.2,42.5c-18.4,18.2-33.3,39.9-43.5,63.8
		c-5.1,11.9-9.1,24.4-11.8,37.1c-0.6,3.2-1.3,6.4-1.8,9.6c-0.4,3.2-1,6.4-1.3,9.7c-0.3,3.2-0.6,6.5-0.9,9.7L550.5,456.7z"/>
</g>
<g>
	<polygon class="st0" points="607.1,531.2 608,602.6 608.7,674.1 609.9,817 607.1,814.2 630.9,814.1 633.8,814 633.8,817 634.6,948 
		635.2,1079 635.6,1210 635.8,1341 630.9,1336.1 750,1336 869.1,1336.1 864.2,1341 864.4,1210 864.8,1079 865.4,948 865.7,882.5 
		866.1,817 866.2,814 869.1,814 892.9,814.2 890.1,817 891.3,674.1 892,602.6 892.9,531.2 893.8,602.6 894.5,674.1 895.7,817 
		895.7,819.8 892.9,819.8 869.1,819.9 872,817 872.5,882.5 872.8,948 873.4,1079 873.8,1210 874,1341 874,1345.9 869.1,1345.9 
		750,1346 630.9,1345.9 626,1345.9 626,1341 626.2,1210 626.6,1079 627.2,948 628,817 630.9,819.9 607.1,819.8 604.3,819.7 
		604.3,817 605.5,674.1 606.2,602.6 	"/>
</g>
<g>
	<path class="st0" d="M843.4,990.6c0.6-3.5,0.9-7,1.1-10.5c0.2-3.5,0.2-7,0-10.5c-0.4-7-1.4-13.9-3.3-20.6
		c-1.8-6.7-4.4-13.2-7.6-19.3c-3.2-6.1-7.1-11.9-11.5-17.1c-8.9-10.5-20-19.1-32.5-24.8c-12.4-5.8-26.1-8.8-39.8-8.7
		c-13.7,0-27.4,3.1-39.8,8.9c-12.4,5.8-23.5,14.5-32.4,25c-4.4,5.3-8.2,11.1-11.5,17.2c-0.9,1.5-1.5,3.1-2.3,4.7
		c-0.7,1.6-1.3,3.2-2,4.8c-0.6,1.6-1.2,3.2-1.7,4.9c-0.5,1.7-1.1,3.3-1.5,5c-1.8,6.7-2.9,13.6-3.2,20.6c-0.2,3.5-0.2,7,0,10.5
		c0.2,3.5,0.6,7,1.2,10.5c-1.7-6.8-2.6-13.9-2.6-21c-0.1-7.1,0.7-14.2,2.2-21.2c3-13.9,9.4-27.1,18.3-38.4
		c4.4-5.7,9.6-10.8,15.2-15.2c5.6-4.5,11.7-8.4,18.2-11.6c13-6.3,27.4-9.6,41.8-9.6c14.4,0,28.9,3.2,41.9,9.4
		c6.5,3.1,12.6,7,18.3,11.5c5.6,4.5,10.8,9.6,15.2,15.2c8.9,11.2,15.4,24.4,18.5,38.3c1.5,7,2.3,14.1,2.3,21.1
		C845.9,976.7,845,983.7,843.4,990.6z"/>
</g>
<g>
	<path class="st0" d="M630.9,971.8c-0.5-15.6,2.2-31.4,7.9-46c5.8-14.7,14.5-28.2,25.6-39.5c11-11.4,24.5-20.4,39.1-26.6
		c14.7-6.2,30.6-9.3,46.5-9.4c15.9,0,31.8,3.2,46.5,9.4c14.6,6.2,28.1,15.3,39.1,26.6c11.1,11.3,19.8,24.9,25.6,39.5
		c5.7,14.7,8.5,30.5,7.9,46c-0.6-15.6-3.9-31-10.2-45.1c-6.2-14.1-15.1-27-26.1-37.7c-11-10.7-24-19.3-38.2-25
		c-14.1-5.8-29.4-8.8-44.7-8.7c-15.3,0-30.5,2.9-44.7,8.7c-14.2,5.7-27.2,14.3-38.2,25c-11,10.7-19.9,23.6-26.1,37.7
		C634.9,940.8,631.5,956.2,630.9,971.8z"/>
</g>
<path class="st2" d="M869.1,817"/>
<rect x="532.7" y="284" class="st1" width="434.7" height="172.7"/>
</svg>
