<?xml version="1.0" encoding="utf-8"?>
<!-- Generator: Adobe Illustrator 22.1.0, SVG Export Plug-In . SVG Version: 6.00 Build 0)  -->
<svg version="1.1" id="Layer_1" xmlns="http://www.w3.org/2000/svg" xmlns:xlink="http://www.w3.org/1999/xlink" x="0px" y="0px"
	 viewBox="0 0 1500 1500" style="enable-background:new 0 0 1500 1500;" xml:space="preserve">
<style type="text/css">
	.st0{fill:#7AC5E5;}
	.st1{fill:none;stroke:#7AC5E5;stroke-width:12;stroke-linecap:round;stroke-linejoin:round;stroke-miterlimit:10;}
	.st2{fill:none;stroke:#7AC5E5;stroke-width:8;stroke-miterlimit:10;}
</style>
<g>
	<g>
		<path class="st0" d="M208,862.6L0,858.2l208-5.7c2.8-0.1,5.1,2.1,5.1,4.9s-2.1,5.1-4.9,5.1C208.2,862.6,208.1,862.6,208,862.6z"/>
	</g>
	<polyline class="st1" points="1300.7,857.6 1300.7,765 1040.1,641.9 208,765 208,857.6 	"/>
	<g>
		<path class="st0" d="M1500,857.9l-199.3,4.7c-2.8,0.1-5.1-2.1-5.1-4.9c-0.1-2.8,2.1-5.1,4.9-5.1c0.1,0,0.2,0,0.3,0L1500,857.9z"/>
	</g>
	<polyline class="st2" points="535.3,716.6 533.4,702.8 208,750.4 208,765 	"/>
	<g>
		<polygon class="st0" points="536.1,857.8 532.3,722.6 532.3,723.1 531.3,717.1 539.2,716 539.9,722.1 539.9,722.5 539.9,722.6 		
			"/>
	</g>
	<g>
		<polygon class="st0" points="1043.9,641.8 1039.9,858.2 1035.9,641.8 		"/>
	</g>
</g>
</svg>
