<?xml version="1.0" encoding="utf-8"?>
<!-- Generator: Adobe Illustrator 22.1.0, SVG Export Plug-In . SVG Version: 6.00 Build 0)  -->
<svg version="1.1" id="Layer_1" xmlns="http://www.w3.org/2000/svg" xmlns:xlink="http://www.w3.org/1999/xlink" x="0px" y="0px"
	 viewBox="0 0 1500 1500" style="enable-background:new 0 0 1500 1500;" xml:space="preserve">
<style type="text/css">
	.st0{fill:#7AC5E5;}
</style>
<g>
	<path class="st0" d="M1054.3,512.6c-4.2,0-8-0.4-12-0.9c-4-0.5-7.8-1.1-11.6-1.9c-7.7-1.5-15.3-3.6-22.6-6.1
		c-14.7-5-29.1-12.1-41.5-22.1c-3.1-2.5-6-5.2-8.9-8c-1.4-1.4-2.7-2.9-4.1-4.4s-2.6-3.1-3.7-4.6c-4.7-6.1-9.2-12.3-13.6-18.5
		c-8.8-12.5-17.2-25.1-26.1-37.3c-8.9-12.2-18.3-23.9-28.8-34.6c-10.5-10.6-22.2-20.1-35-27.7c-6.4-3.8-13.1-7.1-20-10
		c-6.9-2.9-14-5.3-21.2-7.1c-14.5-3.8-29.4-5.9-44.4-6.6s-30.2-0.2-45.1,1.8c-14.9,2-29.6,5.6-43.6,11.3
		c-13.9,5.6-27,13.3-38.9,22.5c-11.9,9.2-22.5,20.1-32.3,31.7c-19.5,23.2-35.6,49.3-54.4,73.1c-9.5,12-20.4,22.8-33.3,31.2
		c-6.4,4.2-13.3,7.6-20.5,9.9c-7.2,2.4-14.8,3.6-22.5,3.5c7.6,0,15.1-1.3,22.4-3.8c7.1-2.4,13.9-5.9,20.3-10.2
		c12.6-8.5,23.3-19.5,32.5-31.5c18.5-24,34.1-50.3,53.6-74c9.7-11.9,20.3-22.9,32.3-32.6c12-9.7,25.2-17.7,39.5-23.6
		c14.2-5.9,29.2-9.9,44.4-12.1c15.3-2.3,30.6-3,46-2.4s30.7,2.4,45.8,6.1c7.5,1.9,14.9,4.3,22.1,7.1c7.1,2.9,14.3,6.3,21,10.1
		c13.5,7.7,25.8,17.4,36.8,28.2c11,10.9,20.9,22.8,30,35c9.2,12.3,17.8,24.8,26.7,37.1c4.4,6.1,8.9,12.2,13.6,18.1
		c1.2,1.5,2.3,2.9,3.5,4.2c1.2,1.3,2.4,2.6,3.7,4c2.5,2.5,5.3,4.9,8.1,7.1c11.5,9,24.9,15.5,39,20.1c7,2.3,14.2,4.2,21.5,5.6
		c3.6,0.7,7.2,1.2,11,1.6c3.6,0.4,7.4,0.7,10.8,0.7v10H1054.3z"/>
</g>
<g>
	<polygon class="st0" points="1252.6,514.2 247.4,507.6 1252.6,501.1 	"/>
</g>
<g>
	<path class="st0" d="M509,1135v3.2v1.5v0.2c0,0,0.1,0.2-0.1,0.1v-0.4v-0.8v-6.4l-0.1-12.6l-0.1-25.2l-0.1-25.2
		c-0.1-8.5,0-16.9,0.8-25.2c1.4-16.8,5-33.6,12.6-48.9c3.7-7.6,8.6-14.7,14.5-21c5.8-6.3,12.7-11.4,20.3-15.5
		c7.6-4.1,15.7-6.9,23.9-8.8c8.3-1.9,16.8-2.9,25.4-3.1c16.9-0.2,33.7-0.2,50.5-0.3l101-0.7l50.5-0.3c17,0,34.1,1.3,50.8,5
		c16.7,3.6,33,9.7,48,18.1c14.9,8.5,28.5,19.4,40.4,31.6c12,12.3,22.5,25.7,32.4,39.4c10,13.7,19.4,27.5,29.4,40.9
		c5,6.7,10.1,13.2,15.8,19c5.6,5.8,11.7,11.2,18.4,15.8c6.7,4.5,13.8,8.2,21.3,10.8c7.5,2.5,15.4,4,23.3,4l-0.1,9.9
		c-9-0.1-17.9-1.8-26.2-4.7c-8.5-3-16.2-7.1-23.5-12.2s-13.7-10.9-19.8-17.2c-3-3.2-5.8-6.5-8.5-9.8c-2.7-3.4-5.3-6.8-7.8-10.2
		c-10.1-13.7-19.3-27.8-29.1-41.4c-9.7-13.6-19.8-26.9-31.2-38.9c-11.4-12-24.3-22.6-38.4-30.8c-14.2-8.3-29.7-14.3-45.9-18
		c-16.1-3.7-32.8-5.3-49.4-5.5l-50.5-0.3l-101-0.7c-16.8-0.1-33.7-0.2-50.5-0.2c-8.3,0.1-16.7,1-24.8,2.6c-8.1,1.8-16,4.4-23.4,8.2
		c-7.4,3.8-14.2,8.8-19.9,14.7c-5.8,5.9-10.6,12.8-14.4,20.3c-7.7,14.8-11.4,31.5-13.1,48.2c-0.9,8.3-1.1,16.8-1.1,25.1l-0.1,25.2
		l-0.1,25.2l-0.1,12.6v6.4v0.8v0.4c-0.1,0.1,0-0.1-0.1-0.1v-0.2v-1.5L509,1135z"/>
</g>
<g>
	<polygon class="st0" points="1252.6,1142.9 247.4,1136.3 1252.6,1129.7 	"/>
</g>
<g>
	<path class="st0" d="M1087.7,818c-7.6-0.1-15.1-1.3-22.3-3.5c-7.2-2.2-14-5.3-20.5-9c-12.8-7.6-23.8-17.8-33-29.1
		c-1.2-1.4-2.3-2.9-3.4-4.3l-3.3-4.3c-2.2-2.9-4.3-5.8-6.4-8.7c-4.2-5.8-8.2-11.7-12.3-17.6c-8.1-11.7-16-23.4-24.6-34.7
		c-8.6-11.2-17.7-21.9-27.9-31.5c-10.2-9.5-21.4-18.1-33.6-24.8c-12.2-6.8-25.4-11.9-39-15.4c-13.6-3.5-27.5-5.4-41.7-6.1
		c-3.5-0.2-7-0.3-10.5-0.3c-3.5-0.1-6.9,0-10.4,0.3c-6.9,0.7-13.8,2-20.6,3.7c-13.6,3.5-26.9,8.7-39.8,14.3
		c-26,11.3-51.4,24.5-77.7,35.3c-13.2,5.5-26.7,10.3-40.5,13.8c-13.8,3.5-28.1,5.6-42.5,4.9c-14.3-0.7-28.4-4.3-41-11.1
		c-12.6-6.7-23.5-16.2-32.7-27.1c9.4,10.6,20.4,20.1,33,26.6c12.6,6.6,26.7,10,40.8,10.4c14.2,0.4,28.3-1.8,41.9-5.5
		c13.7-3.7,27-8.8,40.1-14.4c26.1-11.2,51.1-24.7,77.2-36.4c13.1-5.8,26.3-11.2,40.2-15c6.9-1.9,14-3.4,21.3-4.2
		c3.6-0.3,7.2-0.5,10.9-0.5c3.6,0,7.1,0.1,10.8,0.2c14.4,0.5,28.6,2.3,42.7,5.7c14,3.4,27.8,8.5,40.5,15.3
		c12.8,6.8,24.6,15.5,35.2,25.2c10.6,9.8,20.2,20.6,29.1,31.9c8.9,11.3,17.1,22.9,25.4,34.6c4.2,5.8,8.2,11.5,12.4,17.2
		c2.1,2.9,4.2,5.7,6.4,8.5l3.3,4.2c1.1,1.3,2.2,2.7,3.3,4.1c8.9,10.5,19.3,19.9,31.1,26.6c5.9,3.4,12.1,6,18.5,7.9
		c6.5,1.9,13.1,2.7,19.8,2.7L1087.7,818z"/>
</g>
<g>
	<polygon class="st0" points="1252.6,820 247.4,813.4 1252.6,806.8 	"/>
</g>
<g>
	<path class="st0" d="M599.5,950.5l-43.1-0.9h0.1c-5.8,0.2-11.4-1.3-16.2-4.2c-4.9-2.9-9-7-11.7-11.9c-1.4-2.4-2.6-4.9-3.5-7.6
		c-1-2.6-1.5-5.4-2.1-8c-1-5.5-1.3-11-1.3-16.6c0.1,5.5,0.5,11.1,1.6,16.5c0.7,2.6,1.3,5.4,2.3,7.9c0.9,2.6,2.2,5,3.6,7.4
		c2.9,4.7,6.9,8.6,11.6,11.2c4.7,2.5,10.3,3.8,15.6,3.6l0,0l0,0l43.1-0.9L599.5,950.5L599.5,950.5z"/>
</g>
</svg>
