<?xml version="1.0" encoding="utf-8"?>
<!-- Generator: Adobe Illustrator 22.1.0, SVG Export Plug-In . SVG Version: 6.00 Build 0)  -->
<svg version="1.1" id="Layer_1" xmlns="http://www.w3.org/2000/svg" xmlns:xlink="http://www.w3.org/1999/xlink" x="0px" y="0px"
	 viewBox="0 0 1500 1500" style="enable-background:new 0 0 1500 1500;" xml:space="preserve">
<style type="text/css">
	.st0{fill:#7AC5E5;}
	.st1{fill:none;stroke:#7AC5E5;stroke-width:5;stroke-miterlimit:10;}
	.st2{fill:none;stroke:#7AC5E5;stroke-miterlimit:10;}
</style>
<g>
	<polygon class="st0" points="1431,1040.1 1333.3,1041 1235.5,1041.8 1040.1,1042.9 1037.3,1042.9 1037.2,1040.1 1036.6,894.9 
		1036,749.7 1035.3,459.4 1040.1,464.1 749.7,464.4 459.4,464.2 464.2,459.4 463.5,749.7 462.9,894.9 462.2,1040.1 462.2,1043 
		459.4,1042.9 264.2,1041.8 166.6,1041 69,1040.1 166.6,1039.2 264.2,1038.4 459.4,1037.2 456.5,1040.1 455.8,894.9 455.3,749.7 
		454.6,459.4 454.6,454.6 459.4,454.6 749.7,454.4 1040.1,454.6 1044.9,454.6 1044.9,459.4 1044.2,749.7 1043.6,894.9 
		1042.9,1040.1 1040.1,1037.2 1235.5,1038.4 1333.3,1039.2 	"/>
</g>
<rect x="516.4" y="743.3" class="st1" width="348.4" height="266.7"/>
<rect x="516.9" y="459.9" class="st1" width="174.2" height="221.5"/>
<rect x="516.9" y="743.8" class="st2" width="174.2" height="230.1"/>
<rect x="575.5" y="478.7" class="st2" width="20.4" height="202.2"/>
<rect x="392.7" y="635.7" transform="matrix(-1.836970e-16 1 -1 -1.836970e-16 1095.1101 289.2838)" class="st2" width="20.4" height="112.9"/>
<line class="st2" x1="690.6" y1="629.9" x2="596.5" y2="629.9"/>
<line class="st2" x1="576.1" y1="629.9" x2="515.8" y2="629.9"/>
<line class="st1" x1="1040.6" y1="1040.6" x2="459.9" y2="1040.6"/>
</svg>
