<?xml version="1.0" encoding="utf-8"?>
<!-- Generator: Adobe Illustrator 22.1.0, SVG Export Plug-In . SVG Version: 6.00 Build 0)  -->
<svg version="1.1" id="Layer_1" xmlns="http://www.w3.org/2000/svg" xmlns:xlink="http://www.w3.org/1999/xlink" x="0px" y="0px"
	 viewBox="0 0 1500 1500" style="enable-background:new 0 0 1500 1500;" xml:space="preserve">
<style type="text/css">
	.st0{fill:#7AC5E5;}
	.st1{fill:#7AC5E5;stroke:#7AC5E5;stroke-width:3;stroke-miterlimit:10;}
</style>
<g>
	<path class="st0" d="M148,937.1l59.5-0.8l59.5-0.7l119-1.2l-2.7,2.5c0.1-1.8,0-3.8,0-5.7s-0.1-3.9-0.2-5.8
		c-0.2-3.9-0.5-7.7-0.9-11.6c-0.7-7.7-1.8-15.5-2.9-23.2s-2.5-15.4-3.9-23.1l-1.1-5.7c-0.4-1.9-0.7-3.9-1.2-5.6
		c-0.8-3.6-2-7.2-3.5-10.6c-3-6.8-7.3-12.9-12.5-18.2c-5.3-5.2-11.5-9.6-18.1-13.1c-6.7-3.5-13.8-6.3-21.1-8.4
		c-3.7-1-7.4-1.9-11.1-2.7c-1.9-0.4-3.7-0.7-5.6-1c-1.8-0.3-3.8-0.5-5.5-0.6l-3.8-0.3v-3.8l-0.6-117.3l-0.5-117.3v-5.2h5.2
		l112.7-0.4l56.4-0.2l56.4-0.1l225.5-0.2l225.5,0.3l225.5,0.8h4.9v4.9l-1.1,187.1l-0.7,93.5l-0.8,93.5l-2.3-2.3l102.6,1l102.6,1.3
		l-102.6,1.3l-102.6,1h-2.3v-2.3l-0.8-93.5L1194,750l-1.1-187.1l4.9,4.9l-225.5,0.8l-225.5,0.3l-225.5-0.2l-56.4-0.1l-56.4-0.2
		L296,568.2l5.2-5.2l-0.5,117.3l-0.6,117.3l-3.8-4.1c2.2,0.2,4.1,0.5,6.2,0.8c2,0.3,4,0.7,6,1.1c4,0.8,7.9,1.8,11.7,3
		c7.7,2.4,15.3,5.4,22.4,9.3c7.1,3.9,13.9,8.8,19.6,14.7c5.8,5.9,10.5,12.9,13.7,20.5c1.6,3.8,2.9,7.8,3.7,11.8c0.4,2,0.8,4,1.1,5.9
		l1,5.8c1.3,7.8,2.6,15.6,3.6,23.4c1,7.8,1.9,15.7,2.5,23.6c0.3,3.9,0.6,7.9,0.7,11.9c0.1,2,0.1,4,0.1,6s0,3.9-0.1,6.1l-0.1,2.5
		h-2.5l-119-1.2l-59.5-0.7L148,937.1z"/>
</g>
<g>
	<path class="st1" d="M787,822.9c-0.2-4.7-0.5-9.4-1-14.1c-0.1-1.2-0.2-2.4-0.4-3.5l-0.5-3.5c-0.3-2.3-0.6-4.7-1-7
		c-1.7-9.3-2.8-18.7-3.4-28.2c-0.1-1.2-0.1-2.4-0.1-3.5l-0.1-3.6c0-2.4-0.1-4.7-0.1-7.1l0.3-7.1c0.1-2.4,0.2-4.7,0.4-7.1
		c0.4-4.7,0.9-9.4,1.7-14.1c0.8-4.7,1.8-9.3,3.2-13.8c-2.3,9.2-3.5,18.6-4.1,28c-0.3,4.7-0.4,9.4-0.6,14.1c-0.1,2.4,0.1,4.7,0.1,7.1
		l0.1,3.5v1.8c0,0.6,0.1,1.2,0.1,1.8c0.5,9.4,1.6,18.8,3.2,28.1c0.3,2.3,0.5,4.7,0.8,7.1l0.4,3.5c0.1,1.2,0.2,2.4,0.3,3.5
		C786.8,813.5,787,818.2,787,822.9z"/>
</g>
<path class="st1" d="M789,822.9c0-4.5-0.2-8.9-0.5-13.4s-0.7-8.9-1.4-13.3c-0.7-4.4-1.7-8.8-2.5-13.2c-0.7-4.4-1.3-8.9-1.7-13.3
	c-0.4-4.5-0.3-9-0.1-13.4c0.1-2.2,0.3-4.5,0.5-6.7s0.3-4.5,0.5-6.7l0.8-6.7c0.1-1.1,0.2-2.2,0.4-3.3l0.6-3.3
	c0.8-4.4,1.4-8.8,2.4-13.2s2.6-8.6,4.5-12.7c1.9-4.1,4.1-8,6.6-11.8c2.5-3.7,5.3-7.3,8.5-10.4c1.6-1.6,3.3-3.1,5.1-4.4
	c1.8-1.3,3.7-2.6,5.7-3.6c8-4.3,16.8-6.5,25.6-8s17.8-2.5,26.7-3c4.5-0.3,9-0.4,13.4-0.5h13.4c9,0,17.9,0,26.9,0.1l53.7,0.5l6.7,0.1
	h3.4h3.4l13.4-0.2l26.9-0.3c17.9-0.1,35.8,0.1,53.7,0.2c-17.9,0-35.8,0.1-53.7,0.3l-26.8,0.3l-13.4,0.2l-3.4,0.1h-3.4h-6.7
	l-53.7-0.3c-9-0.1-17.9,0-26.8,0h-13.4c-4.5,0.1-8.9,0.3-13.4,0.5c-8.9,0.5-17.8,1.4-26.6,2.9s-17.5,3.7-25.4,7.9
	c-7.9,4.1-14.2,10.8-19.2,18.1c-2.5,3.7-4.7,7.6-6.6,11.6c-1.9,4-3.5,8.2-4.5,12.6c-1,4.3-1.6,8.8-2.4,13.2l-0.6,3.3
	c-0.2,1.1-0.3,2.2-0.4,3.3l-0.8,6.7c-0.2,2.2-0.4,4.5-0.5,6.7c-0.2,2.2-0.4,4.5-0.5,6.7c-0.2,4.5-0.3,8.9,0.1,13.4
	c0.3,4.5,0.9,8.9,1.6,13.3c0.7,4.4,1.6,8.8,2.3,13.2s1.1,8.9,1.3,13.4C788.8,813.9,789,818.4,789,822.9z"/>
<path class="st1" d="M1085.5,697c-22.5,0.5-44.9,1.1-67.4,1.1c-11.2,0-22.5,0-33.7-0.2s-22.5-0.5-33.7-0.8s-22.5-0.4-33.7,0.2
	c-5.6,0.4-11.2,0.9-16.7,1.7c-2.8,0.4-5.5,0.8-8.3,1.3l-4.1,0.7c-1.4,0.3-2.7,0.5-4.1,0.8c-5.5,1.2-10.9,2.5-16.2,4.2
	c-2.6,0.9-5.3,1.7-7.9,2.9c-2.6,1.1-5.1,2.3-7.5,3.7c-4.8,2.8-9.2,6.4-12.6,10.8c-3.4,4.4-5.8,9.5-7.4,14.9c0,0,0,0,0,0.1
	c-2.9,5.6-4,12-4.5,18.3s-0.5,12.7,0.5,19c0.9,6.3,2.9,12.4,5.2,18.3c1.3,2.9,3.1,5.5,5.2,7.8c2.1,2.3,4.6,4.3,7.2,6.1l0,0
	c4,3.2,8.6,5.6,13.4,7.3c4.8,1.9,9.8,3.1,14.8,4.2c10.1,2,20.4,3,30.6,3.5c-10.3-0.4-20.6-1.3-30.7-3.2c-5-1-10.1-2.2-14.9-4.1
	c-4.9-1.7-9.5-4.1-13.6-7.3l0,0c-2.6-1.8-5.2-3.8-7.3-6.2c-2.2-2.3-4-5-5.3-8c-2.3-6-4.3-12-5.3-18.4c-1-6.3-1.1-12.8-0.6-19.1
	s1.6-12.8,4.5-18.6v0.1c1.6-5.4,4-10.7,7.4-15.2s7.9-8.2,12.8-11c2.4-1.4,5-2.7,7.6-3.7c2.6-1.1,5.3-2,7.9-2.9
	c5.4-1.8,10.8-3.1,16.3-4.3c1.4-0.3,2.8-0.6,4.1-0.8l4.2-0.7c2.8-0.5,5.6-0.9,8.3-1.3c5.6-0.7,11.2-1.3,16.8-1.6
	c11.2-0.6,22.5-0.4,33.7-0.1c11.2,0.3,22.5,0.7,33.7,0.9s22.5,0.3,33.7,0.3C1040.6,697.6,1063,697.4,1085.5,697z"/>
<path class="st1" d="M1085.5,713.4c-31,1.8-62.1,3.3-93.3,2.4c-7.8-0.2-15.5-0.7-23.3-1.3s-15.5-1.3-23.3-1.3s-15.5,1.1-23,2.8
	c-7.6,1.7-15,3.9-22.3,6.7c-3.6,1.4-7.2,2.9-10.4,5c-3.3,2-6.2,4.6-8,8c-1.9,3.3-2.7,7.2-3.1,11c-0.5,3.8-0.6,7.7-0.6,11.6
	c0,3.9-0.1,7.8,0.1,11.6c0.2,3.9,0.7,7.7,1.8,11.4c2.2,7.4,6.7,14,12.2,19.4c5.6,5.4,12.4,9.4,19.5,12.2c7.2,2.9,14.8,4.8,22.4,6.3
	c15.3,2.8,30.9,3.7,46.4,3.8c-15.5,0-31.1-0.6-46.5-3.3c-7.7-1.4-15.3-3.3-22.5-6.2s-14.1-6.9-19.8-12.3
	c-5.6-5.4-10.2-12.1-12.4-19.6c-1.1-3.8-1.7-7.7-1.8-11.6c-0.2-3.9-0.1-7.8-0.1-11.7s0.1-7.8,0.6-11.7s1.3-7.8,3.2-11.3
	s5-6.3,8.3-8.4c3.3-2.1,7-3.6,10.6-5.1c7.3-2.8,14.8-4.9,22.4-6.6c7.6-1.7,15.4-2.8,23.2-2.7c7.8,0,15.6,0.8,23.3,1.4
	c7.7,0.6,15.5,1.1,23.3,1.4c15.5,0.5,31.1,0.3,46.6-0.1C1054.4,714.8,1070,714.1,1085.5,713.4z"/>
<path class="st1" d="M1085.5,680.6l-48.6-0.2l-48.6-0.3c-16.2-0.1-32.4-0.3-48.6-0.1c-16.2,0.3-32.3,1.2-48.4,3
	c-16,1.7-32.2,4.5-47,11c-7.4,3.2-14.4,7.3-20.6,12.5c-3.1,2.6-5.9,5.5-8.3,8.7c-1.2,1.6-2.3,3.3-3.3,5c-1,1.8-1.8,3.6-2.6,5.5
	c-3,7.5-4.3,15.6-5,23.6s-0.9,16.2,0,24.2c0.8,8,2.6,16,5.1,23.7c1.3,3.8,2.4,7.8,5,11c2.5,3.2,26.8,15,26.8,15
	s-24.4-11.7-26.9-14.9c-2.6-3.2-3.7-7.2-5.1-11c-2.6-7.7-4.5-15.6-5.3-23.7c-0.9-8.1-0.8-16.2-0.1-24.3s2-16.2,5-23.8
	c0.8-1.9,1.6-3.7,2.6-5.5s2.1-3.5,3.3-5.1c2.4-3.3,5.3-6.2,8.4-8.8c6.2-5.3,13.3-9.4,20.8-12.7c7.4-3.3,15.3-5.7,23.2-7.4
	s16-2.9,24-3.8c16.1-1.8,32.3-2.7,48.5-2.9c16.2-0.1,32.4,0.1,48.6,0.3l48.6,0.5L1085.5,680.6z"/>
<path class="st1" d="M1085.5,672c-8.5,0.2-17.1,0-25.6-0.1c-4.3-0.1-8.5-0.1-12.8,0l-12.8,0.1c-17.1,0.1-34.2,0.5-51.3,0.6
	l-25.7-0.2l-12.8-0.1c-4.3,0-8.5-0.1-12.8,0.1l-6.4,0.1c-2.1,0-4.3,0.1-6.4,0.2l-6.4,0.4l-6.4,0.5l-25.6,2c-8.5,0.7-17,1.3-25.3,3.3
	c-4.1,1-8.2,2.2-12.3,3.5s-8.1,2.7-12,4.4s-7.6,3.7-11,6.3s-6.5,5.5-9.3,8.7c-5.7,6.3-10.4,13.7-12.8,21.8c-1.3,4.1-2,8.3-2.6,12.5
	s-1,8.5-1.3,12.7c-0.5,8.5-0.6,17.1,0,25.6c0.2,2.1,0.4,4.2,0.8,6.3l1,6.3c0.3,2.1,0.6,4.2,1,6.3s0.9,4.2,1.5,6.2
	c2.4,8.2,6.4,15.9,10.6,23.3c-4.3-7.4-8.3-15-10.8-23.2c-0.6-2-1.1-4.1-1.5-6.2c-0.4-2.1-0.7-4.2-1.1-6.3l-1.1-6.3
	c-0.4-2.1-0.7-4.2-0.9-6.4c-0.7-8.5-0.6-17.1-0.1-25.7c0.3-4.3,0.7-8.5,1.3-12.8c0.6-4.2,1.3-8.5,2.6-12.6
	c2.5-8.3,7.2-15.7,12.9-22.1c2.8-3.2,5.9-6.2,9.4-8.8c3.4-2.6,7.2-4.7,11.2-6.5c3.9-1.7,8-3.1,12-4.5c4.1-1.4,8.2-2.6,12.3-3.6
	c8.4-2,17-2.7,25.5-3.4l25.6-1.9l6.4-0.5l6.4-0.4c2.1-0.1,4.3-0.2,6.4-0.2l6.4-0.1c4.3-0.1,8.6-0.1,12.8,0l12.8,0.1l25.6,0.3
	c17.1,0,34.2-0.4,51.3-0.4h12.8c4.3,0,8.6,0,12.8,0.2C1068.4,671.8,1076.9,672.1,1085.5,672z"/>
<path class="st1" d="M803.2,822.9c-2.2-3.7-4-7.7-5.4-11.8c-1.5-4.1-2.3-8.4-3.4-12.6c-2.2-8.4-3.2-17.1-4-25.7
	c-0.2-2.2-0.3-4.3-0.4-6.5c-0.1-2.2-0.2-4.3-0.2-6.5c0-4.3,0.1-8.7,0.3-13c0.5-8.7,1.4-17.4,3.7-25.8c2.3-8.4,6.8-16.2,12.3-22.9
	c1.4-1.7,2.9-3.3,4.4-4.8c1.5-1.6,3.1-3.1,4.8-4.5c3.4-2.7,7.3-4.9,11.3-6.7c2-0.9,4-1.7,6.1-2.4l6.2-2.1c4.1-1.4,8.3-2.6,12.5-3.6
	s8.5-1.8,12.8-2.4c4.3-0.5,8.7-0.9,13-1.2c8.7-0.5,17.3-0.9,26-1.4c8.7-0.4,17.3-0.9,26-1.1l52.1,0.4c8.7,0.1,17.3,0,26-0.1l26-0.2
	h6.5l6.5,0.1l13,0.2c8.7,0.1,17.3,0.1,26,0.2c-8.7,0-17.4,0.1-26,0.1h-13h-6.5l-6.5,0.1l-26,0.3c-8.7,0.1-17.4,0.2-26,0.2l-52-0.3
	c-8.7,0.2-17.3,0.7-26,1.1c-8.7,0.5-17.3,0.9-26,1.5c-4.3,0.3-8.6,0.6-12.9,1.1c-4.3,0.5-8.5,1.3-12.7,2.3s-8.4,2.2-12.5,3.5
	l-6.2,2.1c-2,0.7-4.1,1.5-6,2.4c-4,1.7-7.7,3.8-11.1,6.5c-1.7,1.3-3.3,2.8-4.7,4.4c-1.6,1.5-3,3.1-4.4,4.7
	c-5.5,6.6-9.9,14.2-12.3,22.6c-2.3,8.3-3.2,17-3.8,25.6c-0.3,4.3-0.4,8.7-0.4,13c0,2.2,0.1,4.3,0.2,6.5c0.1,2.2,0.2,4.3,0.4,6.5
	c0.8,8.6,1.7,17.3,3.8,25.7c1,4.2,1.8,8.5,3.2,12.6C799.2,815.2,801,819.2,803.2,822.9z"/>
<path class="st1" d="M1085.5,665.3c-4.4,0.1-8.8,0.2-13.2,0.2l-6.6,0.1h-6.6h-26.5l-52.9,0.3h-26.5c-4.4,0-8.8-0.1-13.2-0.2
	l-6.6-0.1c-2.2,0-4.4,0-6.6,0.1c-17.6,0.5-35.3,1.1-52.9,1.8c-8.8,0.4-17.5,1.5-26.1,3.5c-4.3,1-8.5,2.2-12.7,3.6
	c-4.2,1.4-8.3,2.9-12.3,4.8c-4,1.9-7.7,4.1-11.2,6.8s-6.5,5.8-9.2,9.3s-4.9,7.3-6.8,11.2c-1.9,4-3.4,8.1-4.4,12.4
	c-2.1,8.5-3.1,17.3-3.7,26.1c-0.3,4.4-0.4,8.8-0.4,13.2c-0.1,4.4,0,8.8,0.3,13.2c0.1,2.2,0.4,4.4,0.6,6.6c0.3,2.2,0.4,4.4,0.7,6.6
	c0.6,4.4,1.3,8.7,1.9,13.1c0.6,4.4,1.1,8.8,2.1,13c1,4.3,2.6,8.5,4.8,12.3c-2.2-3.8-3.8-8-4.9-12.2c-1.1-4.3-1.6-8.7-2.2-13
	c-0.6-4.4-1.3-8.7-2-13.1c-0.3-2.2-0.5-4.4-0.8-6.6c-0.3-2.2-0.5-4.4-0.7-6.6c-0.3-4.4-0.5-8.8-0.4-13.2c0-4.4,0.1-8.8,0.3-13.2
	c0.5-8.8,1.5-17.6,3.6-26.2c1-4.3,2.6-8.5,4.4-12.5c1.9-4,4.1-7.9,6.8-11.4s5.8-6.7,9.3-9.5s7.3-5,11.3-7c4-1.9,8.2-3.5,12.3-4.9
	c4.2-1.4,8.4-2.6,12.8-3.6c8.6-2,17.4-3.1,26.3-3.6c17.6-0.7,35.3-1.2,52.9-1.6c2.2-0.1,4.4,0,6.6,0l6.6,0.2
	c4.4,0.1,8.8,0.2,13.2,0.2l26.5,0.1l52.9-0.1l26.5,0.2l6.6,0.1h6.6C1076.7,665.4,1081.1,665.3,1085.5,665.3z"/>
<g>
	<path class="st1" d="M784.8,828.7c1.1-0.7,2.3-0.9,3.6-1.2c1.2-0.3,2.5-0.4,3.7-0.6c2.5-0.3,5-0.5,7.5-0.7s5-0.3,7.5-0.3l7.5-0.4
		c1.3-0.1,2.5-0.2,3.8-0.2h3.8h7.5l7.5,0.2l3.8,0.1h3.8h15c5,0.1,10,0.1,15.1,0.3l15,0.4c2.5,0.1,5,0.1,7.5,0.2
		c2.5,0.2,5.1,0.1,7.5,0.9c-1.2-0.4-2.5-0.5-3.7-0.5l-3.8-0.1c-2.5,0-5,0-7.5,0l-15.1-0.1l-15-0.1h-15.1h-3.8l-3.8-0.1l-7.5-0.3
		l-7.5-0.1h-3.8c-1.3,0-2.5,0.1-3.8,0.1l-7.5,0.3c-2.5,0-5,0.1-7.5,0.2c-2.5,0.1-5,0.2-7.5,0.5c-1.2,0.1-2.5,0.3-3.7,0.5
		C787.1,827.9,785.9,828.1,784.8,828.7z"/>
</g>
<g>
	<path class="st1" d="M784.9,825.9c0.4-0.5,1.1-0.7,1.7-0.8c0.6-0.2,1.3-0.2,1.9-0.3c1.3-0.2,2.6-0.2,3.8-0.3
		c2.6-0.1,5.1-0.2,7.7-0.3l7.7-0.2c1.3,0,2.6-0.1,3.8-0.1h3.8c5.1,0,10.2,0.1,15.3,0.2l7.7,0.2c2.6,0,5.1-0.1,7.7-0.2
		c5.1-0.2,10.2,0,15.3,0c5.1,0.1,10.2,0,15.3,0h15.3h7.7c2.6,0,5.2,0.1,7.6,0.9c-2.5-0.7-5.1-0.7-7.6-0.6l-7.7,0.2l-15.3,0.3
		c-5.1,0.1-10.2,0.1-15.3,0.1s-10.2-0.1-15.3,0.1c-2.6,0-5.1,0.1-7.7,0.1l-7.7-0.2c-5.1-0.2-10.2-0.2-15.3-0.3l-3.8-0.1
		c-1.3,0-2.6,0-3.8,0l-7.7,0.1c-2.6,0-5.1,0-7.7,0c-1.3,0-2.6,0.1-3.8,0.2c-0.6,0.1-1.3,0.1-1.9,0.2
		C786,825.3,785.3,825.4,784.9,825.9z"/>
</g>
<path class="st1" d="M1085.5,757.7c-8,0.7-16.1,1.4-24.1,2.1l-24.1,1.8c-4,0.3-8,0.7-12,1.2c-4,0.6-7.9,1.3-11.6,3
	c-1.8,0.8-3.5,1.9-4.9,3.3c-1.4,1.4-2.5,3-3.3,4.8s-1.4,3.7-1.8,5.7c-0.4,1.9-0.7,3.9-0.7,5.9c0,3.9,1.7,7.7,4.3,10.7
	c2.5,3.1,5.8,5.5,9.1,7.6c3.4,2.1,7,4,10.6,5.6c3.7,1.7,7.4,3.1,11.2,4.5c7.6,2.7,15.4,4.9,23.3,6.4c7.9,1.6,15.9,2.5,24,2.6
	c-8.1,0-16.1-0.8-24.1-2.2s-15.8-3.5-23.4-6.1c-1.9-0.6-3.8-1.4-5.7-2.1c-1.9-0.8-3.8-1.5-5.6-2.4c-3.7-1.7-7.3-3.5-10.8-5.6
	c-3.4-2.2-6.8-4.6-9.4-7.8c-2.7-3.1-4.5-7.1-4.5-11.3c0-2.1,0.3-4.1,0.7-6.1c0.5-2,1-4,1.9-5.8c0.9-1.9,2-3.6,3.5-5.1
	s3.3-2.6,5.1-3.4c3.8-1.7,7.8-2.4,11.8-3c4-0.5,8-0.9,12.1-1.1C1053.3,759.7,1069.4,758.9,1085.5,757.7z"/>
<g>
	<path class="st1" d="M778.9,844.8c10.2-4,20.8-7.3,31.7-8.9c5.5-0.8,11-1.1,16.5-0.9c5.5,0.2,11,0.3,16.5,0.5c11,0.3,22-0.3,33,0.3
		c2.8,0.1,5.5,0.3,8.2,0.6s5.5,0.6,8.2,1.3s5.3,1.7,7.7,3.1c2.4,1.4,4.6,3.1,6.6,4.9c-2.1-1.7-4.4-3.3-6.8-4.7
		c-2.4-1.3-5-2.3-7.6-2.9c-2.7-0.6-5.4-0.9-8.1-1.1c-2.7-0.2-5.5-0.4-8.2-0.5c-11-0.4-22,0.2-33-0.1c-11-0.2-22-1.4-32.9,0.2
		c-5.4,0.7-10.8,1.9-16.1,3.3C789.3,841.3,784.1,843,778.9,844.8z"/>
</g>
<g>
	<path class="st1" d="M779.9,843.5c4.9-2.3,10-4.3,15.3-5.8c5.2-1.5,10.6-2.7,16-3.3s10.9-0.9,16.4-0.7s10.9,0.6,16.3,0.6
		c5.4,0,10.9-0.2,16.3-0.3c5.4-0.1,10.9-0.2,16.3,0c2.7,0.1,5.5,0.3,8.2,0.6s5.4,0.7,8.1,1.5c2.6,0.8,5.2,1.9,7.5,3.3
		c2.3,1.4,4.4,3.2,6.4,5.1c-2-1.8-4.2-3.5-6.5-4.9s-4.9-2.4-7.5-3.1c-5.2-1.4-10.7-1.6-16.1-1.8c-5.4-0.1-10.9,0-16.3,0.1
		c-5.4,0.1-10.9,0.3-16.3,0.3c-5.5-0.1-10.9-0.5-16.3-0.7c-5.4-0.3-10.8,0-16.2,0.5C800.4,836.1,789.9,839.2,779.9,843.5z"/>
</g>
<g>
	<path class="st1" d="M777.1,846.7c10.5-4,21.2-7.8,32.4-9.5c5.6-0.8,11.3-1.1,16.9-0.9c5.6,0.3,11.2,0.4,16.8,0.5
		c11.2,0.5,22.5-0.4,33.7,0.1c2.8,0.1,5.6,0.3,8.4,0.5c2.8,0.3,5.6,0.6,8.4,1.3c5.5,1.4,10.3,4.6,14.8,8c-2.3-1.6-4.6-3.2-7.1-4.5
		s-5.1-2.4-7.8-3s-5.5-0.9-8.3-1.2c-2.8-0.2-5.6-0.3-8.4-0.4c-2.8-0.1-5.6-0.1-8.4-0.1l-8.4,0.1l-8.4,0.1h-2.1l-2.1-0.1l-4.2-0.1
		c-5.6-0.2-11.3-0.3-16.9-0.6c-5.6-0.3-11.2,0-16.8,0.7s-11,2-16.4,3.6C787.7,843,782.4,844.8,777.1,846.7z"/>
</g>
<g>
	<path class="st1" d="M775.2,848.2c10.8-4.1,21.7-8,33.1-10c5.7-1,11.5-1.3,17.3-1c2.9,0.1,5.8,0.3,8.7,0.4l8.6,0.2
		c11.5,0.6,23.1-0.3,34.6,0.3c2.9,0.1,5.8,0.3,8.7,0.6s5.8,0.6,8.6,1.4c2.8,0.8,5.5,2.1,7.9,3.6c2.5,1.5,4.8,3.2,7.1,4.9
		c-2.4-1.7-4.7-3.3-7.2-4.7s-5.1-2.6-7.9-3.3c-2.8-0.7-5.6-1-8.5-1.2s-5.7-0.3-8.6-0.4c-2.9-0.1-5.8-0.1-8.6-0.1l-8.7,0.1l-8.7,0.1
		l-8.7-0.2l-8.7-0.2c-2.9-0.1-5.8-0.3-8.6-0.4c-5.7-0.3-11.5,0.1-17.2,0.9c-5.7,0.9-11.3,2.3-16.8,3.9
		C786.1,844.5,780.7,846.3,775.2,848.2z"/>
</g>
<g>
	<path class="st1" d="M773.6,849.2c5.5-2.1,11-4.1,16.6-6c5.6-1.8,11.3-3.4,17.1-4.5s11.8-1.4,17.7-1.2c3,0.1,5.9,0.3,8.8,0.4
		l8.8,0.2l8.8,0.2c2.9,0.1,5.9,0,8.8,0l8.8-0.1c2.9,0,5.9,0.1,8.8,0.2c2.9,0.1,5.9,0.3,8.8,0.6c2.9,0.3,5.9,0.6,8.8,1.4
		c2.9,0.8,5.5,2.2,8,3.8c2.5,1.5,4.9,3.3,7.2,5.1c-2.4-1.7-4.8-3.4-7.4-4.8c-2.5-1.5-5.2-2.8-8-3.5c-2.8-0.8-5.8-1-8.7-1.2
		s-5.9-0.4-8.8-0.4c-2.9-0.1-5.9-0.1-8.8-0.1l-8.8,0.1c-2.9,0-5.9,0.1-8.8,0.1l-8.8-0.2l-8.8-0.2c-2.9-0.1-5.9-0.3-8.8-0.4
		c-5.9-0.2-11.7,0.1-17.5,1.1s-11.5,2.5-17.1,4.2C784.7,845.4,779.1,847.3,773.6,849.2z"/>
</g>
<g>
	<path class="st1" d="M770.8,850.7c5.7-2.2,11.4-4.3,17.1-6.2c5.8-1.9,11.6-3.7,17.6-4.9c6-1.3,12.1-1.7,18.2-1.6
		c3,0.1,6.1,0.3,9.1,0.4c3,0.2,6.1,0.2,9.1,0.3c6.1,0.2,12.1,0.1,18.2,0.1h9.1c3,0,6.1,0.1,9.1,0.3c3,0.1,6.1,0.3,9.1,0.6
		s6.1,0.6,9,1.5c2.9,1,5.6,2.5,8.2,4.1c2.6,1.6,5,3.5,7.4,5.3c-2.5-1.8-5-3.5-7.6-5.1s-5.3-3-8.2-3.9s-5.9-1.1-8.9-1.4
		c-3-0.2-6.1-0.4-9.1-0.5s-6.1-0.2-9.1-0.2l-9.1,0.1c-6.1,0.1-12.1,0.1-18.2,0c-3-0.1-6.1-0.2-9.1-0.4s-6.1-0.4-9.1-0.4
		c-6-0.2-12.1,0.3-18,1.4c-5.9,1.2-11.8,2.8-17.6,4.7C782.3,846.7,776.6,848.7,770.8,850.7z"/>
</g>
<g>
	<path class="st1" d="M676.6,926.8c2-4.8,4.1-9.4,6.6-13.9s5.5-8.7,9-12.5c7.1-7.4,14.4-14.7,22.9-20.7c4.2-3,8.6-5.7,13-8.4
		s8.9-5.2,13.5-7.4s9.4-4.2,14.3-5.9c4.9-1.7,9.8-3.1,14.4-5.3l0,0c6.1-2.1,12.2-4.3,18.4-6.1c6.2-1.9,12.4-3.5,18.8-4.6
		c6.4-1.1,12.9-1.2,19.4-0.9c6.4,0.3,12.9,0.5,19.3,0.4c6.4,0,12.9-0.3,19.3-0.2c6.5,0.1,12.9,0.4,19.3,1.3c3.2,0.5,6.4,1.1,9.5,2.1
		s6,2.5,8.9,3.9c5.8,2.9,11.6,5.5,17.6,8c-6-2.4-11.9-4.9-17.7-7.7c-2.9-1.4-5.8-2.8-8.9-3.8c-3.1-1-6.2-1.5-9.4-2
		c-6.4-0.9-12.8-1.1-19.3-1.2c-6.4,0-12.9,0.3-19.3,0.3c-6.4,0.1-12.9,0-19.4-0.3c-6.4-0.3-12.9-0.1-19.2,1s-12.5,2.8-18.7,4.6
		c-6.2,1.9-12.3,3.9-18.3,6.1l0,0c-4.7,2.2-9.7,3.7-14.5,5.3s-9.6,3.6-14.2,5.8c-4.6,2.2-9.1,4.7-13.5,7.3c-4.4,2.7-8.8,5.3-13,8.3
		c-8.4,5.9-15.7,13.2-22.9,20.5c-3.6,3.7-6.6,7.8-9.2,12.3C680.9,917.4,678.7,922.1,676.6,926.8z"/>
</g>
<g>
	<path class="st1" d="M698.3,926.8c6.2-11,13.5-21.6,22.9-30.2c4.7-4.3,9.8-8.2,15.3-11.3c2.8-1.6,5.6-3,8.5-4.3
		c2.9-1.4,5.7-2.7,8.7-4c5.8-2.5,11.8-4.7,17.9-6.4c6.1-1.7,12.4-3,18.6-4c12.5-2,25.3-2.9,38-2.9c12.7,0.1,25.4,0.9,38,2
		c12.6,1.2,25.3,2.9,37.4,7c6,2,11.9,4.5,17.6,7.3c2.8,1.4,5.7,2.9,8.4,4.5s5.4,3.5,7.5,5.9s3.5,5.4,4.5,8.4c1.1,3,1.8,6.1,2.7,9.1
		s1.9,6.1,2.1,9.3c0.2,3.2-0.1,6.3-0.3,9.5c0.1-3.2,0.4-6.3,0.1-9.5c-0.2-3.2-1.3-6.2-2.2-9.2s-1.7-6.1-2.8-9.1s-2.5-5.9-4.5-8.2
		c-2.1-2.4-4.7-4.2-7.4-5.8s-5.5-3.1-8.4-4.5c-5.7-2.8-11.6-5.2-17.5-7.2c-12-4.1-24.7-5.6-37.2-6.8c-12.6-1.1-25.3-1.8-37.9-1.9
		c-12.7-0.1-25.3,0.8-37.8,2.7c-6.3,1-12.5,2.2-18.6,3.9s-12.1,3.8-17.9,6.3c-2.9,1.2-5.8,2.6-8.6,3.9c-2.9,1.4-5.7,2.8-8.5,4.3
		c-5.5,3.1-10.6,6.9-15.3,11.1C712.1,905.4,704.7,915.9,698.3,926.8z"/>
</g>
<g>
	<path class="st1" d="M718.7,926.8c2.8-4.3,5.7-8.4,8.9-12.4c3.2-3.9,6.8-7.6,10.8-10.8s8.4-5.8,13-8.1c4.5-2.3,9.1-4.6,13.8-6.6
		c9.3-4.1,19.3-6.7,29.5-7.9c10.1-1.2,20.3-1.2,30.5-1c10.2,0.4,20.3,1.2,30.4,2.4c10.1,1.2,20.2,2.7,30,5.3
		c4.9,1.3,9.8,2.9,14.5,4.8c4.7,1.9,9.5,3.8,13.6,7c4.1,3.1,7.1,7.5,8.8,12.3c1.8,4.8,2.6,9.9,3,14.9c-0.5-5-1.4-10.1-3.2-14.8
		s-4.8-9-8.9-12c-4.1-3-8.8-4.9-13.5-6.8c-4.7-1.8-9.6-3.4-14.5-4.6c-9.8-2.5-19.9-4-30-5.2s-20.2-1.9-30.3-2.3
		c-10.1-0.3-20.3-0.3-30.4,0.9c-5,0.6-10,1.5-14.9,2.8s-9.7,2.9-14.4,4.9c-4.7,1.9-9.2,4.2-13.8,6.4c-4.5,2.3-9,4.7-12.9,7.9
		c-4,3.1-7.6,6.7-10.9,10.6C724.5,918.5,721.5,922.6,718.7,926.8z"/>
</g>
<g>
	<path class="st1" d="M782.7,837.6c-0.9,3-2.4,5.9-4.6,8.2c-2.2,2.3-5,4-7.8,5.4c-2.9,1.3-5.9,2.3-8.9,3.3s-6.1,1.9-9.1,2.8
		c-6.1,1.8-12.2,3.5-18.1,5.7c-5.9,2.2-11.6,5-17,8.2c-5.5,3.1-10.9,6.5-16,10.2s-9.8,7.9-14,12.6c-2.1,2.4-4,4.9-5.9,7.4
		c-1.8,2.6-3.6,5.2-5.2,7.9c-3.2,5.4-5.6,11.4-7.4,17.4c1.6-6.1,3.9-12.1,7-17.7c1.6-2.8,3.3-5.4,5.1-8s3.8-5.1,5.8-7.6
		c4.1-4.9,8.9-9.1,14.1-12.9c5.1-3.8,10.5-7.1,16-10.3s11.2-6,17.2-8.2s12.1-3.9,18.2-5.6c3-0.9,6.1-1.7,9.1-2.6
		c3-0.9,6-1.9,8.9-3.1c2.9-1.2,5.7-2.8,7.9-5.1C780.2,843.4,781.7,840.6,782.7,837.6z"/>
</g>
<g>
	<path class="st1" d="M754.6,926.8c4.8-4.9,9.6-9.7,14.9-14.1c2.7-2.1,5.5-4.2,8.4-5.9c3-1.7,6.2-3.1,9.5-4s6.8-1.4,10.2-1.6
		c3.4-0.2,6.9-0.2,10.3-0.1c6.9,0.3,13.7,0.9,20.5,1.8c6.8,0.8,13.6,1.9,20.3,2.8c6.8,1,13.6,1.7,20.4,2.5c3.4,0.4,6.8,0.9,10.2,1.6
		c3.4,0.7,6.7,1.8,9.8,3.2c3.1,1.5,6.1,3.3,8.7,5.5c2.6,2.3,4.7,5,6.2,8.2c-1.5-3.1-3.7-5.8-6.3-8s-5.6-3.9-8.7-5.3
		c-3.1-1.4-6.4-2.4-9.7-3.1c-3.3-0.7-6.7-1.1-10.1-1.5c-6.8-0.7-13.6-1.4-20.4-2.4c-6.8-0.9-13.6-1.9-20.3-2.7
		c-6.8-0.8-13.6-1.6-20.4-1.8c-6.8-0.2-13.7-0.2-20.3,1.4c-3.3,0.8-6.4,2.1-9.4,3.8s-5.8,3.6-8.4,5.7
		C764.5,917.3,759.5,922,754.6,926.8z"/>
</g>
<g>
	<path class="st1" d="M655.9,926.8c1.1-6.8,2.3-13.7,4.8-20.2c1.2-3.3,2.8-6.4,4.5-9.4c1.7-3.1,3.6-5.9,5.8-8.7
		c2.2-2.7,4.6-5.3,7.1-7.6c1.3-1.2,2.7-2.2,4-3.4l4-3.3c2.7-2.1,5.6-4.1,8.4-6.2c2.8-2.1,5.7-4,8.7-5.8c1.5-0.9,3-1.7,4.6-2.5
		l4.7-2.4c3.1-1.6,6.3-3,9.6-4.1l5-1.5c1.7-0.5,3.3-1,5-1.4c3.4-0.8,6.8-1.6,10.2-2.1l10.3-1.4l10.3-1.3l5.1-0.7
		c1.7-0.2,3.4-0.5,5.1-0.9c1.7-0.4,3.3-1.1,4.8-1.9c0.8-0.4,1.6-0.7,2.2-1.3c0.7-0.6,1.2-1.3,1.7-2c-0.5,0.7-1,1.4-1.7,2
		c-0.6,0.6-1.4,1-2.2,1.4c-1.5,0.8-3.1,1.5-4.8,2s-3.4,0.8-5.1,1l-5.1,0.8c-3.4,0.5-6.9,1-10.3,1.5l-10.3,1.6
		c-1.7,0.2-3.4,0.6-5.1,0.9c-1.7,0.4-3.4,0.8-5,1.2c-1.7,0.4-3.3,0.9-5,1.4l-4.9,1.5c-3.2,1.2-6.4,2.5-9.5,4.1l-4.6,2.4
		c-1.5,0.8-3.1,1.6-4.6,2.5c-3,1.7-5.9,3.6-8.6,5.7c-2.8,2-5.6,4-8.4,6.1l-4,3.3c-1.3,1.1-2.7,2.1-4,3.3c-2.5,2.3-4.9,4.8-7.1,7.5
		c-2.2,2.7-4.2,5.5-5.9,8.5s-3.3,6.1-4.6,9.3C658.6,913.2,657.2,920,655.9,926.8z"/>
</g>
<g>
	<path class="st1" d="M960.7,926.8c0.5-7.3,1-14.7,0-22c-0.8-7.3-4.2-14.2-9-19.7c-2.4-2.8-5.1-5.2-8-7.6c-2.8-2.3-5.8-4.5-8.8-6.6
		c-6-4.2-12.5-7.8-19.1-10.9c-6.6-3.1-13.5-5.7-20.6-7.8c-7.1-2-14-4.8-21.3-5.2c-7.3-0.5-14.7,0.2-22,0c-7.4,0-14.7,0-22.1-0.2
		c-7.3-0.3-14.7-0.4-21.9,0.6s-14.3,3.1-21.4,5c-14.1,4-28.2,8.4-41.3,15.2c-6.5,3.3-12.9,7.1-19.1,11c-6.2,4-12.2,8.2-17.8,13
		c-5.6,4.7-10.6,10.2-14.9,16.1c-4.3,5.9-8.1,12.3-10.9,19.1c2.7-6.9,6.4-13.3,10.7-19.3s9.2-11.5,14.8-16.3s11.6-9.1,17.8-13.1
		s12.5-7.8,19.1-11.1c6.5-3.4,13.3-6.3,20.3-8.8c6.9-2.5,14-4.6,21.1-6.6s14.2-4.1,21.5-5.1s14.8-0.9,22.1-0.7
		c7.4,0.3,14.7,0.2,22,0.3c7.3,0.2,14.7-0.4,22.1,0.1c3.7,0.2,7.4,1.1,10.9,2.1l10.5,3.3c7,2.2,14,4.7,20.6,7.9
		c6.7,3.1,13.1,6.8,19.2,11c3,2.1,6,4.3,8.8,6.7s5.6,4.8,8,7.7c4.8,5.6,8.1,12.6,8.8,20C961.8,912.1,961.4,919.5,960.7,926.8z"/>
</g>
<g>
	<path class="st1" d="M952.9,926.8c0.5-6.9,0.8-13.9-0.2-20.8c-0.5-3.4-1.4-6.8-2.8-10c-1.4-3.2-3.2-6.1-5.3-8.9
		c-2.1-2.8-4.5-5.2-7.1-7.5c-1.3-1.2-2.7-2.2-4-3.3c-1.4-1-2.8-2-4.3-2.9c-2.9-1.9-6-3.4-9.1-5c-3.2-1.4-6.4-2.7-9.7-3.8
		c-13.1-4.5-27-6.5-40.8-7.6s-27.8-1.3-41.6-1.1c-6.9,0.1-13.9,0.3-20.8,0.7c-6.9,0.4-13.9,0.9-20.8,1.6c-6.9,0.8-13.8,1.8-20.4,3.8
		c-6.6,2-12.7,5.4-18.8,8.8c-6,3.5-11.9,7.1-17.9,10.7c-3,1.8-6,3.6-8.9,5.5s-5.7,3.9-8.4,6.1c-2.7,2.2-5.2,4.6-7.5,7.2
		c-1.1,1.3-2.3,2.6-3.4,4c-1.1,1.3-2.1,2.8-3.1,4.2c-4,5.7-7.1,11.9-9.8,18.3c2.6-6.5,5.7-12.7,9.6-18.5c1-1.4,2-2.9,3.1-4.2
		c1-1.4,2.2-2.7,3.3-4c2.3-2.6,4.8-5.1,7.5-7.3c5.3-4.5,11.3-8.1,17.3-11.7c5.9-3.6,11.8-7.3,17.9-10.8c6-3.4,12.2-6.9,18.9-8.9
		s13.6-3.1,20.5-3.9c6.9-0.8,13.9-1.3,20.8-1.7c6.9-0.4,13.9-0.7,20.9-0.8c13.9-0.2,27.8,0.1,41.7,1.3s27.8,3.3,41,7.8
		c3.3,1.1,6.5,2.5,9.7,3.9c3.1,1.5,6.2,3.1,9.2,5c1.5,0.9,2.9,2,4.3,2.9c1.4,1.1,2.8,2.1,4.1,3.3c2.6,2.3,5.1,4.8,7.2,7.6
		c2.1,2.8,3.9,5.8,5.3,9c1.3,3.2,2.2,6.6,2.7,10.1C953.9,912.9,953.5,919.9,952.9,926.8z"/>
</g>
<g>
	<path class="st1" d="M657.5,926.8c0.4-3.4,1-6.8,1.8-10.1c0.4-1.7,0.8-3.3,1.3-5c0.5-1.6,1.2-3.2,1.9-4.8c1.4-3.1,3-6.2,4.7-9.2
		s3.7-5.9,5.9-8.5c4.4-5.3,9.4-10,14.7-14.4c5.2-4.4,11-8.2,17-11.6c6-3.4,12.3-6.2,18.8-8.4c6.5-2.1,13.1-4.1,19.9-5.3
		c6.8-1.1,13.5-2.2,20.3-3.2c1.7-0.2,3.4-0.5,5.1-0.7c1.7-0.2,3.4-0.5,5-1s3.2-1.2,4.6-2.1c1.4-0.9,2.6-2.2,3.5-3.7
		c-0.9,1.5-2.1,2.8-3.5,3.8s-3,1.7-4.6,2.3s-3.3,0.9-5,1.2s-3.4,0.6-5.1,0.9c-6.7,1.1-13.5,2.3-20.2,3.5c-6.7,1.3-13.3,3.2-19.7,5.4
		c-6.5,2.2-12.7,5-18.6,8.4c-5.9,3.3-11.7,7.1-16.9,11.4c-5.3,4.3-10.2,9-14.7,14.2c-4.6,5.1-7.6,11.2-10.7,17.3
		c-0.7,1.5-1.4,3.1-2,4.7c-0.6,1.6-1,3.2-1.4,4.9C658.7,920.1,658,923.4,657.5,926.8z"/>
</g>
<g>
	<path class="st1" d="M782.7,837.6c-1.2,3.1-3.6,5.7-6.3,7.6c-2.8,1.9-5.9,3.2-9.1,4.2c-6.3,2.1-12.9,3.3-19.3,4.9
		c-12.9,3.2-25.6,7.3-37.6,12.9c-6,2.8-11.7,6.2-16.9,10.3s-9.9,8.8-14.2,13.8c-2.1,2.5-4.2,5.2-6,7.9c-1.9,2.7-3.6,5.6-5,8.6
		c-2.8,6-4.5,12.5-5.6,19c1-6.6,2.5-13.1,5.2-19.2c1.4-3.1,3-6,4.9-8.7c1.9-2.8,3.9-5.4,6-8c4.2-5.2,9-9.9,14.2-14.1
		c5.2-4.2,11-7.6,17-10.5c6-2.8,12.3-5.2,18.6-7.3s12.7-3.9,19.2-5.4s13-2.6,19.4-4.6c3.2-1,6.3-2.2,9.1-4
		C779,843.2,781.4,840.7,782.7,837.6z"/>
</g>
<g>
	<path class="st1" d="M782.7,837.6c-1.6,3-3.9,5.7-7,7.3c-3,1.6-6.5,2.3-9.8,2.9l-10.1,1.8c-3.4,0.6-6.7,1.2-10.1,1.9
		c-6.7,1.4-13.3,3.1-19.7,5.3s-12.8,4.7-18.8,7.9s-11.7,7-17,11.2c-2.7,2.1-5.3,4.3-7.7,6.7s-4.7,4.9-6.9,7.5
		c-4.3,5.3-8.1,11-10.9,17.2c-1.5,3.1-2.7,6.3-3.7,9.5c-0.5,1.6-0.9,3.3-1.2,5l-0.9,5l0.8-5.1c0.3-1.7,0.7-3.4,1.1-5
		c0.9-3.3,2.1-6.5,3.4-9.7c2.8-6.3,6.5-12.1,10.8-17.4c4.2-5.4,9.3-10.2,14.6-14.4c5.4-4.2,11-8.2,17.1-11.4s12.5-5.7,19-7.9
		s13.1-3.9,19.9-5.2c3.4-0.7,6.7-1.2,10.1-1.8l10.1-1.6c3.4-0.5,6.8-1,9.8-2.6C778.6,843.2,781,840.6,782.7,837.6z"/>
</g>
<g>
	<path class="st1" d="M903.1,834.1c0.1,2.7,0.8,5.3,2.2,7.5s3.4,4,5.5,5.6c4.1,3.3,8.8,5.9,13.5,8.2c9.5,4.8,19.2,9.1,28.1,15.1
		c8.9,5.9,16.1,14.6,19.7,24.7c1.8,5.1,2.1,10.5,1.8,15.8c-0.4,5.3-1.4,10.5-2.5,15.7c0.9-5.2,1.8-10.5,2-15.8s-0.2-10.6-2-15.6
		c-1.8-4.9-4.6-9.5-7.9-13.6c-3.3-4.1-7.3-7.6-11.7-10.5c-8.7-6-18.5-10.3-27.9-15.3c-4.7-2.4-9.4-5-13.5-8.5c-2-1.7-4-3.6-5.4-5.9
		C903.7,839.4,903,836.8,903.1,834.1z"/>
</g>
<g>
	<path class="st1" d="M903.1,834.5c0.1,1.4,0.4,2.7,1,4c0.3,0.6,0.6,1.2,1.1,1.7c0.4,0.5,1,1,1.4,1.4c2,1.9,4.3,3.4,6.7,4.7
		c4.8,2.7,9.8,4.9,14.8,7.1c5,2.2,9.9,4.7,14.9,7c5,2.2,9.8,5,14.3,8.2s8.6,6.9,12.2,11.2c3.5,4.3,6.4,9.1,7.9,14.5
		c0.4,1.3,0.7,2.7,0.9,4c0.3,1.3,0.5,2.7,0.7,4.1c0.3,2.7,0.5,5.5,0.3,8.3c-0.1,2.8-0.5,5.5-1.1,8.2c-0.5,2.7-1.2,5.4-1.9,8
		c1.1-5.4,2.3-10.7,2.4-16.2c0.1-2.7-0.1-5.5-0.5-8.1c-0.2-1.3-0.4-2.7-0.8-4c-0.3-1.4-0.6-2.7-1-4c-1.6-5.2-4.5-9.9-7.9-14.1
		c-3.5-4.2-7.6-7.8-12-10.9c-4.5-3.1-9.2-5.9-14.2-8.2l-14.8-7.1c-5-2.3-10-4.6-14.7-7.4c-2.3-1.4-4.7-3-6.6-4.9
		c-0.5-0.5-1-0.9-1.4-1.5s-0.8-1.2-1-1.8C903.4,837.2,903.2,835.9,903.1,834.5z"/>
</g>
<g>
	<path class="st1" d="M903.1,834.1c0,2.7,1,5.4,2.7,7.5s3.9,3.7,6.2,5.1c4.6,2.9,9.6,5,14.5,7.3c9.8,4.6,19.8,9,28.9,15.2
		c4.5,3.1,8.6,6.9,12,11.1c3.5,4.2,6.5,8.9,8.2,14.2c1.7,5.2,2.1,10.8,1.8,16.2c-0.4,5.4-1.4,10.8-2.7,16.1c1.1-5.3,2-10.7,2.3-16.1
		c0.2-5.4-0.2-10.9-2-16s-4.7-9.7-8.2-13.8s-7.5-7.8-11.9-10.9c-4.4-3.1-9.2-5.7-14-8.2l-3.6-1.8l-3.7-1.8l-7.3-3.5
		c-4.9-2.4-9.9-4.5-14.4-7.6c-2.3-1.5-4.5-3.2-6.1-5.4c-0.8-1.1-1.5-2.3-1.9-3.6C903.2,836.8,903.1,835.5,903.1,834.1z"/>
</g>
<g>
	<path class="st1" d="M903.1,834.1c0.1,2.6,0.6,5.2,1.8,7.5s2.9,4.3,4.7,6.1c3.6,3.8,8,6.5,12.6,9c9.1,4.9,18.7,9.2,27.5,14.9
		c4.4,2.9,8.6,6.2,11.9,10.3c1.7,2.1,3.1,4.3,4.3,6.6s2.3,4.7,3.1,7.3c0.8,2.5,1.4,5.1,1.6,7.7c0.2,2.6,0.1,5.2-0.1,7.9
		c-0.5,5.2-1.4,10.4-2.3,15.5c0.7-5.2,1.5-10.3,1.8-15.5c0.1-2.6,0.2-5.2-0.1-7.8c-0.2-2.6-0.8-5.1-1.7-7.5
		c-1.7-4.9-4.1-9.5-7.4-13.5c-3.3-4-7.4-7.2-11.7-10c-8.7-5.7-18.2-9.9-27.4-15c-4.5-2.5-9-5.4-12.6-9.3c-1.8-1.9-3.5-4-4.6-6.4
		C903.5,839.3,903.1,836.7,903.1,834.1z"/>
</g>
<g>
	<path class="st1" d="M903.1,834.9c0.3,1.4,0.6,2.7,1.3,3.9c0.3,0.6,0.7,1.2,1.3,1.6c0.5,0.4,1.1,0.8,1.7,1.2
		c1.1,0.8,2.3,1.5,3.5,2.2c1.1,0.8,2.4,1.3,3.6,2c1.2,0.6,2.5,1.3,3.7,1.8l3.8,1.7l7.6,3.4c5.1,2.3,10.1,4.6,15.1,6.9
		c1.3,0.6,2.5,1.2,3.7,1.8s2.5,1.2,3.7,1.9l3.6,2.2c1.2,0.7,2.4,1.5,3.5,2.3c4.5,3.3,8.7,7,12.2,11.3c1.8,2.1,3.4,4.5,4.6,7
		c1.3,2.5,2.4,5,3.3,7.7c0.9,2.7,1.4,5.4,1.8,8.2c0.3,2.8,0.5,5.6,0.3,8.3c-0.5,5.6-1.7,11-3.3,16.3c1.4-5.4,2.5-10.8,2.8-16.3
		c0.1-2.7-0.1-5.5-0.5-8.2s-1-5.4-1.9-8c-1.9-5.1-4.3-10.2-7.9-14.3c-3.5-4.2-7.6-7.9-12.1-11.1c-1.1-0.8-2.3-1.5-3.5-2.3l-3.5-2.2
		c-1.2-0.7-2.4-1.3-3.6-1.9c-1.2-0.6-2.4-1.3-3.7-1.8l-15-7l-7.5-3.5l-3.8-1.8c-1.2-0.6-2.5-1.3-3.7-1.9c-1.2-0.7-2.5-1.3-3.6-2.1
		c-1.2-0.8-2.3-1.5-3.4-2.4c-0.6-0.4-1.1-0.8-1.6-1.3s-0.9-1.1-1.2-1.7C903.6,837.7,903.3,836.3,903.1,834.9z"/>
</g>
<g>
	<path class="st1" d="M785,824c0.6-0.3,1.3-0.3,1.9-0.4l2-0.1c1.3-0.1,2.6-0.1,3.9-0.2l7.9-0.2l15.8-0.2h31.6l31.6,0.1l15.8,0.1
		l7.9,0.1c1.3,0,2.6,0,4,0.1l3.9,0.2c-5.3-0.2-10.5,0.1-15.8,0.1l-15.8,0.2l-31.6,0.1c-10.5,0-21.1-0.1-31.6-0.2l-15.8-0.1h-7.9
		c-1.3,0-2.6,0-3.9,0l-2,0.1C786.3,823.7,785.6,823.8,785,824z"/>
</g>
<g>
	<path class="st1" d="M785,825.1c0.5-0.5,1.2-0.5,1.8-0.6l1.9-0.2c0.6-0.1,1.3-0.2,1.9-0.2l1.9-0.1l7.8-0.3l15.5-0.2l15.5,0.1h15.5
		c10.4,0,20.7,0,31,0.1l15.5,0.1l7.8,0.1c2.6,0,5.2,0.1,7.7,0.6c-2.6-0.4-5.1-0.4-7.7-0.3l-7.8,0.1l-15.5,0.2l-31,0.2l-15.5-0.1
		c-5.2-0.1-10.3-0.1-15.5-0.3h-15.5l-7.8,0.1h-1.9c-0.6,0-1.3,0.1-1.9,0.1l-1.9,0.1C786.2,824.6,785.5,824.6,785,825.1z"/>
</g>
<g>
	<path class="st1" d="M784.3,835c0.1-0.6,0.6-1.1,1.1-1.5s1.1-0.6,1.7-0.8c1.2-0.4,2.4-0.7,3.7-1c2.5-0.5,5-0.8,7.5-1
		c5-0.5,10-0.9,15-1.2c10.1-0.6,20.1,0.1,30.2,0.4l3.8,0.1h3.8h7.5c5,0,10,0,15.1,0l15.1,0.4c2.5,0.2,5,0.4,7.5,0.6l3.8,0.3
		c0.6,0.1,1.3,0.1,1.9,0.3c0.6,0.2,1.1,0.7,1.4,1.2c-0.4-0.5-0.8-1-1.5-1.1c-0.6-0.2-1.2-0.2-1.9-0.2l-3.8-0.2
		c-2.5-0.1-5-0.3-7.5-0.4l-15.1-0.1l-15.1,0.1H851h-3.8l-3.8-0.1l-15.1-0.6c-5-0.2-10-0.1-15,0c-5,0.2-10,0.5-15,0.9
		c-2.5,0.2-5,0.4-7.5,0.8c-1.2,0.2-2.5,0.5-3.6,0.9c-0.6,0.2-1.2,0.4-1.7,0.8C784.9,833.9,784.4,834.4,784.3,835z"/>
</g>
<line class="st1" x1="1085.5" y1="821.7" x2="1085.5" y2="658.7"/>
<g>
	<path class="st1" d="M655.9,926.8c26.8-1,53.7-1.6,80.5-1.9c13.4-0.2,26.8-0.3,40.3-0.4l40.3-0.1l40.3,0.1
		c13.4,0.1,26.8,0.2,40.3,0.4c26.8,0.4,53.7,0.9,80.5,2c-26.8,1-53.7,1.6-80.5,2c-13.4,0.2-26.8,0.3-40.3,0.4l-40.3,0.1l-40.3-0.1
		c-13.4-0.1-26.8-0.2-40.3-0.4C709.6,928.4,682.8,927.9,655.9,926.8z"/>
</g>
<path class="st0" d="M1192.3,706.2l-0.1-1.9l-0.1-1c0-0.3-0.1-0.6-0.1-0.9c-0.2-1.3-0.4-2.5-0.6-3.8l-1-3.7
	c-1.6-4.9-4.2-9.4-7.5-13.3s-7.2-7.2-11.3-9.9c-4.1-2.8-8.5-5-13-6.9c-9-3.8-18.4-6.2-27.8-7.8c-4.8-0.8-9.5-1.4-14.3-1.8
	c-1.2-0.1-2.4-0.1-3.6-0.2h-0.9h-0.5h-0.5h-1.8h-7l-112.6,0.1l-112.2,0.2c-2.4-0.3-4.6-0.4-6.9-0.4c-2.3,0-4.5,0-6.8,0.1
	c-4.5,0.2-9,0.7-13.5,1.4c-2.2,0.4-4.4,0.9-6.6,1.3l-3.3,0.7l-3.3,0.8c-4.4,1.1-8.7,2.3-13,3.8c-8.5,3-16.9,7.1-24.1,13
	c-3.6,2.9-6.8,6.4-9.5,10.2s-4.9,8-6.5,12.3c-3.2,8.7-4.6,17.7-5.4,26.6c-0.4,4.4-0.7,8.9-0.8,13.3c-0.1,4.4-0.2,8.9-0.2,13.3
	c0,8.9,0.5,17.8,1.3,26.6s2.1,17.5,2.9,26.2c0.2,2.2,0.4,4.3,0.5,6.5l0.3,6.6c0.1,2.2,0.3,4.4,0.5,6.6c0.2,2.1,0.3,4.3,0.2,6.2
	c-0.1,1-0.2,1.9-0.5,2.7c-0.2,0.8-0.6,1.6-1.1,2.2c-1.1,1.3-2.7,2.4-4.5,3.2c-3.6,1.6-7.9,2.7-12.1,3.6c-4.3,0.9-8.6,1.6-12.9,2.3
	c-2.2,0.3-4.4,0.6-6.6,1l-6.6,1.4c-8.6,2.1-17.2,4.8-25.4,8.3c-8.2,3.6-16.1,7.9-23.3,13.3c-7.1,5.4-13.6,11.7-19,18.9
	c-2.7,3.6-5,7.4-7.2,11.3c-2.1,4-3.9,8.1-5.4,12.3s-2.7,8.5-3.5,12.9c-0.2,1-0.4,2-0.5,3h2.2c0.2-0.9,0.3-1.8,0.5-2.7
	c0.9-4.3,2.1-8.4,3.6-12.5s3.3-8,5.4-11.8c2.2-3.7,4.5-7.4,7.2-10.8c10.6-13.7,25.3-23.9,41.3-30.5c8-3.4,16.3-5.9,24.8-7.8l6.4-1.3
	c2.1-0.3,4.3-0.6,6.5-0.9c4.3-0.6,8.7-1.3,13.1-2.2c4.4-0.9,8.8-1.9,13.2-3.8c2.2-0.9,4.4-2.3,6.2-4.4c0.9-1,1.6-2.3,2-3.6
	s0.6-2.6,0.7-3.8c0.2-2.5,0-4.8-0.1-7s-0.3-4.3-0.4-6.5l-0.2-6.6c-0.1-2.3-0.2-4.5-0.4-6.7c-0.8-8.9-2-17.6-2.7-26.3
	c-0.8-8.7-1.2-17.4-1.1-26.1c0-4.4,0.1-8.7,0.3-13.1c0.2-4.3,0.5-8.7,0.9-13c0.8-8.6,2.2-17.2,5.3-25c1.5-3.9,3.4-7.6,5.8-11
	s5.3-6.4,8.5-9c6.5-5.3,14.2-9,22.3-11.8c4-1.5,8.2-2.6,12.4-3.6l3.2-0.7l3.2-0.6c2.2-0.4,4.3-0.9,6.4-1.2c4.3-0.7,8.5-1.1,12.8-1.3
	c2.1-0.1,4.3-0.1,6.4-0.1c2.1,0.1,4.4,0.2,6.3,0.4h0.2h0.2l113.1,0.4l112.6,0.1h7h1.8h0.4h0.4h0.8c1.1,0,2.3,0.1,3.4,0.2
	c4.6,0.4,9.2,0.9,13.7,1.7c9,1.6,17.9,3.8,26.3,7.3c8.3,3.5,16.1,8.2,21.7,14.8c2.7,3.2,4.9,7,6.2,11l0.8,3.1
	c0.2,1.1,0.3,2.1,0.5,3.2c0,0.3,0.1,0.5,0.1,0.8v0.8l0.1,1.6l0.1,1.6v1.8l0.2,109.4l-106.5,0.3L970,820.1l-54.8,0.3
	c-2.6,0-5.1,0.6-7.5,1.6c-2.4,1.1-4.8,2.8-6.2,5.4c-0.6,1.2-1.1,2.6-1.2,4c-0.1,1.4-0.1,2.7,0.2,4.1c0.2,0.7,0.3,1.4,0.6,2
	c0.3,0.7,0.6,1.4,1,1.9l0.6,0.9c0.2,0.2,0.5,0.5,0.7,0.7l0.7,0.7c0.2,0.2,0.5,0.4,0.7,0.6c1,0.8,2.1,1.4,3.1,2.1
	c1,0.6,2.1,1.2,3.1,1.7c2.1,1.1,4.2,2.1,6.3,3c4.2,1.9,8.4,3.7,12.5,5.6c8.3,3.8,16.5,7.7,24.1,12.5c1,0.6,1.9,1.3,2.8,1.9
	c0.9,0.6,1.8,1.2,2.7,1.9l2.7,2l2.5,2.2c3.3,3,6.3,6.3,8.7,10c4.8,7.4,6.5,16.5,5.4,25.3c-0.5,4.5-1.2,9-1.9,13.5
	c-0.1,1-0.3,1.9-0.4,2.8h2.3c0.2-0.8,0.3-1.6,0.5-2.4c0.9-4.5,1.6-9,2.2-13.6l0.4-3.5v-3.5v-0.9l-0.1-0.9l-0.2-1.8
	c-0.1-0.6-0.1-1.2-0.2-1.8l-0.3-1.7c-0.9-4.6-2.6-9.2-5.1-13.2c-2.5-4.1-5.7-7.6-9.1-10.8l-2.6-2.3l-2.8-2.2
	c-0.9-0.8-1.8-1.4-2.8-2.1s-1.9-1.4-2.9-2c-7.9-5.1-16.1-9.2-24.4-13.1c-4.1-2-8.3-3.9-12.4-5.8c-2.1-1-4.1-2-6.1-3
	c-1-0.5-1.9-1.1-2.9-1.6c-0.8-0.6-1.8-1.1-2.5-1.8c-1.6-1.3-2.6-2.7-2.9-4.4c-0.3-1.8-0.1-3.7,0.7-5.2c1.6-2.9,6-4.5,9.9-4.5
	l54.8,0.3l109.6,0.5l109.6,0.3h3.2v-3.3l0.2-112.6v-1.8L1192.3,706.2z"/>
</svg>
