<?xml version="1.0" encoding="utf-8"?>
<!-- Generator: Adobe Illustrator 22.1.0, SVG Export Plug-In . SVG Version: 6.00 Build 0)  -->
<svg version="1.1" id="Layer_1" xmlns="http://www.w3.org/2000/svg" xmlns:xlink="http://www.w3.org/1999/xlink" x="0px" y="0px"
	 viewBox="0 0 1500 1500" style="enable-background:new 0 0 1500 1500;" xml:space="preserve">
<style type="text/css">
	.st0{fill:#7AC5E5;}
	.st1{fill:none;stroke:#7AC5E5;stroke-miterlimit:10;}
</style>
<g>
	<g>
		<path class="st0" d="M864.9,1060.9c-30.7-30.2-61.3-60.6-91.8-91l-45.7-45.6l-45.6-45.7l-45.6-45.8l-45.5-45.9L545.1,741l-45.4-46
			l7.8-0.2c-19.8,22.8-40.1,45-60.7,66.9c-20.7,21.9-41.8,43.4-63.6,64.3c-21.8,20.9-44.1,41.3-67.7,60.3c-5.9,4.7-11.9,9.4-18,13.9
			c-6.1,4.5-12.4,8.9-18.8,13c-6.4,4.1-13.1,8.1-20,11.6c-6.9,3.5-14.2,6.6-22.1,8.8l4.2-7.2c0.9,3.6,1.6,7,2.3,10.4
			c0.7,3.5,1.3,6.9,1.9,10.4c1.1,7,2,14,2.4,21.2c0.2,3.6,0.4,7.2,0.3,10.8c0,3.6-0.2,7.3-0.6,11c-0.4,3.7-1,7.4-2.1,11.2
			c-1.1,3.7-2.7,7.6-5.2,11.1l-4.2-9.1l157.4,13.6l157.4,14c52.4,4.9,104.9,9.6,157.3,14.6l39.3,3.7l39.3,3.8
			C812.5,1055.6,838.7,1058.3,864.9,1060.9c-26.3-1.7-52.6-3.3-78.8-5.1l-39.4-2.7l-39.4-2.7c-52.5-3.6-105.1-7.5-157.6-11.3
			l-157.5-11.9l-157.5-12.3l-10.1-0.8l5.9-8.3c1.5-2.1,2.6-4.7,3.5-7.6c0.8-2.9,1.4-6,1.7-9.2c0.4-3.2,0.5-6.5,0.5-9.8
			c0-3.3-0.1-6.6-0.3-10c-0.4-6.7-1.3-13.4-2.4-20.1c-0.5-3.3-1.1-6.7-1.8-10c-0.7-3.3-1.4-6.7-2.2-9.8l-1.4-5.6l5.6-1.5
			c6.6-1.8,13.2-4.6,19.7-7.9c6.4-3.3,12.7-7.1,18.9-11.1c12.4-8,24.2-17,35.9-26.3c23.2-18.6,45.4-38.7,67.1-59.4
			c21.6-20.7,42.7-42,63.4-63.7c20.7-21.6,41.1-43.7,61-66l3.8-4.3l4,4.1l45,46.4l44.9,46.5L642,827l44.7,46.6l44.7,46.7l44.6,46.8
			C805.8,998.2,835.4,1029.5,864.9,1060.9z"/>
	</g>
	<g>
		<path class="st0" d="M865,1060.9l-0.7-129.2l-0.3-64.6l-0.2-64.6l-0.3-129.2l-0.2-129.2l2.4,2.2c-30,2.3-60,3.9-90.1,5.1
			c-30.1,1.1-60.1,1.6-90.2,1.3c-30.1-0.3-60.2-1.4-90.2-4.3c-15-1.5-30-3.5-44.8-6.5c-7.4-1.5-14.8-3.3-22.1-5.6
			c-7.3-2.3-14.5-5.1-21.2-8.9l3.3-0.9c-3.6,6.1-7.4,11.8-11.5,17.6c-4,5.7-8.3,11.3-12.9,16.6c-2.3,2.7-4.6,5.3-7.1,7.8
			c-2.5,2.5-5.1,4.9-7.8,7.2c-2.8,2.3-5.7,4.4-8.8,6.2c-3.2,1.8-6.6,3.3-10.4,3.9l1.4-3.9l103.2,119.6l103,119.8
			c34.3,39.9,68.7,79.8,102.9,119.8L865,1060.9L760.8,942.1c-34.7-39.6-69.3-79.3-103.9-119L553.1,704L449.4,584.8l-2.8-3.2l4.2-0.7
			c3-0.5,6-1.8,8.9-3.4c2.8-1.6,5.5-3.6,8.1-5.7c2.6-2.1,5.1-4.4,7.4-6.9c2.4-2.4,4.7-4.9,6.9-7.5c4.4-5.2,8.6-10.6,12.6-16.2
			c3.9-5.6,7.7-11.4,11.2-17.2l1.2-2.1l2.1,1.2c6.3,3.5,13.2,6.2,20.3,8.4c7.1,2.2,14.3,3.9,21.6,5.4c14.6,3,29.5,4.9,44.3,6.4
			c29.8,2.9,59.8,4.1,89.8,4.4c30,0.3,60-0.2,90-1.2c30-1,60-2.5,89.9-4.8l2.4-0.2l0,2.4l-0.5,129.2l-0.6,129.2l-0.3,64.6l-0.4,64.6
			L865,1060.9z"/>
	</g>
	<g>
		<path class="st0" d="M864.9,1060.9c20.2-22.9,40.4-46.1,60.8-69.6l61.4-71c10.3-11.9,20.7-23.9,31.1-35.8l31.3-35.9
			c10.4-12,21-23.9,31.6-35.8l31.7-35.8l4.5-5l4.2,5.4c0.5,0.6,1.1,1.4,1.7,2.1c0.6,0.7,1.2,1.5,1.9,2.2c1.3,1.5,2.6,2.9,4,4.3
			c2.7,2.8,5.6,5.5,8.6,8c6,5.1,12.3,9.7,19.1,13.4c3.4,1.9,6.8,3.7,10.4,5.1c3.5,1.5,7.2,2.8,10.8,3.8c1.8,0.6,3.7,0.9,5.6,1.4
			l2.8,0.5l1.4,0.3l1.4,0.2c3.8,0.6,7.6,0.7,11.4,0.8l4.8,0.1l1,4.6l9.5,46.2l9.3,46.2l9.3,46.2l4.7,23.1l4.6,23.1l1.2,5.9l-5.9,0.8
			c-31.6,4.1-63.2,8.2-94.7,12l-47.3,5.7c-15.7,1.9-31.5,3.7-47.1,5.5l-93.2,10.8C925.8,1053.4,895.2,1057.1,864.9,1060.9z
			 M864.9,1060.9c31.9-4.6,63.6-9.4,94.9-14.2l93.4-14.5l46.2-7.1l46-7c30.6-4.6,61.2-8.9,91.9-13.3l-4.7,6.7l-4.9-23.1l-4.8-23.1
			l-9.5-46.2l-9.5-46.2l-9.3-46.2l5.8,4.7c-8.7-0.1-17.4-1.3-25.8-3.7c-4.2-1.2-8.2-2.7-12.2-4.4c-4-1.7-7.8-3.6-11.5-5.8
			c-7.5-4.2-14.4-9.3-20.8-14.8c-3.2-2.8-6.3-5.7-9.2-8.8c-1.5-1.5-2.9-3.1-4.3-4.7c-0.7-0.8-1.4-1.6-2.1-2.5
			c-0.7-0.9-1.3-1.6-2.1-2.7l8.6,0.4l-31.3,34.3c-10.5,11.4-20.9,22.8-31.4,34.2l-31.7,34.1c-10.6,11.4-21.2,22.8-31.9,34.2
			l-64.6,69.1C908.5,1013.6,886.7,1037.1,864.9,1060.9z"/>
	</g>
	<g>
		<g>
			<path class="st0" d="M865.1,1060.9l-0.6-93.5l-0.8-94.1l-0.7-94.5c-0.2-31.6-0.3-63.2-0.4-94.7l0-2.8l2.8,0.5
				c3.8,0.7,7.9,1.1,11.8,1.4c4,0.3,8,0.3,12,0.2c8-0.2,16-1.1,23.8-2.8c3.9-0.9,7.8-1.9,11.5-3.2c3.8-1.3,7.5-2.8,11-4.6
				c1.8-0.8,3.5-1.8,5.3-2.8l2.5-1.5l1.3-0.8l1.2-0.8c3.3-2.2,6.4-4.7,9.4-7.3l1.5-1.3l1.6,1.2l75.8,56.1l75.7,56.2l2,1.5l-1.6,1.9
				l-61.5,72l-61.6,71.6L925.9,990L865.1,1060.9z M865.1,1060.9l60.9-72.7l60.4-72.4l60.1-72l60.2-71.6l0.4,3.4l-75.9-56l-75.8-56.1
				l3.1-0.1c-6.3,5.6-13.3,10.3-20.8,14c-3.7,1.9-7.6,3.4-11.6,4.8c-3.9,1.4-8,2.4-12.1,3.4c-8.1,1.8-16.5,2.7-24.8,2.9
				c-4.2,0.1-8.3,0-12.5-0.3c-2.1-0.1-4.1-0.3-6.2-0.6c-2.1-0.3-4.1-0.5-6.3-0.9l2.8-2.3c-0.1,31.2-0.1,62.4-0.3,93.6l-0.6,93.9
				l-0.7,94.3L865.1,1060.9z"/>
		</g>
	</g>
	<g>
		<path class="st0" d="M503.5,691.3c7.2,2.9,14.5,5.6,21.8,8.1c3.7,1.3,7.4,2.4,11,3.6c3.7,1.1,7.4,2.3,11.1,3.4l5.6,1.6l5.6,1.5
			c3.7,1.1,7.5,2,11.2,2.9c3.7,1,7.5,1.8,11.3,2.7c3.8,0.9,7.5,1.7,11.3,2.5c3.8,0.9,7.6,1.5,11.3,2.3c3.8,0.8,7.6,1.4,11.4,2l5.7,1
			l5.7,0.8l5.7,0.9c1.9,0.3,3.8,0.5,5.7,0.7l5.7,0.7c1.9,0.2,3.8,0.5,5.7,0.6l11.5,1.1l11.5,0.7l2.9,0.2l2.9,0.1l5.8,0.2
			c15.3,0.5,30.7,0.4,46-0.8l5.7-0.4l5.7-0.6l5.7-0.6c1.9-0.2,3.8-0.3,5.7-0.6l11.4-1.6c0.9-0.1,1.9-0.3,2.8-0.4l2.8-0.5l5.6-1.1
			c7.5-1.3,14.9-3.2,22.4-4.9c3.7-1,7.3-2.1,11-3.1l5.5-1.5l5.4-1.8l10.9-3.6l10.7-4.2c1.8-0.7,3.6-1.4,5.3-2.1l5.2-2.4l10.4-4.7
			l4.1-1.8l2.9,3.2c0.8,0.9,1.8,2,2.8,3c1,1,1.9,2,2.9,3c2,2,4,3.9,6.1,5.8c4.1,3.8,8.4,7.5,12.8,11.1c8.7,7.2,17.9,13.9,27.4,20.1
			c19,12.4,39.2,22.9,60.6,30.6c10.7,3.8,21.6,7.1,32.7,9.6c2.8,0.6,5.6,1.1,8.4,1.7c1.4,0.3,2.8,0.6,4.2,0.8l4.2,0.6l4.2,0.6
			c1.4,0.2,2.8,0.5,4.2,0.6l8.5,0.9c22.8,2,45.8,0.6,68.6-3.3l-8.4,2.1c-2.8,0.7-5.6,1.4-8.5,1.9l-8.5,1.6c-0.7,0.1-1.4,0.3-2.1,0.4
			l-2.2,0.3l-4.3,0.5l-4.3,0.5l-2.2,0.3l-2.2,0.2l-8.7,0.6l-2.2,0.1c-0.7,0-1.5,0-2.2,0l-4.4,0l-4.4,0l-2.2,0l-2.2-0.1l-8.7-0.4
			c-2.9-0.1-5.8-0.5-8.7-0.7l-4.4-0.4c-1.5-0.2-2.9-0.4-4.3-0.6c-2.9-0.4-5.8-0.8-8.7-1.3l-8.6-1.7l-2.2-0.4
			c-0.7-0.2-1.4-0.3-2.1-0.5l-4.3-1l-4.3-1c-1.4-0.4-2.8-0.8-4.2-1.2c-2.8-0.9-5.6-1.6-8.4-2.5c-22.3-7.3-43.7-17.3-63.6-29.7
			c-10-6.2-19.5-13-28.7-20.3c-4.6-3.6-9.1-7.4-13.5-11.4c-2.2-2-4.3-4-6.5-6c-1.1-1-2.1-2.1-3.2-3.1c-1.1-1.1-2.1-2.1-3.2-3.3
			l7,1.4l-10.8,4.9l-5.4,2.5c-1.8,0.8-3.7,1.5-5.5,2.2l-11,4.3l-11.2,3.8l-5.6,1.9l-5.7,1.6c-3.8,1-7.6,2.1-11.4,3.1
			c-7.7,1.7-15.4,3.7-23.2,4.9l-5.8,1l-2.9,0.5c-1,0.1-2,0.3-2.9,0.4l-11.7,1.5c-3.9,0.5-7.8,0.7-11.8,1.1l-5.9,0.5l-5.9,0.3
			c-15.7,1-31.5,0.7-47.1-0.2l-5.9-0.4l-2.9-0.2l-2.9-0.3l-11.7-1.2l-11.7-1.5c-1.9-0.2-3.9-0.5-5.8-0.8l-5.8-0.9
			c-3.9-0.6-7.7-1.3-11.6-2l-5.8-1.1l-5.7-1.2c-3.8-0.8-7.6-1.6-11.4-2.6c-3.8-0.9-7.6-1.8-11.4-2.9c-7.6-2-15.1-4.2-22.5-6.5
			c-3.7-1.2-7.4-2.4-11.1-3.7l-5.5-1.9l-5.5-2C531.7,704.4,517.3,698.4,503.5,691.3z"/>
	</g>
	<g>
		<path class="st0" d="M669.9,1044.9l6.7-15.8l6.8-15.7l13.8-31.4l13.9-31.3c4.6-10.4,9.4-20.8,14.1-31.2l0.5-1.1l1.2-0.5
			c11.4-4.6,22.7-9.2,34.1-13.6l34.1-13.5l34.2-13.4l34.2-13.3l1.4-0.5l1.4,0.5l33,11.6c11,3.9,22,7.7,33,11.7l32.9,11.8
			c11,3.9,21.9,7.9,32.9,11.9l1.2,0.4l0.5,1c5.3,10.1,10.6,20.2,15.8,30.3l15.7,30.4l15.5,30.4l7.7,15.3l7.6,15.3l-8.6-14.7
			l-8.5-14.8l-17-29.6l-16.8-29.7c-5.6-9.9-11.1-19.9-16.7-29.8l1.7,1.4c-11.1-3.7-22.1-7.4-33.2-11.2l-33.1-11.3
			c-11-3.7-22-7.6-33.1-11.4l-33.1-11.5l2.8,0l-34.3,13.2l-34.3,13.1l-34.3,13c-11.4,4.3-22.9,8.6-34.4,12.9l1.7-1.6
			c-5,10.3-9.9,20.6-15,30.8l-15.1,30.7l-15.3,30.7l-7.7,15.3L669.9,1044.9z"/>
	</g>
	<g>
		<polygon class="st0" points="868.9,699.5 864.9,1060.9 860.9,699.5 		"/>
	</g>
	<path class="st1" d="M446.9,591.6"/>
	<g>
		<path class="st0" d="M217.5,1064.9l0-16l0.4-16c0.2-5.3,0.5-10.6,0.8-15.9c0.3-5.3,0.8-10.6,1.2-15.9c1.8-21.2,4.7-42.3,8.6-63.3
			c7.9-41.9,20-83,36.2-122.5c16.1-39.5,36.3-77.4,59.9-113c23.7-35.6,50.9-68.7,81.1-99c30.3-30.2,63.4-57.4,99-81.1
			c35.6-23.6,73.4-43.8,113-59.9c19.8-8.1,39.9-15.2,60.4-21.2c20.5-6,41.2-11,62.1-15c21-3.9,42.1-6.8,63.3-8.6
			c5.3-0.4,10.6-0.9,15.9-1.2c5.3-0.3,10.6-0.6,15.9-0.8l16-0.4l16,0c-85.1,1.1-169.7,18.6-247.8,51.5
			c-39,16.5-76.5,36.6-111.6,60.3c-35.1,23.6-68,50.6-97.9,80.6c-30,29.9-57,62.8-80.6,97.9c-23.7,35.1-43.8,72.6-60.3,111.6
			C236.1,895.2,218.6,979.8,217.5,1064.9z"/>
	</g>
	<g>
		<path class="st0" d="M867.2,643.1l20.4,0.1c6.8,0.3,13.6,0.8,20.4,1.2c1.7,0.1,3.4,0.3,5.1,0.5l5.1,0.6l10.2,1.1
			c0.8,0.1,1.7,0.2,2.5,0.3l2.5,0.4l5,0.8l10.1,1.6c26.8,5,53.2,12.6,78.5,22.9c25.4,10.2,49.6,23.1,72.5,38.2
			c22.8,15.1,44.1,32.6,63.5,51.9c19.3,19.4,36.8,40.7,51.9,63.5c15.1,22.8,28,47.1,38.2,72.5l3.7,9.6c1.2,3.2,2.5,6.3,3.5,9.6
			l3.2,9.7c1,3.3,2.2,6.5,3,9.8l2.7,9.9l1.3,4.9c0.2,0.8,0.5,1.6,0.7,2.5l0.5,2.5l2.2,10l1.1,5l0.5,2.5l0.4,2.5l1.6,10.1l0.8,5
			l0.4,2.5c0.1,0.8,0.2,1.7,0.3,2.5l1.1,10.2l0.6,5.1c0.2,1.7,0.4,3.4,0.5,5.1c0.4,6.8,0.9,13.6,1.2,20.4l0.1,20.4
			c-1.2-54.4-12.6-108.3-33.7-158.1c-10.6-24.9-23.5-48.8-38.6-71.1c-15.1-22.4-32.3-43.3-51.4-62.4c-19.1-19.1-40-36.3-62.4-51.4
			c-22.4-15.2-46.2-28-71.1-38.6C975.5,655.7,921.6,644.2,867.2,643.1z"/>
	</g>
</g>
</svg>
